<svg width="27" height="28" viewBox="0 0 27 28" fill="none" xmlns="http://www.w3.org/2000/svg">
<path d="M19.09 19.75V19.76L22.77 23.43" stroke="white" stroke-miterlimit="10"/>
<path d="M8.13001 8.78992L4.51001 5.16992" stroke="white" stroke-miterlimit="10"/>
<path d="M8.11 19.75L4.44 23.43" stroke="white" stroke-miterlimit="10"/>
<path d="M22.69 5.16992L19.1 8.75992" stroke="white" stroke-miterlimit="10"/>
<path d="M13.58 22.0699C9.34999 22.0699 5.85999 18.5599 5.85999 14.3099C5.85999 9.99987 9.35998 6.49986 13.67 6.51986C17.92 6.52986 21.42 10.0299 21.42 14.2599C21.42 18.5199 17.84 22.0799 13.58 22.0799V22.0699Z" stroke="white" stroke-miterlimit="10"/>
<path d="M17.87 20.78C15.56 22.41 12.04 22.56 9.44 20.81C9.68 19.24 11.47 17.78 13.32 17.63C15.36 17.47 17.24 18.77 17.87 20.78Z" stroke="white" stroke-miterlimit="10"/>
<path d="M11.41 13.32C11.41 12.1 12.43 11.1099 13.66 11.1199C14.87 11.1299 15.85 12.1299 15.85 13.3399C15.85 14.5699 14.84 15.57 13.62 15.56C12.39 15.56 11.4 14.55 11.41 13.32Z" stroke="white" stroke-miterlimit="10"/>
<path d="M2.73997 5.39993C1.66997 5.39993 0.779968 4.50993 0.779968 3.42993C0.779968 2.33993 1.66997 1.44995 2.75997 1.44995C3.83997 1.44995 4.72997 2.33995 4.72997 3.41995C4.72997 4.49995 3.81997 5.40994 2.73997 5.40994V5.39993Z" stroke="white" stroke-miterlimit="10"/>
<path d="M26.48 3.40994C26.48 4.48994 25.61 5.38993 24.53 5.39993C23.45 5.39993 22.53 4.50993 22.53 3.42993C22.53 2.34993 23.4 1.45995 24.48 1.44995C25.58 1.44995 26.47 2.31995 26.48 3.41995V3.40994Z" stroke="white" stroke-miterlimit="10"/>
<path d="M4.72999 25.1799C4.72999 26.2499 3.83999 27.1399 2.75999 27.1499C1.66999 27.1499 0.76999 26.26 0.77999 25.17C0.77999 24.09 1.66999 23.2 2.73999 23.2C3.81999 23.2 4.72999 24.0999 4.72999 25.1899V25.1799Z" stroke="white" stroke-miterlimit="10"/>
<path d="M24.5 27.14C23.42 27.14 22.53 26.2499 22.53 25.1799C22.53 24.0999 23.43 23.1899 24.51 23.1899C25.59 23.1899 26.47 24.0799 26.48 25.1599C26.48 26.2499 25.59 27.1499 24.5 27.1499V27.14Z" stroke="white" stroke-miterlimit="10"/>
</svg>
