<svg width="23" height="23" viewBox="0 0 23 23" fill="none" xmlns="http://www.w3.org/2000/svg">
<path d="M0.820007 13.94C0.820007 12.38 0.820007 10.81 0.820007 9.25C0.820007 7.99 1.34001 7.03 2.39001 6.34C4.82001 4.73 7.24001 3.11001 9.66001 1.49001C10.99 0.60001 12.28 0.60001 13.6 1.49001C16 3.09001 18.4 4.7 20.81 6.29C21.92 7.02 22.45 8.02001 22.45 9.35001C22.43 12.47 22.45 15.59 22.45 18.7C22.45 20.28 21.48 21.55 19.99 21.92C19.71 21.99 19.42 22.01 19.14 22.02C17.76 22.02 16.39 22.02 15.01 22.02C14.23 22.02 13.81 21.6 13.81 20.81C13.81 19.11 13.81 17.41 13.81 15.71C13.81 14.86 13.39 14.44 12.56 14.44C11.94 14.44 11.33 14.44 10.71 14.44C9.91001 14.44 9.48001 14.87 9.48001 15.68C9.48001 17.37 9.48001 19.06 9.48001 20.75C9.48001 21.6 9.08001 22.01 8.23001 22.01C6.86001 22.01 5.49001 22.01 4.12001 22.01C2.46001 22.01 1.16001 20.91 0.870007 19.27C0.830007 19.06 0.830009 18.85 0.830009 18.64C0.830009 17.07 0.830009 15.5 0.830009 13.93L0.820007 13.94Z" stroke="white" stroke-miterlimit="10"/>
</svg>
