<svg width="120" height="151" viewBox="0 0 120 151" fill="none" xmlns="http://www.w3.org/2000/svg">
<path d="M4.09729 0.340636V11.2702H2.77498V1.73308H2.71482L0.0501385 3.50627V2.16384L2.78501 0.350603H4.10732L4.09729 0.340636Z" fill="#030024"/>
<path d="M8.17465 11.3503C7.91419 11.3503 7.68372 11.2601 7.49338 11.0698C7.30304 10.8794 7.21285 10.6591 7.21285 10.3886C7.21285 10.1181 7.30304 9.8977 7.49338 9.70736C7.68372 9.51702 7.90417 9.42683 8.17465 9.42683C8.44514 9.42683 8.66546 9.51702 8.8558 9.70736C9.04614 9.8977 9.13633 10.1181 9.13633 10.3886C9.13633 10.5589 9.09626 10.7191 9.0061 10.8694C8.91593 11.0197 8.80576 11.1299 8.65549 11.2201C8.51524 11.3102 8.35497 11.3503 8.17465 11.3503Z" fill="#030024"/>
<path d="M18.483 11.2702V0.340636H22.2999C23.0612 0.340636 23.6924 0.470822 24.1833 0.731288C24.6741 0.991754 25.0448 1.34243 25.2852 1.78322C25.5256 2.22401 25.6458 2.70483 25.6458 3.24579C25.6458 3.71664 25.5657 4.10737 25.3954 4.40791C25.2251 4.71846 25.0147 4.95886 24.7442 5.12917C24.4737 5.30949 24.1832 5.43974 23.8726 5.51988V5.63006C24.2032 5.6501 24.5439 5.77029 24.8845 5.98067C25.2251 6.19104 25.5057 6.50164 25.7361 6.90236C25.9665 7.30307 26.0767 7.78389 26.0767 8.36493C26.0767 8.94597 25.9564 9.40684 25.706 9.84763C25.4556 10.2884 25.0648 10.629 24.5238 10.8895C23.9829 11.1499 23.2917 11.2702 22.4301 11.2702H18.483ZM19.8054 5.13919H22.2598C22.6605 5.13919 23.0212 5.05907 23.3418 4.9088C23.6624 4.75853 23.9227 4.52809 24.1131 4.24759C24.3034 3.96708 24.4036 3.62648 24.4036 3.24579C24.4036 2.76493 24.2333 2.35423 23.9027 2.02364C23.5721 1.68303 23.0412 1.52274 22.3099 1.52274H19.8155V5.14922L19.8054 5.13919ZM19.8054 10.0981H22.4301C23.2917 10.0981 23.9127 9.92777 24.2734 9.59718C24.634 9.25657 24.8244 8.85582 24.8244 8.37496C24.8244 8.0043 24.7342 7.66372 24.5439 7.34315C24.3535 7.03259 24.083 6.77212 23.7424 6.58178C23.3918 6.39144 22.9811 6.29128 22.5002 6.29128H19.8155V10.088L19.8054 10.0981Z" fill="#030024"/>
<path d="M33.2495 7.91418V3.06548H34.5117V11.2601H33.2495V9.87765H33.1593C32.9689 10.2984 32.6684 10.649 32.2576 10.9395C31.8569 11.2301 31.3361 11.3703 30.725 11.3703C30.2141 11.3703 29.7533 11.2601 29.3626 11.0297C28.9618 10.7993 28.6512 10.4587 28.4208 10.0079C28.1904 9.54706 28.0802 8.97606 28.0802 8.27481V3.06548H29.3425V8.18462C29.3425 8.78569 29.5128 9.25653 29.8434 9.61717C30.174 9.97782 30.6047 10.1482 31.1356 10.1482C31.4462 10.1482 31.7668 10.068 32.0974 9.90773C32.418 9.74745 32.6985 9.49701 32.9189 9.16642C33.1392 8.83582 33.2495 8.41506 33.2495 7.90415V7.91418Z" fill="#030024"/>
<path d="M38.0781 0.340636V11.2702H36.8158V0.340636H38.0781Z" fill="#030024"/>
<path d="M40.3823 11.2702V0.340636H41.6444V11.2702H40.3823ZM41.5543 8.28483L41.5342 6.73201H41.7947L45.3812 3.08553H46.9439L43.1272 6.95243H43.017L41.5643 8.29486L41.5543 8.28483ZM45.5915 11.2702L42.3859 7.21291L43.2773 6.34136L47.1844 11.2702H45.5815H45.5915Z" fill="#030024"/>
<path d="M52.9548 11.2702V0.340636H59.5066V1.51271H54.2772V5.20933H59.0157V6.38141H54.2772V11.2702H52.9548Z" fill="#030024"/>
<path d="M62.8624 0.340636V11.2702H61.6001V0.340636H62.8624Z" fill="#030024"/>
<path d="M65.8077 1.70306C65.5573 1.70306 65.3469 1.62291 65.1766 1.45261C65.0063 1.28231 64.9161 1.08191 64.9161 0.851498C64.9161 0.621086 65.0063 0.410734 65.1766 0.250448C65.3469 0.0901612 65.5673 0 65.8077 0C66.0482 0 66.2684 0.0801433 66.4388 0.250448C66.6091 0.420752 66.6992 0.621086 66.6992 0.851498C66.6992 1.08191 66.6091 1.28231 66.4388 1.45261C66.2684 1.62291 66.0482 1.70306 65.8077 1.70306ZM65.1666 11.2702V3.07551H66.4288V11.2702H65.1666Z" fill="#030024"/>
<path d="M68.7328 14.3457V3.07551H69.9449V4.37782H70.0952C70.1854 4.23757 70.3156 4.05726 70.4859 3.82685C70.6562 3.60646 70.8866 3.40606 71.1971 3.22574C71.5077 3.04542 71.9285 2.96532 72.4694 2.96532C73.1607 2.96532 73.7718 3.13559 74.2928 3.48621C74.8137 3.83684 75.2344 4.31772 75.5249 4.94885C75.8155 5.57998 75.9657 6.33131 75.9657 7.19286C75.9657 8.0544 75.8155 8.81576 75.5249 9.44689C75.2344 10.078 74.8237 10.5689 74.2928 10.9196C73.7718 11.2702 73.1707 11.4404 72.4795 11.4404C71.9485 11.4404 71.5278 11.3503 71.2172 11.18C70.8966 10.9996 70.6562 10.7993 70.4859 10.5789C70.3156 10.3585 70.1854 10.1682 70.0952 10.0179H69.985V14.3557H68.7227L68.7328 14.3457ZM69.965 7.1728C69.965 7.79391 70.0551 8.33488 70.2355 8.80572C70.4158 9.27657 70.6863 9.64727 71.0269 9.90773C71.3775 10.1682 71.7983 10.3084 72.3092 10.3084C72.8201 10.3084 73.2709 10.1682 73.6315 9.88768C73.9822 9.60717 74.2527 9.22649 74.433 8.75565C74.6134 8.28481 74.7034 7.75384 74.7034 7.1728C74.7034 6.59176 74.6134 6.08085 74.4431 5.61001C74.2627 5.14918 74.0022 4.77855 73.6516 4.50806C73.301 4.23758 72.8502 4.09735 72.3193 4.09735C71.7883 4.09735 71.3775 4.22754 71.0269 4.48801C70.6763 4.74847 70.4158 5.10913 70.2355 5.56996C70.0551 6.03078 69.965 6.57173 69.965 7.18283V7.1728Z" fill="#030024"/>
<path d="M82.2773 11.2702V0.340636H88.829V1.51271H83.5996V5.20933H88.3381V6.38141H83.5996V11.2702H82.2773Z" fill="#030024"/>
<path d="M92.1849 0.340636V11.2702H90.9226V0.340636H92.1849Z" fill="#030024"/>
<path d="M97.8251 11.4404C97.0838 11.4404 96.4325 11.2602 95.8815 10.9095C95.3205 10.5589 94.8898 10.068 94.5793 9.42683C94.2687 8.7957 94.1085 8.05441 94.1085 7.20288C94.1085 6.35136 94.2687 5.60004 94.5793 4.96891C94.8898 4.33778 95.3205 3.83684 95.8815 3.48621C96.4425 3.13559 97.0838 2.9553 97.8251 2.9553C98.5664 2.9553 99.2175 3.13559 99.7685 3.48621C100.329 3.83684 100.76 4.32776 101.071 4.96891C101.381 5.61005 101.542 6.35136 101.542 7.20288C101.542 8.05441 101.381 8.78568 101.071 9.42683C100.76 10.058 100.329 10.5489 99.7685 10.9095C99.2075 11.2602 98.5664 11.4404 97.8251 11.4404ZM97.8251 10.3084C98.3861 10.3084 98.8469 10.1682 99.2176 9.87765C99.5782 9.58713 99.8486 9.20644 100.019 8.74562C100.189 8.27478 100.279 7.76391 100.279 7.22294C100.279 6.68197 100.189 6.16101 100.019 5.69017C99.8486 5.21933 99.5782 4.83868 99.2176 4.53814C98.8569 4.24762 98.3961 4.09735 97.8251 4.09735C97.2541 4.09735 96.8032 4.24762 96.4426 4.53814C96.082 4.82866 95.8114 5.20931 95.6411 5.69017C95.4708 6.16101 95.3806 6.67195 95.3806 7.22294C95.3806 7.77392 95.4708 8.27478 95.6411 8.74562C95.8114 9.21646 96.082 9.59715 96.4426 9.87765C96.8032 10.1682 97.2641 10.3084 97.8251 10.3084Z" fill="#030024"/>
<path d="M103.455 14.3457V3.07551H104.667V4.37782H104.817C104.907 4.23757 105.038 4.05726 105.208 3.82685C105.378 3.60646 105.609 3.40606 105.919 3.22574C106.23 3.04542 106.65 2.96532 107.191 2.96532C107.883 2.96532 108.494 3.13559 109.015 3.48621C109.546 3.82682 109.956 4.31772 110.247 4.94885C110.537 5.57998 110.688 6.33131 110.688 7.19286C110.688 8.0544 110.537 8.81576 110.247 9.44689C109.956 10.078 109.546 10.5689 109.025 10.9196C108.504 11.2702 107.903 11.4404 107.211 11.4404C106.681 11.4404 106.26 11.3503 105.949 11.18C105.629 10.9996 105.388 10.7993 105.218 10.5789C105.048 10.3485 104.917 10.1682 104.827 10.0179H104.717V14.3557H103.455V14.3457ZM104.697 7.1728C104.697 7.79391 104.787 8.33488 104.967 8.80572C105.148 9.27657 105.418 9.64727 105.759 9.90773C106.099 10.1682 106.53 10.3084 107.041 10.3084C107.552 10.3084 108.003 10.1682 108.364 9.88768C108.714 9.60717 108.985 9.22649 109.165 8.75565C109.345 8.28481 109.435 7.75384 109.435 7.1728C109.435 6.59176 109.345 6.08085 109.175 5.61001C108.995 5.14918 108.734 4.77855 108.384 4.50806C108.033 4.23758 107.582 4.09735 107.051 4.09735C106.52 4.09735 106.109 4.22754 105.759 4.48801C105.408 4.74847 105.148 5.10913 104.967 5.56996C104.787 6.03078 104.697 6.57173 104.697 7.18283V7.1728Z" fill="#030024"/>
<path d="M118.421 4.9088L117.289 5.22932C117.219 5.03898 117.119 4.85867 116.979 4.67835C116.839 4.49803 116.658 4.34775 116.418 4.22753C116.177 4.10732 115.887 4.04722 115.516 4.04722C115.015 4.04722 114.595 4.16746 114.264 4.38785C113.934 4.61826 113.763 4.90878 113.763 5.2594C113.763 5.56996 113.873 5.8204 114.104 6.00072C114.334 6.18104 114.685 6.33132 115.176 6.45154L116.388 6.75206C117.119 6.93239 117.67 7.20287 118.031 7.56351C118.391 7.92416 118.572 8.39502 118.572 8.96605C118.572 9.43689 118.442 9.85765 118.171 10.2283C117.901 10.599 117.53 10.8895 117.049 11.0999C116.568 11.3102 116.007 11.4204 115.376 11.4204C114.545 11.4204 113.843 11.2401 113.302 10.8794C112.751 10.5188 112.411 9.98788 112.261 9.28663L113.453 8.98604C113.563 9.42683 113.783 9.75747 114.104 9.97786C114.424 10.1983 114.835 10.3084 115.356 10.3084C115.947 10.3084 116.408 10.1882 116.759 9.92773C117.109 9.67728 117.279 9.37678 117.279 9.02615C117.279 8.74565 117.179 8.50519 116.979 8.30483C116.779 8.11449 116.478 7.96423 116.057 7.87407L114.695 7.55349C113.944 7.37316 113.392 7.10272 113.042 6.72204C112.691 6.35138 112.521 5.8805 112.521 5.30948C112.521 4.84866 112.651 4.43794 112.912 4.0773C113.172 3.71665 113.533 3.44614 113.984 3.23577C114.434 3.03541 114.955 2.93524 115.526 2.93524C116.338 2.93524 116.979 3.11559 117.44 3.46622C117.901 3.82687 118.231 4.28766 118.432 4.87872L118.421 4.9088Z" fill="#030024"/>
<path d="M0.260476 57.7833V56.8216L3.8669 52.8746C4.28765 52.4138 4.63832 52.013 4.9088 51.6624C5.17929 51.3118 5.38965 50.9912 5.51988 50.6906C5.65011 50.3901 5.72019 50.0695 5.72019 49.7289C5.72019 49.3483 5.63013 49.0077 5.44981 48.7271C5.26949 48.4466 5.01904 48.2262 4.69847 48.076C4.37789 47.9257 4.02721 47.8456 3.63651 47.8456C3.21576 47.8456 2.85514 47.9357 2.54459 48.106C2.23403 48.2763 1.99351 48.5167 1.82321 48.8273C1.6529 49.1379 1.57276 49.4985 1.57276 49.9193H0.310614C0.310614 49.2781 0.460824 48.7171 0.751344 48.2363C1.04186 47.7554 1.45256 47.3747 1.96347 47.1043C2.47439 46.8338 3.0455 46.6935 3.68665 46.6935C4.32779 46.6935 4.89877 46.8338 5.38964 47.1043C5.88052 47.3747 6.27125 47.7353 6.55175 48.1962C6.83226 48.657 6.97243 49.1679 6.97243 49.7289C6.97243 50.1297 6.90233 50.5203 6.75206 50.901C6.61181 51.2817 6.36137 51.7125 6.00072 52.1733C5.65009 52.6442 5.15925 53.2151 4.52812 53.8863L2.07365 56.511V56.5912H7.15281V57.7633H0.260476V57.7833Z" fill="#030024"/>
<path d="M10.2884 57.8635C10.028 57.8635 9.79749 57.7733 9.60715 57.583C9.41681 57.3926 9.32674 57.1722 9.32674 56.9017C9.32674 56.6313 9.41681 56.4109 9.60715 56.2205C9.79749 56.0302 10.0179 55.9401 10.2884 55.9401C10.5589 55.9401 10.7792 56.0302 10.9696 56.2205C11.1599 56.4109 11.2501 56.6313 11.2501 56.9017C11.2501 57.072 11.21 57.2324 11.1199 57.3826C11.0297 57.5329 10.9195 57.6431 10.7693 57.7332C10.629 57.8234 10.4687 57.8635 10.2884 57.8635Z" fill="#030024"/>
<path d="M17.9122 57.7833V46.8538H24.4639V48.0259H19.2345V51.7225H23.973V52.8946H19.2345V57.7833H17.9122Z" fill="#030024"/>
<path d="M27.1987 48.2162C26.9482 48.2162 26.7378 48.1361 26.5675 47.9658C26.3972 47.7955 26.3071 47.5951 26.3071 47.3647C26.3071 47.1343 26.3972 46.9239 26.5675 46.7636C26.7378 46.6033 26.9582 46.5132 27.1987 46.5132C27.4391 46.5132 27.6595 46.5933 27.8298 46.7636C28.0001 46.9339 28.0903 47.1343 28.0903 47.3647C28.0903 47.5951 28.0001 47.7955 27.8298 47.9658C27.6595 48.1361 27.4391 48.2162 27.1987 48.2162ZM26.5575 57.7833V49.5887H27.8198V57.7833H26.5575Z" fill="#030024"/>
<path d="M30.1239 57.7833V49.5887H31.3362V50.8309H31.4263C31.5766 50.4302 31.8471 50.0996 32.2378 49.8391C32.6285 49.5887 33.0693 49.4584 33.5601 49.4584C33.6503 49.4584 33.7705 49.4584 33.9107 49.4584C34.051 49.4584 34.1512 49.4585 34.2214 49.4785V50.7608C34.2214 50.7608 34.0811 50.7307 33.9308 50.7107C33.7805 50.6906 33.6203 50.6807 33.45 50.6807C33.0492 50.6807 32.6985 50.7608 32.388 50.9311C32.0774 51.1014 31.827 51.3218 31.6567 51.6123C31.4764 51.9028 31.3862 52.2334 31.3862 52.6041V57.7933H30.1239V57.7833Z" fill="#030024"/>
<path d="M38.8895 57.9536C38.0981 57.9536 37.4169 57.7733 36.8459 57.4227C36.2749 57.0721 35.834 56.5812 35.5235 55.95C35.2129 55.3189 35.0627 54.5876 35.0627 53.7461C35.0627 52.9046 35.2129 52.1633 35.5235 51.5221C35.834 50.881 36.2648 50.3801 36.8158 50.0194C37.3668 49.6588 38.018 49.4785 38.7594 49.4785C39.1901 49.4785 39.6108 49.5486 40.0215 49.6888C40.4423 49.8291 40.8129 50.0595 41.1535 50.3801C41.4942 50.7006 41.7647 51.1214 41.9651 51.6423C42.1654 52.1633 42.2656 52.8144 42.2656 53.5758V54.1068H35.9443V53.0148H40.9833C40.9833 52.554 40.8931 52.1432 40.7128 51.7726C40.5325 51.4019 40.272 51.1214 39.9314 50.911C39.5908 50.7007 39.2001 50.6005 38.7393 50.6005C38.2384 50.6005 37.8076 50.7207 37.4369 50.9712C37.0763 51.2216 36.7958 51.5422 36.5955 51.9329C36.3951 52.3236 36.3049 52.7543 36.3049 53.2051V53.9264C36.3049 54.5476 36.4152 55.0685 36.6256 55.4993C36.8359 55.93 37.1364 56.2506 37.5271 56.471C37.9077 56.6914 38.3586 56.8016 38.8696 56.8016C39.2001 56.8016 39.5006 56.7515 39.7711 56.6613C40.0416 56.5712 40.272 56.4209 40.4724 56.2306C40.6728 56.0402 40.823 55.7998 40.9232 55.5193L42.1354 55.8599C42.0052 56.2706 41.7948 56.6313 41.4942 56.9419C41.1937 57.2524 40.823 57.4928 40.3722 57.6631C39.9315 57.8334 39.4306 57.9236 38.8696 57.9236L38.8895 57.9536Z" fill="#030024"/>
<path d="M44.2092 60.8588V49.5887H45.4213V50.891H45.5716C45.6618 50.7507 45.792 50.5704 45.9623 50.34C46.1326 50.1196 46.363 49.9193 46.6735 49.739C46.9841 49.5586 47.4049 49.4785 47.9458 49.4785C48.6371 49.4785 49.2482 49.6488 49.7692 49.9994C50.3001 50.34 50.7108 50.8309 51.0014 51.462C51.2919 52.0931 51.4421 52.8445 51.4421 53.706C51.4421 54.5676 51.2919 55.3289 51.0014 55.9601C50.7108 56.5912 50.3001 57.0821 49.7792 57.4327C49.2583 57.7833 48.6571 57.9536 47.9659 57.9536C47.435 57.9536 47.0142 57.8635 46.7036 57.6932C46.3831 57.5129 46.1426 57.3125 45.9723 57.0921C45.802 56.8617 45.6718 56.6814 45.5816 56.5311H45.4714V60.8689H44.2092V60.8588ZM45.4414 53.686C45.4414 54.3071 45.5315 54.8481 45.7119 55.3189C45.8922 55.7897 46.1627 56.1604 46.5033 56.4209C46.8439 56.6814 47.2746 56.8216 47.7855 56.8216C48.2964 56.8216 48.7473 56.6813 49.108 56.4008C49.4586 56.1203 49.729 55.7397 49.9093 55.2688C50.0896 54.798 50.1798 54.2671 50.1798 53.686C50.1798 53.105 50.0896 52.5941 49.9193 52.1232C49.739 51.6624 49.4786 51.2917 49.128 51.0212C48.7774 50.7507 48.3265 50.6105 47.7956 50.6105C47.2646 50.6105 46.854 50.7407 46.5033 51.0012C46.1527 51.2616 45.8922 51.6223 45.7119 52.0831C45.5315 52.5439 45.4414 53.0849 45.4414 53.696V53.686Z" fill="#030024"/>
<path d="M54.6275 46.8538V57.7833H53.3652V46.8538H54.6275Z" fill="#030024"/>
<path d="M59.3362 57.9737C58.8153 57.9737 58.3444 57.8735 57.9236 57.6832C57.5029 57.4828 57.1624 57.2023 56.912 56.8216C56.6615 56.4509 56.5413 55.9901 56.5413 55.4592C56.5413 54.9883 56.6314 54.6076 56.8217 54.3171C57.012 54.0266 57.2525 53.7962 57.563 53.6259C57.8736 53.4556 58.2142 53.3354 58.5949 53.2452C58.9756 53.1551 59.3462 53.095 59.7269 53.0449C60.2278 52.9848 60.6285 52.9346 60.939 52.8946C61.2496 52.8645 61.4801 52.8044 61.6203 52.7243C61.7606 52.6441 61.8407 52.5039 61.8407 52.2935V52.2534C61.8407 51.7225 61.7005 51.3218 61.41 51.0313C61.1195 50.7407 60.6886 50.5905 60.1076 50.5905C59.5266 50.5905 59.0357 50.7207 58.695 50.9812C58.3544 51.2416 58.114 51.5221 57.9738 51.8227L56.7817 51.3919C56.9921 50.891 57.2826 50.5103 57.6332 50.2298C57.9939 49.9493 58.3845 49.759 58.8052 49.6388C59.226 49.5286 59.6467 49.4685 60.0575 49.4685C60.3179 49.4685 60.6285 49.4985 60.9691 49.5586C61.3097 49.6187 61.6403 49.7489 61.9709 49.9393C62.2915 50.1296 62.562 50.4201 62.7724 50.8108C62.9828 51.2015 63.0929 51.7225 63.0929 52.3737V57.7733H61.8307V56.6613H61.7706C61.6905 56.8416 61.5401 57.032 61.3398 57.2323C61.1394 57.4327 60.879 57.613 60.5485 57.7533C60.2179 57.8936 59.8171 57.9636 59.3362 57.9636V57.9737ZM59.5366 56.8416C60.0375 56.8416 60.4583 56.7415 60.7989 56.5511C61.1395 56.3608 61.3999 56.1003 61.5802 55.7898C61.7605 55.4792 61.8407 55.1586 61.8407 54.818V53.666C61.7906 53.7261 61.6704 53.7862 61.4901 53.8363C61.3098 53.8864 61.1094 53.9364 60.869 53.9665C60.6386 54.0066 60.4081 54.0366 60.1877 54.0667C59.9673 54.0967 59.7871 54.1168 59.6568 54.1368C59.3263 54.1769 59.0257 54.247 58.7452 54.3472C58.4647 54.4373 58.2342 54.5776 58.0639 54.7679C57.8936 54.9583 57.8034 55.2087 57.8034 55.5293C57.8034 55.9701 57.9638 56.3007 58.2944 56.5211C58.625 56.7414 59.0357 56.8517 59.5366 56.8517V56.8416Z" fill="#030024"/>
<path d="M68.733 57.9536C67.9616 57.9536 67.3005 57.7733 66.7495 57.4127C66.1985 57.052 65.7677 56.5511 65.4672 55.91C65.1666 55.2788 65.0164 54.5475 65.0164 53.7261C65.0164 52.9046 65.1666 52.1533 65.4772 51.5221C65.7877 50.881 66.2186 50.3801 66.7695 50.0194C67.3205 49.6588 67.9716 49.4785 68.713 49.4785C69.294 49.4785 69.805 49.5887 70.2758 49.7991C70.7366 50.0094 71.1173 50.3099 71.4078 50.6906C71.6984 51.0713 71.8886 51.5221 71.9588 52.033H70.6965C70.5963 51.6624 70.386 51.3318 70.0554 51.0413C69.7249 50.7508 69.284 50.6105 68.733 50.6105C68.2421 50.6105 67.8113 50.7408 67.4407 50.9912C67.07 51.2417 66.7895 51.6022 66.5791 52.0631C66.3788 52.5239 66.2686 53.0649 66.2686 53.686C66.2686 54.3071 66.3688 54.8681 66.5691 55.3389C66.7695 55.8098 67.0501 56.1705 67.4207 56.4309C67.7914 56.6914 68.2221 56.8216 68.723 56.8216C69.0536 56.8216 69.3441 56.7615 69.6146 56.6513C69.8851 56.5411 70.1055 56.3708 70.2959 56.1604C70.4762 55.95 70.6165 55.6896 70.6866 55.389H71.9487C71.8786 55.8699 71.6984 56.3107 71.4279 56.6914C71.1574 57.0721 70.7766 57.3826 70.3258 57.613C69.875 57.8434 69.3341 57.9536 68.733 57.9536Z" fill="#030024"/>
<path d="M77.2278 57.9536C76.4364 57.9536 75.7553 57.7733 75.1842 57.4227C74.6132 57.0721 74.1724 56.5812 73.8618 55.95C73.5513 55.3189 73.401 54.5876 73.401 53.7461C73.401 52.9046 73.5513 52.1633 73.8618 51.5221C74.1724 50.881 74.6032 50.3801 75.1542 50.0194C75.7052 49.6588 76.3563 49.4785 77.0976 49.4785C77.5284 49.4785 77.9491 49.5486 78.3599 49.6888C78.7806 49.8291 79.1513 50.0595 79.4919 50.3801C79.8325 50.7006 80.103 51.1214 80.3034 51.6423C80.5037 52.1633 80.6039 52.8144 80.6039 53.5758V54.1068H74.2826V53.0148H79.3217C79.3217 52.554 79.2315 52.1432 79.0512 51.7726C78.8708 51.4019 78.6103 51.1214 78.2697 50.911C77.9291 50.7007 77.5385 50.6005 77.0777 50.6005C76.5768 50.6005 76.1459 50.7207 75.7753 50.9712C75.4146 51.2216 75.1342 51.5422 74.9338 51.9329C74.7334 52.3236 74.6432 52.7543 74.6432 53.2051V53.9264C74.6432 54.5476 74.7534 55.0685 74.9638 55.4993C75.1741 55.93 75.4747 56.2506 75.8654 56.471C76.2461 56.6914 76.6969 56.8016 77.2078 56.8016C77.5384 56.8016 77.8389 56.7515 78.1094 56.6613C78.3799 56.5712 78.6104 56.4209 78.8007 56.2306C79.0011 56.0402 79.1513 55.7998 79.2515 55.5193L80.4636 55.8599C80.3334 56.2706 80.1231 56.6313 79.8225 56.9419C79.522 57.2524 79.1514 57.4928 78.7005 57.6631C78.2598 57.8334 77.7589 57.9236 77.1979 57.9236L77.2278 57.9536Z" fill="#030024"/>
<path d="M86.9355 57.7833V46.8538H88.2578V56.6112H93.3369V57.7833H86.9355Z" fill="#030024"/>
<path d="M98.5564 57.9536C97.815 57.9536 97.1639 57.7733 96.6129 57.4227C96.0519 57.0721 95.6211 56.5812 95.3106 55.9401C95 55.3089 94.8398 54.5676 94.8398 53.7161C94.8398 52.8645 95 52.1132 95.3106 51.4821C95.6211 50.8409 96.0519 50.35 96.6129 49.9994C97.174 49.6488 97.815 49.4685 98.5564 49.4685C99.2977 49.4685 99.9488 49.6488 100.5 49.9994C101.051 50.35 101.492 50.8409 101.802 51.4821C102.113 52.1232 102.273 52.8645 102.273 53.7161C102.273 54.5676 102.113 55.2989 101.802 55.9401C101.492 56.5712 101.061 57.062 100.5 57.4227C99.9388 57.7833 99.2977 57.9536 98.5564 57.9536ZM98.5564 56.8216C99.1174 56.8216 99.5782 56.6813 99.9388 56.3908C100.299 56.1003 100.57 55.7196 100.74 55.2588C100.911 54.7879 101.001 54.2771 101.001 53.7361C101.001 53.1951 100.911 52.6742 100.74 52.2033C100.57 51.7325 100.299 51.3518 99.9388 51.0513C99.5782 50.7608 99.1174 50.6105 98.5564 50.6105C97.9954 50.6105 97.5345 50.7608 97.1739 51.0513C96.8132 51.3418 96.5427 51.7225 96.3724 52.2033C96.2021 52.6742 96.1121 53.1851 96.1121 53.7361C96.1121 54.2871 96.2021 54.7879 96.3724 55.2588C96.5427 55.7296 96.8132 56.1103 97.1739 56.3908C97.5345 56.6813 97.9954 56.8216 98.5564 56.8216Z" fill="#030024"/>
<path d="M107.492 61.0291C106.881 61.0291 106.36 60.949 105.919 60.7987C105.478 60.6485 105.118 60.4381 104.827 60.1876C104.537 59.9372 104.306 59.6667 104.136 59.3862L105.138 58.685C105.248 58.8352 105.398 59.0055 105.569 59.1959C105.739 59.3862 105.979 59.5565 106.29 59.7067C106.6 59.857 106.991 59.9272 107.492 59.9272C108.153 59.9272 108.704 59.7669 109.125 59.4463C109.546 59.1258 109.766 58.6249 109.766 57.9436V56.2806H109.656C109.566 56.4309 109.436 56.6112 109.265 56.8316C109.095 57.052 108.855 57.2424 108.544 57.4127C108.233 57.583 107.803 57.6631 107.272 57.6631C106.61 57.6631 106.02 57.5029 105.489 57.1923C104.958 56.8817 104.547 56.4209 104.246 55.8298C103.946 55.2287 103.785 54.5075 103.785 53.6559C103.785 52.8044 103.936 52.0831 104.226 51.462C104.517 50.8409 104.938 50.35 105.458 50.0094C105.979 49.6688 106.59 49.4985 107.282 49.4985C107.813 49.4985 108.243 49.5887 108.554 49.759C108.865 49.9393 109.115 50.1297 109.275 50.3601C109.446 50.5805 109.576 50.7608 109.666 50.911H109.796V49.6087H111.008V58.0438C111.008 58.7451 110.848 59.3261 110.527 59.7668C110.207 60.2076 109.786 60.5383 109.245 60.7386C108.714 60.949 108.113 61.0492 107.462 61.0492L107.492 61.0291ZM107.452 56.5211C107.953 56.5211 108.384 56.4009 108.734 56.1705C109.085 55.94 109.345 55.6094 109.526 55.1687C109.706 54.7379 109.796 54.217 109.796 53.6059C109.796 52.9948 109.706 52.4939 109.526 52.0431C109.345 51.5923 109.085 51.2416 108.734 50.9812C108.384 50.7207 107.953 50.6005 107.442 50.6005C106.931 50.6005 106.46 50.7307 106.11 51.0112C105.759 51.2817 105.489 51.6424 105.318 52.1032C105.138 52.564 105.058 53.0649 105.058 53.6159C105.058 54.1669 105.148 54.6878 105.328 55.1186C105.509 55.5594 105.779 55.8999 106.13 56.1404C106.48 56.3908 106.921 56.511 107.452 56.511V56.5211Z" fill="#030024"/>
<path d="M119.153 51.422L118.021 51.7426C117.951 51.5522 117.851 51.3718 117.71 51.1915C117.57 51.0112 117.39 50.861 117.15 50.7408C116.909 50.6205 116.619 50.5604 116.248 50.5604C115.747 50.5604 115.326 50.6806 114.996 50.901C114.665 51.1314 114.495 51.4219 114.495 51.7726C114.495 52.0831 114.605 52.3336 114.835 52.5139C115.066 52.6942 115.416 52.8445 115.907 52.9647L117.119 53.2652C117.851 53.4456 118.402 53.716 118.752 54.0767C119.113 54.4373 119.293 54.9082 119.293 55.4792C119.293 55.9501 119.163 56.3708 118.893 56.7415C118.622 57.1121 118.252 57.4027 117.771 57.613C117.29 57.8234 116.729 57.9336 116.098 57.9336C115.266 57.9336 114.565 57.7533 114.024 57.3926C113.473 57.032 113.132 56.501 112.982 55.7998L114.174 55.4993C114.284 55.9401 114.505 56.2706 114.825 56.491C115.146 56.7114 115.557 56.8216 116.078 56.8216C116.669 56.8216 117.129 56.7014 117.48 56.441C117.831 56.1905 118.001 55.8899 118.001 55.5393C118.001 55.2588 117.901 55.0184 117.7 54.818C117.5 54.6277 117.2 54.4774 116.779 54.3872L115.416 54.0667C114.665 53.8863 114.114 53.6159 113.763 53.2352C113.413 52.8645 113.243 52.3937 113.243 51.8227C113.243 51.3618 113.373 50.9511 113.633 50.5905C113.894 50.2298 114.254 49.9593 114.705 49.7489C115.156 49.5486 115.677 49.4484 116.248 49.4484C117.059 49.4484 117.7 49.6288 118.161 49.9794C118.622 50.34 118.953 50.8008 119.153 51.3919V51.422Z" fill="#030024"/>
<path d="M3.94712 104.447C3.24587 104.447 2.61473 104.327 2.06375 104.086C1.51276 103.846 1.08193 103.505 0.751344 103.074C0.43077 102.644 0.250428 102.143 0.230392 101.572H1.57276C1.60281 101.922 1.72313 102.223 1.93351 102.483C2.14389 102.734 2.42435 102.934 2.77498 103.074C3.12561 103.215 3.50631 103.285 3.92707 103.285C4.39791 103.285 4.80864 103.205 5.17931 103.034C5.54997 102.864 5.83045 102.644 6.0308 102.353C6.23116 102.062 6.3413 101.722 6.3413 101.341C6.3413 100.961 6.24119 100.59 6.04083 100.279C5.84047 99.9687 5.54996 99.7283 5.16928 99.558C4.7886 99.3877 4.31772 99.2976 3.75672 99.2976H2.88516V98.1255H3.75672C4.18749 98.1255 4.56818 98.0453 4.89877 97.895C5.22937 97.7347 5.48985 97.5144 5.67017 97.2339C5.8505 96.9534 5.9507 96.6128 5.9507 96.2321C5.9507 95.8514 5.87045 95.5408 5.71016 95.2703C5.54988 94.9999 5.31952 94.7795 5.01898 94.6292C4.71845 94.479 4.36777 94.3988 3.96705 94.3988C3.58637 94.3988 3.23581 94.4689 2.90522 94.6092C2.57463 94.7494 2.30409 94.9398 2.09371 95.2003C1.88333 95.4607 1.77317 95.7713 1.75313 96.1319H0.470813C0.490848 95.5609 0.661173 95.06 0.991764 94.6292C1.31234 94.1985 1.74313 93.8578 2.26406 93.6174C2.78499 93.377 3.36601 93.2568 3.99714 93.2568C4.66834 93.2568 5.24937 93.397 5.74025 93.6675C6.22111 93.938 6.59175 94.2986 6.85222 94.7394C7.11269 95.1802 7.24293 95.6611 7.24293 96.182C7.24293 96.8031 7.08267 97.3241 6.76209 97.7548C6.44152 98.1856 6.00079 98.4861 5.44981 98.6564V98.7466C6.14105 98.8568 6.682 99.1573 7.06268 99.6282C7.45338 100.099 7.64367 100.68 7.64367 101.371C7.64367 101.962 7.48341 102.493 7.16283 102.974C6.84226 103.445 6.40141 103.816 5.85043 104.086C5.29944 104.357 4.6683 104.497 3.95703 104.497L3.94712 104.447Z" fill="#030024"/>
<path d="M10.4188 104.377C10.1583 104.377 9.92785 104.286 9.73751 104.096C9.54717 103.906 9.4571 103.685 9.4571 103.415C9.4571 103.144 9.54717 102.924 9.73751 102.734C9.92785 102.543 10.1483 102.453 10.4188 102.453C10.6893 102.453 10.9096 102.543 11.0999 102.734C11.2903 102.924 11.3805 103.144 11.3805 103.415C11.3805 103.585 11.3404 103.746 11.2502 103.896C11.1601 104.046 11.0499 104.156 10.8996 104.246C10.7594 104.337 10.5991 104.377 10.4188 104.377Z" fill="#030024"/>
<path d="M18.0423 104.296V93.367H21.859C22.6204 93.367 23.2515 93.4972 23.7424 93.7577C24.2333 94.0182 24.604 94.3688 24.8445 94.8096C25.0849 95.2503 25.2051 95.7312 25.2051 96.2721C25.2051 96.743 25.125 97.1337 24.9547 97.4342C24.7844 97.7448 24.574 97.9852 24.3035 98.1555C24.033 98.3258 23.7425 98.4661 23.4319 98.5462V98.6564C23.7625 98.6764 24.1031 98.7967 24.4437 99.0071C24.7843 99.2174 25.0648 99.528 25.2952 99.9287C25.5256 100.329 25.6358 100.81 25.6358 101.391C25.6358 101.972 25.5156 102.433 25.2652 102.874C25.0147 103.315 24.6241 103.655 24.0831 103.916C23.5421 104.176 22.8508 104.296 21.9893 104.296H18.0423ZM19.3646 98.1655H21.819C22.2198 98.1655 22.5804 98.0854 22.9009 97.9351C23.2215 97.7849 23.482 97.5544 23.6723 97.2739C23.8627 96.9934 23.9529 96.6528 23.9529 96.2721C23.9529 95.7913 23.7826 95.3806 23.452 95.05C23.1214 94.7094 22.5903 94.5491 21.859 94.5491H19.3646V98.1756V98.1655ZM19.3646 103.124H21.9893C22.8508 103.124 23.472 102.954 23.8327 102.624C24.1933 102.283 24.3836 101.882 24.3836 101.401C24.3836 101.031 24.2935 100.69 24.1032 100.369C23.9128 100.059 23.6423 99.7985 23.3017 99.6081C22.9511 99.4178 22.5403 99.3176 22.0595 99.3176H19.3746V103.114L19.3646 103.124Z" fill="#030024"/>
<path d="M31.0756 104.467C30.2842 104.467 29.6029 104.286 29.0319 103.936C28.4609 103.585 28.0201 103.094 27.7096 102.463C27.399 101.832 27.2487 101.101 27.2487 100.259C27.2487 99.4178 27.399 98.6764 27.7096 98.0353C28.0201 97.3941 28.4508 96.8933 29.0018 96.5326C29.5528 96.172 30.204 95.9917 30.9454 95.9917C31.3761 95.9917 31.7969 96.0618 32.2076 96.2021C32.6184 96.3423 32.999 96.5727 33.3396 96.8932C33.6803 97.2138 33.9507 97.6346 34.1611 98.1555C34.3614 98.6764 34.4616 99.3276 34.4616 100.089V100.62H28.1403V99.528H33.1793C33.1793 99.0671 33.0891 98.6564 32.9088 98.2857C32.7285 97.9251 32.468 97.6346 32.1274 97.4242C31.7868 97.2138 31.3961 97.1137 30.9353 97.1137C30.4344 97.1137 30.0036 97.2339 29.6329 97.4843C29.2623 97.7348 28.9918 98.0554 28.7915 98.4461C28.5911 98.8368 28.5009 99.2675 28.5009 99.7183V100.44C28.5009 101.061 28.6112 101.582 28.8216 102.012C29.0319 102.443 29.3325 102.764 29.7232 102.984C30.1039 103.205 30.5546 103.315 31.0656 103.315C31.3962 103.315 31.6967 103.265 31.9672 103.174C32.2377 103.084 32.468 102.934 32.6584 102.744C32.8587 102.553 33.0091 102.313 33.1093 102.032L34.3214 102.373C34.1912 102.784 33.9808 103.144 33.6802 103.455C33.3797 103.766 33.009 104.006 32.5582 104.176C32.1074 104.347 31.6165 104.437 31.0555 104.437L31.0756 104.467Z" fill="#030024"/>
<path d="M39.4908 104.467C38.8096 104.467 38.2084 104.297 37.6775 103.946C37.1566 103.595 36.7458 103.104 36.4453 102.473C36.1448 101.842 36.0046 101.091 36.0046 100.219C36.0046 99.3476 36.1548 98.6063 36.4453 97.9752C36.7358 97.3441 37.1566 96.8532 37.6775 96.5126C38.1984 96.172 38.8096 95.9917 39.5008 95.9917C40.0318 95.9917 40.4525 96.0818 40.7631 96.2521C41.0736 96.4224 41.314 96.6228 41.4743 96.8532C41.6446 97.0736 41.7648 97.2539 41.865 97.4042H41.9752V93.367H43.2375V104.296H42.0252V103.034H41.8751C41.7849 103.184 41.6546 103.375 41.4843 103.595C41.314 103.826 41.0736 104.026 40.7531 104.196C40.4325 104.367 40.0117 104.457 39.4908 104.457V104.467ZM39.661 103.335C40.1619 103.335 40.5927 103.205 40.9433 102.934C41.294 102.664 41.5545 102.303 41.7348 101.832C41.9151 101.361 42.0053 100.82 42.0053 100.199C42.0053 99.5781 41.9151 99.0471 41.7348 98.5863C41.5545 98.1254 41.294 97.7648 40.9433 97.5044C40.5927 97.2439 40.1619 97.1137 39.651 97.1137C39.1401 97.1137 38.6693 97.2539 38.3186 97.5244C37.968 97.7949 37.6975 98.1656 37.5272 98.6264C37.3469 99.0872 37.2667 99.6081 37.2667 100.189C37.2667 100.77 37.3569 101.301 37.5372 101.772C37.7175 102.243 37.9881 102.623 38.3387 102.904C38.6893 103.184 39.1301 103.325 39.661 103.325V103.335Z" fill="#030024"/>
<path d="M50.1197 104.296V93.367H51.442V98.7866H51.5722L56.481 93.367H58.2141L53.6259 98.2958L58.2141 104.296H56.6112L52.8144 99.2174L51.452 100.75V104.296H50.1297H50.1197Z" fill="#030024"/>
<path d="M60.8991 94.7294C60.6486 94.7294 60.4382 94.6493 60.2679 94.4789C60.0976 94.3086 60.0075 94.1083 60.0075 93.8779C60.0075 93.6475 60.0976 93.4371 60.2679 93.2768C60.4382 93.1165 60.6586 93.0263 60.8991 93.0263C61.1395 93.0263 61.3599 93.1065 61.5302 93.2768C61.7005 93.4471 61.7907 93.6475 61.7907 93.8779C61.7907 94.1083 61.7005 94.3086 61.5302 94.4789C61.3599 94.6493 61.1395 94.7294 60.8991 94.7294ZM60.2579 104.296V96.1018H61.5202V104.296H60.2579Z" fill="#030024"/>
<path d="M67.3905 96.1018V97.1738H63.1429V96.1018H67.3905ZM64.3751 94.1383H65.6374V101.952C65.6374 102.313 65.6875 102.573 65.7977 102.754C65.9079 102.934 66.0381 103.044 66.2084 103.104C66.3787 103.164 66.549 103.195 66.7293 103.195C66.8696 103.195 66.9797 103.195 67.0699 103.174C67.16 103.154 67.2303 103.144 67.2803 103.134L67.5408 104.266C67.4607 104.297 67.3405 104.337 67.1802 104.367C67.0299 104.397 66.8295 104.417 66.5991 104.417C66.2484 104.417 65.8979 104.337 65.5573 104.186C65.2167 104.036 64.9361 103.796 64.7157 103.485C64.4953 103.174 64.3852 102.774 64.3852 102.303V94.1483L64.3751 94.1383Z" fill="#030024"/>
<path d="M74.9442 97.9351L73.8122 98.2557C73.742 98.0654 73.6418 97.8851 73.5016 97.7047C73.3613 97.5244 73.181 97.3741 72.9406 97.2539C72.7002 97.1337 72.4096 97.0736 72.039 97.0736C71.5381 97.0736 71.1173 97.1938 70.7867 97.4142C70.4561 97.6446 70.2858 97.9351 70.2858 98.2857C70.2858 98.5963 70.396 98.8467 70.6264 99.0271C70.8568 99.2074 71.2075 99.3577 71.6884 99.4779L72.9005 99.7784C73.6318 99.9587 74.1828 100.229 74.5435 100.59C74.9041 100.95 75.0843 101.421 75.0843 101.992C75.0843 102.463 74.9542 102.884 74.6837 103.255C74.4132 103.625 74.0426 103.916 73.5617 104.126C73.0809 104.337 72.5198 104.447 71.8887 104.447C71.0572 104.447 70.356 104.266 69.815 103.906C69.2741 103.545 68.9234 103.014 68.7731 102.313L69.9652 102.012C70.0754 102.453 70.2958 102.784 70.6164 103.004C70.937 103.225 71.3477 103.335 71.8686 103.335C72.4597 103.335 72.9205 103.215 73.2712 102.954C73.6218 102.704 73.7921 102.403 73.7921 102.052C73.7921 101.772 73.6919 101.532 73.4915 101.331C73.2912 101.141 72.9907 100.991 72.57 100.9L71.2074 100.58C70.4561 100.4 69.9052 100.129 69.5546 99.7484C69.2039 99.3777 69.0336 98.9068 69.0336 98.3358C69.0336 97.875 69.1639 97.4643 69.4243 97.1036C69.6848 96.743 70.0454 96.4725 70.4962 96.2622C70.947 96.0618 71.468 95.9616 72.039 95.9616C72.8504 95.9616 73.4915 96.1419 73.9523 96.4926C74.4131 96.8532 74.7438 97.314 74.9442 97.9051V97.9351Z" fill="#030024"/>
<path d="M0 148.566V147.474L4.79862 139.88H5.58995V141.563H5.0591L1.43262 147.303V147.384H7.90415V148.556H0.0100277L0 148.566ZM5.14922 150.81V139.88H6.41149V150.81H5.14922Z" fill="#030024"/>
<path d="M10.3284 150.89C10.0679 150.89 9.83747 150.8 9.64713 150.609C9.45679 150.419 9.3666 150.199 9.3666 149.928C9.3666 149.658 9.45679 149.437 9.64713 149.247C9.83747 149.057 10.0579 148.966 10.3284 148.966C10.5989 148.966 10.8192 149.057 11.0096 149.247C11.1999 149.437 11.2901 149.658 11.2901 149.928C11.2901 150.098 11.25 150.259 11.1598 150.409C11.0697 150.559 10.9595 150.669 10.8092 150.76C10.659 150.85 10.5087 150.89 10.3284 150.89Z" fill="#030024"/>
<path d="M25.4255 143.296C25.3053 142.936 25.155 142.615 24.9647 142.325C24.7743 142.034 24.5439 141.794 24.2834 141.593C24.0229 141.393 23.7224 141.233 23.3918 141.132C23.0612 141.022 22.7006 140.972 22.2999 140.972C21.6487 140.972 21.0677 141.142 20.5367 141.473C20.0058 141.804 19.585 142.304 19.2745 142.946C18.9639 143.597 18.8036 144.398 18.8036 145.34C18.8036 146.282 18.9639 147.083 19.2745 147.734C19.595 148.385 20.0158 148.876 20.5568 149.217C21.0977 149.547 21.7088 149.718 22.38 149.718C23.0011 149.718 23.5621 149.587 24.033 149.317C24.5138 149.047 24.8845 148.666 25.155 148.175C25.4255 147.684 25.5557 147.103 25.5557 146.432L25.9564 146.522H22.6705V145.35H26.838V146.522C26.838 147.424 26.6476 148.205 26.2669 148.866C25.8863 149.527 25.3554 150.048 24.6842 150.409C24.013 150.77 23.2415 150.96 22.38 150.96C21.4082 150.96 20.5668 150.73 19.8355 150.279C19.1042 149.818 18.5331 149.177 18.1324 148.335C17.7217 147.494 17.5213 146.502 17.5213 145.35C17.5213 144.488 17.6415 143.707 17.8719 143.016C18.1023 142.325 18.4329 141.733 18.8637 141.243C19.2945 140.752 19.7954 140.381 20.3764 140.121C20.9574 139.86 21.5986 139.73 22.2999 139.73C22.8809 139.73 23.4119 139.82 23.9128 139.99C24.4137 140.161 24.8544 140.411 25.2551 140.722C25.6558 141.032 25.9765 141.413 26.237 141.844C26.4974 142.284 26.6777 142.765 26.7779 143.296H25.4154H25.4255Z" fill="#030024"/>
<path d="M30.094 141.243C29.8435 141.243 29.6331 141.162 29.4628 140.992C29.2925 140.822 29.2024 140.621 29.2024 140.391C29.2024 140.161 29.2925 139.95 29.4628 139.79C29.6331 139.63 29.8535 139.54 30.094 139.54C30.3344 139.54 30.5548 139.62 30.7251 139.79C30.8954 139.96 30.9856 140.161 30.9856 140.391C30.9856 140.621 30.8954 140.822 30.7251 140.992C30.5548 141.162 30.3344 141.243 30.094 141.243ZM29.4528 150.81V142.615H30.7151V150.81H29.4528Z" fill="#030024"/>
<path d="M35.4332 151C34.9123 151 34.4414 150.9 34.0207 150.71C33.5999 150.509 33.2593 150.229 33.0089 149.848C32.7584 149.477 32.6382 149.016 32.6382 148.485C32.6382 148.015 32.7284 147.634 32.9187 147.343C33.1091 147.053 33.3495 146.823 33.66 146.652C33.9706 146.482 34.3112 146.362 34.6919 146.272C35.0726 146.181 35.4433 146.121 35.8239 146.071C36.3248 146.011 36.7255 145.961 37.0361 145.921C37.3466 145.891 37.5771 145.831 37.7173 145.751C37.8576 145.67 37.9377 145.53 37.9377 145.32V145.28C37.9377 144.749 37.7975 144.348 37.507 144.058C37.2165 143.767 36.7857 143.617 36.2046 143.617C35.6236 143.617 35.1327 143.747 34.7921 144.008C34.4515 144.268 34.2111 144.549 34.0708 144.849L32.8786 144.418C33.089 143.917 33.3796 143.537 33.7403 143.256C34.1009 142.976 34.4915 142.785 34.9123 142.665C35.333 142.555 35.7538 142.495 36.1645 142.495C36.425 142.495 36.7356 142.525 37.0762 142.585C37.4168 142.645 37.7474 142.775 38.078 142.966C38.3986 143.156 38.6691 143.447 38.8795 143.837C39.0898 144.228 39.2 144.749 39.2 145.4V150.8H37.9377V149.688H37.8777C37.7875 149.868 37.6472 150.058 37.4468 150.259C37.2465 150.459 36.986 150.639 36.6554 150.78C36.3248 150.92 35.9241 150.99 35.4433 150.99L35.4332 151ZM35.6236 149.868C36.1245 149.868 36.5452 149.768 36.8858 149.577C37.2264 149.387 37.4869 149.127 37.6672 148.816C37.8475 148.506 37.9277 148.185 37.9277 147.844V146.692C37.8776 146.752 37.7574 146.813 37.5771 146.863C37.3968 146.913 37.1864 146.963 36.956 146.993C36.7256 147.023 36.4951 147.063 36.2747 147.093C36.0543 147.123 35.8741 147.143 35.7438 147.163C35.4133 147.203 35.1127 147.273 34.8322 147.374C34.5517 147.474 34.3212 147.604 34.1509 147.794C33.9806 147.985 33.8904 148.235 33.8904 148.556C33.8904 148.996 34.0507 149.327 34.3813 149.547C34.7119 149.768 35.1227 149.878 35.6236 149.878V149.868Z" fill="#030024"/>
<path d="M42.7566 145.881V150.81H41.4944V142.615H42.7065V143.897H42.8167C43.007 143.477 43.2975 143.146 43.6882 142.896C44.0789 142.645 44.5899 142.515 45.2009 142.515C45.7519 142.515 46.2428 142.625 46.6535 142.855C47.0642 143.086 47.3949 143.426 47.6253 143.877C47.8557 144.338 47.9759 144.909 47.9759 145.61V150.82H46.7137V145.701C46.7137 145.059 46.5434 144.559 46.2128 144.198C45.8822 143.837 45.4214 143.657 44.8403 143.657C44.4396 143.657 44.079 143.747 43.7685 143.917C43.4579 144.088 43.2073 144.348 43.027 144.679C42.8467 145.009 42.7566 145.42 42.7566 145.891V145.881Z" fill="#030024"/>
<path d="M53.8561 142.615V143.687H49.6085V142.615H53.8561ZM50.8407 140.652H52.1029V148.465C52.1029 148.826 52.1531 149.087 52.2633 149.267C52.3634 149.447 52.5036 149.557 52.6639 149.618C52.8242 149.678 53.0045 149.708 53.1848 149.708C53.3251 149.708 53.4354 149.708 53.5255 149.688C53.6157 149.668 53.6858 149.658 53.7359 149.648L53.9963 150.78C53.9162 150.81 53.796 150.85 53.6357 150.88C53.4854 150.91 53.285 150.93 53.0546 150.93C52.704 150.93 52.3534 150.85 52.0128 150.699C51.6722 150.549 51.3916 150.309 51.1712 149.998C50.9508 149.688 50.8407 149.287 50.8407 148.816V140.662V140.652Z" fill="#030024"/>
<path d="M68.9434 143.296H67.621C67.5409 142.916 67.4106 142.585 67.2103 142.294C67.0199 142.004 66.7796 141.764 66.5091 141.563C66.2386 141.363 65.928 141.213 65.5974 141.122C65.2668 141.022 64.9163 140.972 64.5556 140.972C63.8944 140.972 63.2933 141.142 62.7624 141.473C62.2314 141.804 61.8006 142.304 61.4901 142.946C61.1795 143.597 61.0193 144.398 61.0193 145.34C61.0193 146.282 61.1795 147.083 61.4901 147.734C61.8006 148.385 62.2314 148.876 62.7624 149.217C63.2933 149.547 63.8944 149.718 64.5556 149.718C64.9163 149.718 65.2668 149.668 65.5974 149.567C65.928 149.467 66.2386 149.317 66.5091 149.117C66.7796 148.916 67.0199 148.676 67.2103 148.385C67.4006 148.095 67.5409 147.764 67.621 147.384H68.9434C68.8432 147.945 68.6629 148.445 68.4025 148.886C68.142 149.327 67.8114 149.698 67.4207 150.008C67.03 150.319 66.5892 150.549 66.1083 150.71C65.6275 150.87 65.1066 150.95 64.5556 150.95C63.624 150.95 62.7924 150.72 62.0711 150.269C61.3498 149.808 60.7788 149.167 60.3581 148.325C59.9373 147.484 59.7369 146.492 59.7369 145.34C59.7369 144.188 59.9473 143.186 60.3581 142.355C60.7788 141.513 61.3498 140.872 62.0711 140.411C62.7924 139.95 63.624 139.73 64.5556 139.73C65.1066 139.73 65.6275 139.81 66.1083 139.97C66.5892 140.131 67.03 140.361 67.4207 140.672C67.8114 140.982 68.142 141.353 68.4025 141.794C68.6629 142.234 68.8432 142.735 68.9434 143.296Z" fill="#030024"/>
<path d="M72.1691 145.881V150.81H70.9068V139.88H72.1691V143.897H72.2793C72.4696 143.477 72.7601 143.136 73.1508 142.886C73.5415 142.635 74.0525 142.505 74.6936 142.505C75.2546 142.505 75.7455 142.615 76.1562 142.835C76.577 143.056 76.9075 143.396 77.1379 143.857C77.3684 144.318 77.4885 144.899 77.4885 145.6V150.81H76.2263V145.691C76.2263 145.039 76.056 144.538 75.7254 144.178C75.3848 143.817 74.9239 143.637 74.3329 143.637C73.9221 143.637 73.5515 143.727 73.2209 143.897C72.9003 144.068 72.6398 144.328 72.4495 144.659C72.2592 144.989 72.1691 145.4 72.1691 145.871V145.881Z" fill="#030024"/>
<path d="M83.2288 150.98C82.4374 150.98 81.7562 150.8 81.1852 150.449C80.6142 150.098 80.1733 149.608 79.8628 148.976C79.5522 148.345 79.402 147.614 79.402 146.772C79.402 145.931 79.5522 145.19 79.8628 144.548C80.1733 143.907 80.6041 143.406 81.1551 143.046C81.7061 142.685 82.3572 142.505 83.0985 142.505C83.5293 142.505 83.9501 142.575 84.3608 142.715C84.7816 142.855 85.1522 143.086 85.4928 143.406C85.8335 143.727 86.104 144.148 86.3044 144.669C86.5047 145.19 86.6048 145.841 86.6048 146.602V147.133H80.2836V146.041H85.3226C85.3226 145.58 85.2324 145.17 85.0521 144.799C84.8718 144.428 84.6113 144.148 84.2707 143.937C83.9301 143.727 83.5394 143.627 83.0786 143.627C82.5777 143.627 82.1469 143.747 81.7762 143.997C81.4156 144.248 81.1351 144.569 80.9348 144.959C80.7344 145.35 80.6442 145.781 80.6442 146.231V146.953C80.6442 147.574 80.7544 148.095 80.9647 148.526C81.1751 148.956 81.4757 149.277 81.8664 149.497C82.247 149.718 82.6979 149.828 83.2089 149.828C83.5394 149.828 83.8399 149.778 84.1104 149.688C84.3809 149.597 84.6113 149.447 84.8017 149.257C85.002 149.067 85.1522 148.826 85.2524 148.546L86.4647 148.886C86.3344 149.297 86.1241 149.658 85.8235 149.968C85.523 150.279 85.1523 150.519 84.7015 150.689C84.2607 150.86 83.7598 150.95 83.1988 150.95L83.2288 150.98Z" fill="#030024"/>
<path d="M91.8745 150.98C91.1031 150.98 90.442 150.8 89.891 150.439C89.34 150.078 88.9092 149.577 88.6086 148.936C88.3081 148.305 88.1579 147.574 88.1579 146.752C88.1579 145.931 88.3081 145.18 88.6187 144.548C88.9292 143.907 89.36 143.406 89.911 143.046C90.462 142.685 91.1132 142.505 91.8546 142.505C92.4356 142.505 92.9465 142.615 93.4173 142.825C93.8781 143.036 94.2588 143.336 94.5493 143.717C94.8398 144.098 95.0302 144.548 95.1004 145.059H93.8381C93.7379 144.689 93.5275 144.358 93.1969 144.068C92.8663 143.777 92.4255 143.637 91.8745 143.637C91.3836 143.637 90.9529 143.767 90.5823 144.018C90.2116 144.268 89.9311 144.629 89.7207 145.089C89.5204 145.55 89.4101 146.091 89.4101 146.712C89.4101 147.333 89.5104 147.894 89.7107 148.365C89.9111 148.836 90.1915 149.197 90.5622 149.457C90.9329 149.718 91.3636 149.848 91.8645 149.848C92.1951 149.848 92.4856 149.788 92.7561 149.678C93.0266 149.567 93.247 149.397 93.4373 149.187C93.6177 148.976 93.7579 148.716 93.8281 148.415H95.0903C95.0202 148.896 94.8399 149.337 94.5694 149.718C94.2989 150.098 93.9182 150.409 93.4674 150.639C93.0166 150.87 92.4756 150.98 91.8745 150.98Z" fill="#030024"/>
<path d="M96.9333 150.81V139.88H98.1956V150.81H96.9333ZM98.1055 147.814L98.0854 146.262H98.3459L101.932 142.615H103.495L99.6782 146.482H99.5681L98.1155 147.824L98.1055 147.814ZM102.133 150.81L98.9269 146.752L99.8285 145.881L103.736 150.81H102.133Z" fill="#030024"/>
<path d="M110.908 144.448L109.776 144.769C109.706 144.579 109.606 144.398 109.466 144.218C109.326 144.038 109.145 143.887 108.905 143.767C108.664 143.647 108.374 143.587 108.003 143.587C107.502 143.587 107.082 143.707 106.751 143.927C106.42 144.158 106.25 144.448 106.25 144.799C106.25 145.109 106.36 145.36 106.591 145.54C106.821 145.721 107.172 145.871 107.662 145.991L108.875 146.292C109.606 146.472 110.157 146.742 110.508 147.103C110.868 147.464 111.049 147.935 111.049 148.506C111.049 148.976 110.918 149.397 110.648 149.768C110.377 150.138 110.007 150.429 109.526 150.639C109.045 150.85 108.484 150.96 107.853 150.96C107.021 150.96 106.32 150.78 105.779 150.419C105.228 150.058 104.888 149.527 104.737 148.826L105.929 148.526C106.04 148.966 106.26 149.297 106.581 149.517C106.901 149.738 107.312 149.848 107.833 149.848C108.424 149.848 108.885 149.728 109.235 149.467C109.586 149.217 109.756 148.916 109.756 148.566C109.756 148.285 109.656 148.045 109.456 147.844C109.255 147.654 108.955 147.504 108.534 147.414L107.172 147.093C106.42 146.913 105.869 146.642 105.519 146.262C105.168 145.891 104.998 145.42 104.998 144.849C104.998 144.388 105.128 143.977 105.388 143.617C105.649 143.256 106.01 142.986 106.46 142.775C106.911 142.575 107.432 142.475 108.003 142.475C108.815 142.475 109.456 142.655 109.917 143.006C110.377 143.366 110.708 143.827 110.908 144.418V144.448Z" fill="#030024"/>
</svg>
