<svg width="4" height="7" viewBox="0 0 4 7" fill="none" xmlns="http://www.w3.org/2000/svg">
<path d="M3.82596 2.58201L1.99551 0.148278C1.99551 0.148278 1.97503 0.127822 1.9648 0.127822C1.95458 0.127822 1.94444 0.127822 1.92399 0.127822C1.92399 0.127822 1.90349 0.127822 1.88304 0.127822C1.87282 0.127822 1.86256 0.138052 1.85234 0.148278C1.85234 0.148278 1.85233 0.148272 1.8421 0.158498L0.144718 2.68426C0.11404 2.73539 0.124171 2.80697 0.1753 2.83765C0.195751 2.84788 0.216263 2.85809 0.236714 2.85809C0.277617 2.85809 0.30826 2.83765 0.328711 2.80698L1.82163 0.587993V5.91559C1.82163 5.97695 1.87287 6.02808 1.93422 6.02808C1.99558 6.02808 2.04669 5.97695 2.04669 5.91559V0.547081L3.67255 2.71493C3.67255 2.71493 3.78506 2.77629 3.82596 2.73539C3.87709 2.69449 3.88733 2.62291 3.84643 2.58201H3.82596Z" fill="#FB7E10" stroke="#FB7E10" stroke-width="0.25" stroke-linecap="round" stroke-linejoin="round"/>
</svg>
