<svg width="4" height="7" viewBox="0 0 4 7" fill="none" xmlns="http://www.w3.org/2000/svg">
<path d="M3.82596 2.58203L1.9955 0.148279C1.9955 0.148279 1.97515 0.127823 1.96492 0.127823C1.95469 0.127823 1.94443 0.127823 1.92398 0.127823C1.92398 0.127823 1.90349 0.127823 1.88303 0.127823C1.87281 0.127823 1.86268 0.138053 1.85245 0.148279C1.85245 0.148279 1.85244 0.148273 1.84222 0.158499L0.144695 2.68428C0.114017 2.73541 0.124273 2.807 0.175402 2.83767C0.195854 2.8479 0.216241 2.85811 0.236692 2.85811C0.277596 2.85811 0.308238 2.83768 0.32869 2.807L1.82174 0.587997V5.91564C1.82174 5.977 1.87286 6.02813 1.93421 6.02813C1.99557 6.02813 2.04668 5.977 2.04668 5.91564V0.547085L3.67255 2.71495C3.67255 2.71495 3.78506 2.77631 3.82596 2.73541C3.87709 2.69451 3.88734 2.62293 3.84644 2.58203H3.82596Z" fill="#FB7E10" stroke="#FB7E10" stroke-width="0.25" stroke-linecap="round" stroke-linejoin="round"/>
</svg>
