<svg width="20" height="20" viewBox="0 0 20 20" fill="none" xmlns="http://www.w3.org/2000/svg">
<path d="M20 1.81814C19.9792 2.38005 19.7502 2.80668 19.386 3.17088C13.9854 8.5715 8.58478 13.9721 3.18417 19.3727C2.41414 20.1428 1.25911 20.1428 0.530698 19.404C-0.187303 18.6755 -0.17691 17.5413 0.582715 16.7817C5.98333 11.3811 11.384 5.98046 16.7846 0.579845C17.6691 -0.304649 19.0842 -0.158964 19.6878 0.892023C19.8439 1.17298 19.8959 1.51636 20 1.82854V1.81814Z" fill="#7E7ECE"/>
<path d="M19.9167 15.5954C20.0936 17.4581 18.4391 19.9243 15.6295 19.9451C13.2258 19.9659 11.2591 17.9992 11.2695 15.5954C11.2695 13.2125 13.2362 11.2666 15.6191 11.2562C18.0124 11.2562 19.9271 13.1813 19.9271 15.5954H19.9167ZM14.3704 15.6058C14.3704 16.2926 14.9115 16.8441 15.5879 16.8649C16.2746 16.8753 16.8574 16.303 16.8574 15.6162C16.8574 14.9399 16.3059 14.3779 15.6295 14.3779C14.9219 14.3779 14.3704 14.9086 14.3704 15.6162V15.6058Z" fill="#7E7ECE"/>
<path d="M4.37045 0.0283377C6.22269 -0.148561 8.68883 1.52677 8.68883 4.34674C8.68883 6.72967 6.72214 8.67556 4.33921 8.67556C1.95627 8.67556 0 6.72968 0 4.33634C0 1.55799 2.44537 -0.169373 4.36004 0.0283377H4.37045ZM4.2976 5.57464C5.01561 5.59545 5.57751 5.06475 5.58791 4.35716C5.59832 3.67038 5.07807 3.10845 4.39128 3.07723C3.7045 3.04602 3.11137 3.60794 3.09056 4.30513C3.06975 4.9815 3.62123 5.55382 4.2976 5.57464Z" fill="#7E7ECE"/>
</svg>
