<svg width="24" height="24" viewBox="0 0 24 24" fill="none" xmlns="http://www.w3.org/2000/svg">
<path d="M18.4109 24C16.8813 23.9392 15.3517 23.3922 13.9031 22.6426C10.0435 20.6469 6.893 17.7903 4.17815 14.4271C2.66877 12.5429 1.38231 10.527 0.571909 8.22749C0.166706 7.06253 -0.127075 5.86719 0.0552658 4.61106C0.156566 3.93235 0.419913 3.32454 0.906156 2.82816C1.60513 2.12919 2.29403 1.43022 2.99301 0.741374C3.97562 -0.210852 5.35326 -0.2615 6.35613 0.680596C7.50083 1.76451 8.61519 2.87882 9.6991 4.02352C10.8438 5.23913 10.4284 7.02201 8.88865 7.67033C7.51096 8.24774 7.02474 9.27088 7.52112 10.679C8.15931 12.5125 9.40528 13.9105 10.9147 15.0552C11.6339 15.6022 12.4544 16.0682 13.2952 16.4025C14.5412 16.8988 15.7872 16.3417 16.2228 15.0855C16.709 13.6775 18.654 12.9582 20.0013 14.3055C21.0548 15.3692 22.1286 16.4126 23.172 17.4864C24.1445 18.4791 24.1648 19.8771 23.2126 20.8901C22.4832 21.6599 21.7235 22.3994 20.9637 23.1389C20.285 23.7974 19.4239 23.9797 18.3805 23.9899L18.4109 24Z" fill="white"/>
</svg>
