<svg width="17" height="17" viewBox="0 0 17 17" fill="none" xmlns="http://www.w3.org/2000/svg">
<path d="M2.51183 16.9999H14.4882C15.8754 16.9999 17 15.8754 17 14.4881V2.51183C17 1.12458 15.8754 0 14.4882 0H2.51183C1.12458 0 0 1.12458 0 2.51183V14.4881C0 15.8754 1.12458 16.9999 2.51183 16.9999Z" fill="#D8D8D8"/>
<path d="M7.10119 11.9551C7.10119 11.9551 7.12244 11.8597 7.15423 11.8279L10.3126 8.60597L7.15423 5.19323C7.09064 5.12963 7.09064 5.01307 7.15423 4.94948C7.21782 4.87529 7.31317 4.87529 7.37676 4.94948L10.6623 8.49995C10.6623 8.49995 10.7047 8.57419 10.7047 8.62719C10.7047 8.62719 10.6834 8.72257 10.6517 8.75436L7.36615 12.1035C7.30256 12.167 7.20721 12.167 7.14362 12.0928C7.11183 12.061 7.10119 12.0187 7.10119 11.9763V11.9551Z" fill="#030024" stroke="#030024" stroke-width="0.4" stroke-miterlimit="10"/>
</svg>
