<svg width="207" height="207" viewBox="0 0 207 207" fill="none" xmlns="http://www.w3.org/2000/svg">
<path d="M207 102.959C207 130.225 195.963 155.366 178.2 174.091C159.104 194.27 132.159 207 102.758 206.96C73.4775 206.92 46.8532 194.23 28.0779 174.131C10.756 155.606 0.0802968 130.786 0.000103166 103.681C-0.0800904 46.3626 46.6026 -0.199839 103.961 0.000644998C160.518 0.161032 207.04 46.6834 207 102.949V102.959Z" fill="#030024"/>
<path d="M161.179 151.436C146.413 167.044 125.583 176.878 102.848 176.848C80.2036 176.818 59.6239 167.004 45.1089 151.466C53.7397 132.972 75.9133 117.554 98.6782 115.81C124.932 113.785 149.351 128.08 161.189 151.436H161.179Z" fill="white"/>
<path d="M70.7408 70.7715C70.821 52.8181 85.6668 38.2931 103.75 38.4535C121.503 38.6139 135.948 53.2492 135.948 71.0822C135.948 89.0757 121.183 103.761 103.189 103.661C85.1756 103.571 70.6506 88.8552 70.7408 70.7715Z" fill="white"/>
</svg>
