<svg width="4" height="7" viewBox="0 0 4 7" fill="none" xmlns="http://www.w3.org/2000/svg">
<path d="M3.82597 2.58202L1.99558 0.148278C1.99558 0.148278 1.9751 0.127822 1.96487 0.127822C1.95464 0.127822 1.94444 0.127822 1.92399 0.127822C1.92399 0.127822 1.90356 0.127822 1.88311 0.127822C1.87288 0.127822 1.86263 0.138052 1.8524 0.148278C1.8524 0.148278 1.85239 0.148273 1.84217 0.158498L0.144714 2.68427C0.114037 2.7354 0.12423 2.80699 0.175359 2.83766C0.19581 2.84789 0.21626 2.8581 0.236711 2.8581C0.277614 2.8581 0.308319 2.83766 0.328771 2.80699L1.82176 0.587995V5.91562C1.82176 5.97697 1.87287 6.0281 1.93423 6.0281C1.99558 6.0281 2.04669 5.97697 2.04669 5.91562V0.547083L3.67262 2.71494C3.67262 2.71494 3.78507 2.7763 3.82597 2.7354C3.8771 2.6945 3.88734 2.62292 3.84644 2.58202H3.82597Z" fill="#FB7E10" stroke="#FB7E10" stroke-width="0.25" stroke-linecap="round" stroke-linejoin="round"/>
</svg>
