<svg width="11" height="11" viewBox="0 0 11 11" fill="none" xmlns="http://www.w3.org/2000/svg">
<path d="M4.62301 0C4.80368 0.031883 4.995 0.0424964 5.17567 0.0850071C6.10028 0.276305 6.89732 0.712029 7.53498 1.40283C8.38519 2.32743 8.76774 3.4221 8.68272 4.67617C8.62958 5.48387 8.35326 6.21719 7.88565 6.8761C7.84314 6.93987 7.80062 6.99299 7.74748 7.05675C7.74748 7.05675 7.74747 7.06738 7.73684 7.08864C7.7581 7.12052 7.79007 7.14179 7.82195 7.17368C8.82095 8.17268 9.81989 9.17165 10.8189 10.1707C10.9571 10.3088 11.0421 10.4682 10.9783 10.6702C10.8827 10.9784 10.5213 11.0953 10.2662 10.904C10.2237 10.8721 10.1812 10.8296 10.1493 10.7977C9.16097 9.80934 8.17256 8.82096 7.18418 7.83259C7.1523 7.8007 7.1311 7.75819 7.10985 7.7263C7.03545 7.77944 6.99291 7.81132 6.93977 7.85383C6.38713 8.26831 5.77073 8.54463 5.07993 8.65091C3.69833 8.86346 2.48686 8.51275 1.44535 7.58814C0.669528 6.89734 0.223103 6.03652 0.0530605 5.01626C0.0318052 4.88873 0.0212553 4.77182 0 4.64429C0 4.45299 0 4.26167 0 4.05974C0.0212553 3.93221 0.0318052 3.8047 0.0530605 3.67716C0.233731 2.63565 0.711971 1.76417 1.50905 1.07337C2.09357 0.563244 2.76313 0.233794 3.51769 0.0850071C3.69836 0.0531241 3.87905 0.031883 4.07035 0C4.26165 0 4.45287 0 4.65479 0H4.62301ZM7.7794 4.35732C7.76877 2.44434 6.2384 0.924592 4.34668 0.913964C2.45496 0.913964 0.913954 2.44436 0.903326 4.34671C0.903326 6.23844 2.43369 7.79007 4.33604 7.79007C6.22777 7.79007 7.75814 6.28093 7.7794 4.35732Z" fill="#030024"/>
</svg>
