<svg width="22" height="29" viewBox="0 0 22 29" fill="none" xmlns="http://www.w3.org/2000/svg">
<path d="M21.7349 6.97135C21.7349 6.63697 21.5524 6.23165 21.3194 5.9986C19.4854 4.12404 17.621 2.27988 15.7768 0.415447C15.4728 0.101331 15.1485 0 14.7229 0C10.7205 0.0101328 6.72822 0 2.72578 0C0.962678 0 0 0.962616 0 2.72572C0 6.6471 0 10.5786 0 14.5C0 18.4619 0 22.4238 0 26.3857C0 27.9969 1.0031 29 2.61421 29C8.12644 29 13.6286 29 19.1408 29C20.7519 29 21.7449 27.9969 21.7449 26.3857C21.7449 19.9109 21.745 13.4462 21.7247 6.97135H21.7349ZM4.46859 6.03914C6.73833 6.03914 8.9979 6.03914 11.2676 6.03914C11.6932 6.03914 12.0682 6.1506 12.0682 6.62684C12.0682 7.14361 11.7033 7.25507 11.2474 7.25507C10.1125 7.24493 8.97763 7.25507 7.8529 7.25507C6.71803 7.25507 5.58318 7.25507 4.45844 7.25507C4.03287 7.25507 3.66805 7.15374 3.65792 6.66736C3.64778 6.14046 4.03289 6.03914 4.47873 6.03914H4.46859ZM12.7876 23.0926C12.0479 23.7411 11.3285 24.4098 10.5482 24.9874C9.6363 25.6562 9.06886 25.4434 8.64328 24.3794C8.55209 24.1565 8.48115 23.9336 8.37982 23.6702C7.09296 25.6562 6.76865 25.7575 5.27913 24.7138C4.7725 24.9469 4.40777 25.798 3.82007 25.1394C3.21211 24.4605 4.13414 24.2275 4.39759 23.7715C4.2152 23.4067 4.00247 23.0318 3.83022 22.6366C3.43504 21.7145 3.61743 20.8634 4.21527 20.0832C4.79284 19.3333 5.48187 19.1408 6.25196 19.5056C7.00179 19.8602 7.42731 20.6607 7.20439 21.4815C7.06253 22.0185 6.78892 22.5251 6.54573 23.0318C6.43427 23.2648 6.26204 23.4675 6.06952 23.7512C6.24178 23.8829 6.40397 24.0147 6.64716 24.2072C6.90048 23.7309 7.12336 23.3054 7.36654 22.8899C7.65026 22.4036 7.78201 21.6841 8.53184 21.7551C9.2614 21.826 9.27147 22.5657 9.48426 23.0825C9.60585 23.3763 9.68699 23.6803 9.81872 24.1059C10.5685 23.4371 11.2575 22.8291 11.9263 22.211C12.5039 21.6841 12.8383 21.5828 13.1119 21.9273C13.507 22.434 13.1118 22.7582 12.7774 23.0622L12.7876 23.0926ZM17.2663 18.1275C15.9288 18.1275 14.5911 18.1275 13.2536 18.1275C11.9364 18.1275 10.6192 18.1275 9.2918 18.1275C8.87635 18.1275 8.51153 18.0465 8.49127 17.55C8.471 17.0129 8.86623 16.9116 9.30194 16.9116C11.9567 16.9116 14.6216 16.9116 17.2764 16.9116C17.7121 16.9116 18.1174 17.0028 18.1073 17.5297C18.1073 18.0465 17.7121 18.1377 17.2663 18.1275ZM17.327 14.5C15.1789 14.5 13.0307 14.5 10.8826 14.5C8.7547 14.5 6.61675 14.5 4.48887 14.4899C4.24569 14.4899 3.95177 14.3987 3.78965 14.2467C3.48566 13.9731 3.6478 13.4766 4.05311 13.355C4.24563 13.2942 4.4584 13.2942 4.67119 13.2942C8.8155 13.2942 12.97 13.2942 17.1143 13.2942C17.1852 13.2942 17.2662 13.2942 17.3372 13.2942C17.7627 13.2942 18.1174 13.4259 18.1174 13.9123C18.1174 14.3885 17.7627 14.5203 17.327 14.5101V14.5ZM17.327 10.8826C15.1789 10.8826 13.0307 10.8826 10.8826 10.8826C8.7547 10.8826 6.61675 10.8826 4.48887 10.8725C4.23555 10.8725 3.92146 10.761 3.7492 10.5887C3.47561 10.3152 3.65792 9.85919 4.04297 9.73759C4.23549 9.6768 4.44826 9.6768 4.66105 9.6768C8.80535 9.6768 12.9598 9.6768 17.1041 9.6768C17.1751 9.6768 17.2561 9.6768 17.327 9.6768C17.7526 9.6768 18.1174 9.7984 18.1073 10.2848C18.1073 10.761 17.7526 10.8927 17.327 10.8927V10.8826ZM16.5368 5.94795C16.0504 5.90742 15.7464 5.4413 15.7362 4.9144C15.716 4.03285 15.7362 3.14116 15.7362 2.22921C17.013 3.50594 18.2491 4.74215 19.4954 5.97834C18.5328 5.97834 17.5298 6.03914 16.5368 5.94795Z" fill="white"/>
<path d="M5.64402 20.6101C5.56295 20.5594 5.269 20.7114 5.15754 20.8431C4.70157 21.3903 4.7523 22.0894 5.36027 22.8595C5.60346 22.2414 5.84665 21.7044 5.99864 21.137C6.03917 20.9951 5.80613 20.7114 5.63387 20.6101H5.64402Z" fill="white"/>
</svg>
