<svg width="55" height="57" viewBox="0 0 55 57" fill="none" xmlns="http://www.w3.org/2000/svg">
<path d="M44.7452 0H10.2543C4.59101 0 0 4.59101 0 10.2543V46.3617C0 52.025 4.59101 56.616 10.2543 56.616H44.7452C50.4086 56.616 54.9996 52.025 54.9996 46.3617V10.2543C54.9996 4.59101 50.4086 0 44.7452 0Z" fill="#E7EBF8"/>
<path d="M42.4216 20.6299C42.1892 16.5382 39.2594 13.6488 35.1678 13.3761C32.733 13.2144 30.2881 13.2649 27.8533 13.2649C25.1761 13.2649 22.4989 13.2144 19.8317 13.3761C15.7401 13.6286 12.8305 16.5382 12.588 20.64C12.4365 23.1859 12.5577 25.752 12.5577 28.308H12.4668C12.4668 30.3993 12.4466 32.4905 12.4668 34.5717C12.5274 40.1181 15.6289 43.2399 21.1754 43.3409C22.7918 43.3712 24.4184 43.3611 26.0348 43.3409C29.0859 43.3207 32.147 43.3914 35.1879 43.2197C39.2796 42.9772 42.1487 40.0575 42.4417 35.9659C42.5832 34.0464 42.5529 32.1167 42.5529 30.1972C42.5529 27.0047 42.6135 23.8122 42.4317 20.6299H42.4216ZM40.2494 29.1061C40.0676 29.0051 39.9565 28.9445 39.8454 28.8737C38.4512 27.9948 36.9559 28.1059 35.683 29.1869C33.7432 30.8438 31.7934 32.5107 29.8638 34.1878C28.3484 35.4911 26.7117 35.5214 25.1559 34.2585C23.5293 32.9452 22.2261 32.8845 20.4783 34.0565C18.8013 35.1779 17.1242 36.2993 15.4471 37.4207C15.4067 37.4409 15.3562 37.451 15.1541 37.5116C15.0127 36.7034 14.7601 35.9154 14.75 35.1274C14.7298 30.3386 14.6793 25.5499 14.8308 20.7713C14.9319 17.7809 16.9827 15.8412 19.9833 15.629C21.923 15.4876 23.8728 15.528 25.8227 15.528C28.8737 15.528 31.9248 15.4774 34.9657 15.6391C38.0066 15.8007 39.9767 17.7809 40.1484 20.8218C40.3 23.4384 40.2292 26.0753 40.2596 28.702C40.2596 28.8131 40.2393 28.9243 40.2292 29.1061H40.2494Z" fill="white"/>
<path d="M23.0239 18.7205C21.0337 18.7104 19.4374 20.2662 19.4273 22.2564C19.4071 24.2366 20.9832 25.853 22.9532 25.8732C24.9131 25.9035 26.5397 24.2972 26.5498 22.3171C26.57 20.3268 24.994 18.7205 23.0239 18.7103V18.7205Z" fill="white"/>
</svg>
