<svg width="12" height="11" viewBox="0 0 12 11" fill="none" xmlns="http://www.w3.org/2000/svg">
<path d="M5.8414 0C7.34258 0 8.83337 0 10.3346 0C10.8936 0 11.3181 0.20704 11.5459 0.724689C11.7737 1.24234 11.6494 1.69786 11.2663 2.11198C10.0136 3.47857 8.77128 4.85553 7.51857 6.23247C7.39434 6.36706 7.34253 6.50165 7.34253 6.68801C7.34253 7.3713 7.34253 8.05461 7.34253 8.73791C7.34253 8.96567 7.25971 9.1313 7.0837 9.26589C6.42111 9.78354 5.76897 10.3116 5.10638 10.8396C4.94073 10.9741 4.77506 11.057 4.568 10.9534C4.36095 10.8499 4.31954 10.6739 4.31954 10.4565C4.31954 9.20379 4.31954 7.94072 4.31954 6.68801C4.31954 6.4913 4.25737 6.35672 4.13313 6.21178C2.89078 4.84519 1.64844 3.47857 0.395728 2.11198C0.0230216 1.69786 -0.12194 1.24234 0.116178 0.724689C0.343943 0.20704 0.76846 0 1.32752 0C2.8287 0 4.31949 0 5.82067 0H5.8414Z" fill="#030024"/>
</svg>
