<svg width="25" height="24" viewBox="0 0 25 24" fill="none" xmlns="http://www.w3.org/2000/svg">
<path d="M23.0714 10.7579C23.3242 10.7882 23.5466 10.7882 23.7488 10.8387C24.3656 10.9904 24.8307 11.506 24.8509 12.1329C24.8812 13.4472 24.8812 14.7717 24.8509 16.086C24.8307 16.8342 24.1836 17.4105 23.4253 17.4409C23.3242 17.4409 23.2231 17.4409 23.0714 17.4409C23.0714 17.5622 23.0714 17.6633 23.0714 17.7644C23.0714 18.6137 23.0714 19.473 23.0714 20.3223C23.0714 22.2736 21.656 23.7094 19.7047 23.7094C14.3057 23.7094 8.90673 23.7094 3.49765 23.7094C1.55644 23.7094 0.161205 22.3141 0.130874 20.3628C0.120764 19.3012 0.130874 18.2396 0.130874 17.178C0.130874 14.1044 0.130874 11.041 0.130874 7.9674C0.130874 6.52161 0.757721 5.46003 2.06197 4.82307C2.55738 4.58042 3.09323 4.4995 3.63919 4.53995C4.23571 4.58039 4.79178 4.44895 5.34786 4.22653C8.73485 2.91217 12.1218 1.60792 15.519 0.303671C16.5907 -0.110857 17.4096 0.20255 17.9252 1.23381C18.4409 2.25497 18.9565 3.27616 19.462 4.30743C19.5429 4.46919 19.6339 4.53995 19.826 4.53995C21.7065 4.60061 23.0714 6.00596 23.0816 7.8865C23.0816 8.84699 23.0816 9.79741 23.0816 10.768L23.0714 10.7579ZM22.2828 10.7882C22.2828 9.79736 22.2828 8.85712 22.2828 7.90674C22.2828 6.38006 21.2314 5.29822 19.7047 5.28811C14.3057 5.278 8.89662 5.278 3.49765 5.28811C1.96086 5.28811 0.899265 6.38007 0.899265 7.91686C0.899265 12.052 0.899265 16.1771 0.899265 20.3123C0.899265 20.5549 0.919488 20.8076 0.980151 21.0402C1.27335 22.213 2.26418 22.9308 3.55831 22.9308C6.34879 22.9308 9.12916 22.9308 11.9196 22.9308C14.4978 22.9308 17.076 22.9308 19.6541 22.9308C21.2212 22.9308 22.2727 21.8591 22.2828 20.3021C22.2828 19.4428 22.2828 18.5733 22.2828 17.7139C22.2828 17.6229 22.2828 17.5319 22.2828 17.4307C22.1312 17.4307 22.0301 17.4307 21.929 17.4307C20.6652 17.4307 19.4115 17.4307 18.1477 17.4307C17.8545 17.4307 17.5613 17.4105 17.2782 17.3498C15.5796 16.9555 14.5281 15.4188 14.7202 13.6495C14.9022 12.052 16.3379 10.7983 18.0263 10.7882C19.3306 10.7882 20.6449 10.7882 21.9492 10.7882C22.0503 10.7882 22.1514 10.7882 22.2929 10.7882H22.2828ZM20.5539 11.5566C20.5539 11.5566 20.5539 11.5566 20.5539 11.5667C19.644 11.5667 18.7341 11.5364 17.8241 11.5667C16.5502 11.6173 15.519 12.6991 15.4684 13.973C15.4077 15.4795 16.5401 16.6421 18.1173 16.6522C19.826 16.6623 21.5246 16.6522 23.2332 16.6522C23.8398 16.6522 24.1128 16.3793 24.1128 15.7626C24.1128 14.6605 24.1128 13.5686 24.1128 12.4666C24.1128 11.8094 23.8601 11.5465 23.2029 11.5465C22.3233 11.5465 21.4437 11.5465 20.5641 11.5465L20.5539 11.5566ZM6.8442 4.45905C6.8442 4.45905 6.8442 4.48942 6.8442 4.49953H18.6734C18.6431 4.41864 18.6229 4.35797 18.5925 4.29731C18.1274 3.35704 17.6624 2.41679 17.1872 1.47652C16.9041 0.910332 16.4693 0.748513 15.8627 0.981053C13.7395 1.78989 11.6264 2.60888 9.51336 3.42782C8.62364 3.77158 7.73392 4.11534 6.8442 4.44899V4.45905Z" fill="white" stroke="white" stroke-width="0.25" stroke-miterlimit="10"/>
</svg>
