<svg width="26" height="22" viewBox="0 0 26 22" fill="none" xmlns="http://www.w3.org/2000/svg">
<path d="M19.1621 21.8897C19.1621 21.6194 19.1621 21.4091 19.1621 21.1989C19.1621 14.7214 19.1621 8.23394 19.1621 1.75647C19.1621 0.495015 19.6427 0.00444957 20.8941 0.00444957C22.0955 0.00444957 23.2869 -0.00556197 24.4882 0.00444957C25.4794 0.0144611 26 0.545077 26 1.52621C26 8.17387 26 14.8315 26 21.4792C26 21.5993 25.98 21.7295 25.97 21.8897H19.1621Z" fill="white"/>
<path d="M16.3789 21.8997H9.57103V21.1889C9.57103 16.5735 9.57103 11.9582 9.57103 7.3329C9.57103 5.9413 10.0215 5.49076 11.4131 5.49076C12.5845 5.49076 13.7658 5.49076 14.9372 5.49076C15.8683 5.49076 16.4389 6.02138 16.4389 6.95246C16.4489 11.8681 16.4389 16.7838 16.4389 21.6994C16.4389 21.7395 16.4189 21.7795 16.3889 21.8897L16.3789 21.8997Z" fill="white"/>
<path d="M6.83787 21.9097H0.0400242C0.0300126 21.6894 0 21.4892 0 21.289C0 18.4057 0 15.5223 0 12.639C0 11.4576 0.460516 10.9971 1.61184 10.9871C2.8733 10.9871 4.13475 10.9771 5.3962 10.9871C6.21715 10.9971 6.81786 11.4777 6.81786 12.2386C6.84789 15.4422 6.82785 18.6459 6.82785 21.9097H6.83787Z" fill="white"/>
</svg>
