<svg width="22" height="17" viewBox="0 0 22 17" fill="none" xmlns="http://www.w3.org/2000/svg">
<path d="M21.7897 1.5629C21.7897 1.5629 21.7396 1.64304 21.6995 1.68312L14.1858 10.2086C13.3844 11.1202 12.2223 11.6512 11 11.6512C9.77781 11.6512 8.61567 11.1303 7.81421 10.2086L0.210374 1.5829C0.0801373 1.89346 0 2.24412 0 2.60478V12.3726C0 14.8971 2.04372 16.9409 4.56831 16.9409H17.4317C19.9563 16.9409 22 14.8971 22 12.3726V2.60478C22 2.2341 21.9199 1.88344 21.7796 1.57287L21.7897 1.5629Z" fill="#8F8F8F"/>
<path d="M9.52729 8.69588C9.90798 9.12666 10.4289 9.35706 11 9.35706C11.571 9.35706 12.092 9.11665 12.4727 8.69588L19.9863 0.170354C19.9863 0.170354 20.0464 0.120246 20.0765 0.090191C19.8661 0.0300816 19.6357 0 19.4053 0H2.60469C2.37427 0 2.16389 0.0300816 1.95351 0.090191L9.53729 8.69588H9.52729Z" fill="#8F8F8F"/>
</svg>
