<svg width="27" height="27" viewBox="0 0 27 27" fill="none" xmlns="http://www.w3.org/2000/svg">
<path d="M19.0214 19.0112V19.0213L22.7427 22.7325" stroke="white" stroke-miterlimit="10"/>
<path d="M7.93829 7.92809L4.27762 4.26743" stroke="white" stroke-miterlimit="10"/>
<path d="M7.91805 19.0112L4.20683 22.7325" stroke="white" stroke-miterlimit="10"/>
<path d="M22.6618 4.26743L19.0315 7.89775" stroke="white" stroke-miterlimit="10"/>
<path d="M13.4495 21.3573C9.17197 21.3573 5.64276 17.8078 5.64276 13.5101C5.64276 9.15166 9.18207 5.61234 13.5405 5.63256C17.8382 5.64267 21.3775 9.18201 21.3775 13.4595C21.3775 17.7674 17.7573 21.3673 13.4495 21.3673V21.3573Z" stroke="white" stroke-miterlimit="10"/>
<path d="M17.7877 20.0528C15.4517 21.7011 11.8922 21.8528 9.26299 20.0831C9.50569 18.4955 11.3158 17.0191 13.1866 16.8674C15.2495 16.7056 17.1506 18.0202 17.7877 20.0528Z" stroke="white" stroke-miterlimit="10"/>
<path d="M11.2551 12.509C11.2551 11.2753 12.2866 10.2741 13.5304 10.2843C14.754 10.2944 15.745 11.3056 15.745 12.5292C15.745 13.773 14.7236 14.7843 13.4899 14.7741C12.2461 14.7741 11.245 13.7528 11.2551 12.509Z" stroke="white" stroke-miterlimit="10"/>
<path d="M2.4877 4.49999C1.40568 4.49999 0.505678 3.59999 0.505678 2.50786C0.505678 1.40562 1.40568 0.50564 2.50792 0.50564C3.60005 0.50564 4.50005 1.40564 4.50005 2.49777C4.50005 3.5899 3.57983 4.51011 2.4877 4.51011V4.49999Z" stroke="white" stroke-miterlimit="10"/>
<path d="M26.4944 2.48765C26.4944 3.57978 25.6146 4.48988 24.5225 4.49999C23.4303 4.49999 22.5 3.59999 22.5 2.50786C22.5 1.41573 23.3798 0.515752 24.4719 0.50564C25.5843 0.50564 26.4843 1.38541 26.4944 2.49777V2.48765Z" stroke="white" stroke-miterlimit="10"/>
<path d="M4.50007 24.5022C4.50007 25.5842 3.60007 26.4842 2.50794 26.4943C1.4057 26.4943 0.495588 25.5943 0.5057 24.4921C0.5057 23.4 1.4057 22.5 2.48772 22.5C3.57985 22.5 4.50007 23.4101 4.50007 24.5123V24.5022Z" stroke="white" stroke-miterlimit="10"/>
<path d="M24.4921 26.4842C23.4 26.4842 22.5 25.5842 22.5 24.5022C22.5 23.4101 23.4101 22.4898 24.5022 22.4898C25.5944 22.4898 26.4843 23.3898 26.4944 24.482C26.4944 25.5842 25.5944 26.4943 24.4921 26.4943V26.4842Z" stroke="white" stroke-miterlimit="10"/>
</svg>
