<svg width="22" height="19" viewBox="0 0 22 19" fill="none" xmlns="http://www.w3.org/2000/svg">
<path d="M15.4021 15.2287H10.3327C10.6489 15.5857 11.0467 15.9325 11.3017 16.361C11.5771 16.82 11.5261 17.3708 11.3017 17.8706C10.9753 18.6152 10.2102 19.064 9.39424 18.9926C8.57823 18.9212 7.8846 18.3296 7.7112 17.5544C7.497 16.616 7.88465 15.8917 8.90466 15.2083C8.61906 15.2083 8.3437 15.1879 8.0581 15.2083C6.31388 15.3205 5.39579 13.5967 6.1914 12.2401C6.2832 12.0871 6.29345 11.8321 6.24245 11.6587C5.30404 8.31308 4.33499 4.97764 3.39658 1.64221C3.31498 1.33621 3.17216 1.25462 2.86616 1.26482C2.19295 1.28522 1.50956 1.26482 0.836352 1.26482C0.295748 1.26482 0.0102001 1.04041 0 0.642611C0 0.244807 0.285528 0 0.815932 0C1.73394 0 2.64181 0 3.55982 0C4.12083 0 4.25339 0.112205 4.41659 0.67321C4.55939 1.17301 4.72264 1.67282 4.84504 2.17262C4.91644 2.45823 5.04903 2.53983 5.34484 2.53983C7.59906 2.52963 9.85328 2.53983 12.1075 2.53983C14.9635 2.53983 17.8196 2.53983 20.6858 2.53983C21.5528 2.53983 21.7772 2.82544 21.5324 3.66184C20.747 6.40567 19.9615 9.14948 19.1761 11.8933C18.9721 12.6073 18.8702 12.6889 18.1052 12.6889C14.7391 12.6889 11.3731 12.6889 8.00704 12.6889C7.39504 12.6889 7.16049 12.8725 7.17069 13.3315C7.17069 13.7599 7.44608 13.9435 8.04789 13.9435C11.1997 13.9435 14.3514 13.9435 17.5135 13.9435C17.8093 13.9435 18.1052 13.9435 18.401 13.9435C18.8294 13.9639 19.0945 14.2087 19.0945 14.5759C19.0945 14.9431 18.8294 15.1981 18.3908 15.2083C17.789 15.2185 17.1871 15.2083 16.6465 15.2083C16.9729 15.5653 17.3708 15.9019 17.6258 16.3099C17.9114 16.769 17.8909 17.3096 17.6767 17.8196C17.3605 18.5948 16.6057 19.064 15.7693 18.9926C14.9125 18.9212 14.2496 18.3296 14.0558 17.483C13.862 16.6057 14.2699 15.8714 15.3613 15.2185L15.4021 15.2287Z" fill="#7E7ECE"/>
</svg>
