<svg width="17" height="17" viewBox="0 0 17 17" fill="none" xmlns="http://www.w3.org/2000/svg">
<path d="M2.51183 16.9999H14.4882C15.8754 16.9999 17 15.8754 17 14.4881V2.51183C17 1.12458 15.8754 0 14.4882 0H2.51183C1.12458 0 0 1.12458 0 2.51183V14.4881C0 15.8754 1.12458 16.9999 2.51183 16.9999Z" fill="#D8D8D8"/>
<path d="M7.10093 11.9551C7.10093 11.9551 7.12218 11.8597 7.15397 11.8279L10.3123 8.6059L7.15397 5.19323C7.09038 5.12963 7.09038 5.01301 7.15397 4.94942C7.21756 4.87523 7.31291 4.87523 7.3765 4.94942L10.662 8.49995C10.662 8.49995 10.7044 8.57413 10.7044 8.62712C10.7044 8.62712 10.6832 8.7225 10.6514 8.7543L7.36589 12.1034C7.3023 12.167 7.20695 12.167 7.14336 12.0928C7.11157 12.061 7.10093 12.0186 7.10093 11.9762V11.9551Z" fill="#030024" stroke="#030024" stroke-width="0.4" stroke-miterlimit="10"/>
</svg>
