<svg width="50" height="74" viewBox="0 0 50 74" fill="none" xmlns="http://www.w3.org/2000/svg">
<path d="M49.2495 29.1087C49.2495 29.1087 46.2012 19.6732 47.0535 10.709C48.9687 3.31899 47.6251 0.0200542 47.6251 0C27.3102 0.852303 15.6085 11.5913 8.91042 19.6732C8.76002 19.8537 8.60966 20.0442 8.45925 20.2247C8.41914 20.2748 8.37904 20.3249 8.33893 20.3751C8.22863 20.5154 8.11833 20.6558 8.01806 20.7962C7.96792 20.8564 7.9278 20.9165 7.87766 20.9767C7.77739 21.1171 7.6671 21.2575 7.56683 21.3978C7.52672 21.458 7.48661 21.5081 7.44651 21.5683C7.32618 21.7387 7.19583 21.9192 7.07551 22.0997C7.05545 22.1198 7.04544 22.1499 7.02539 22.1699C6.88501 22.3805 6.74458 22.591 6.6042 22.8116C6.58415 22.8417 6.5641 22.8818 6.54404 22.9119C6.43375 23.0924 6.31345 23.2729 6.20316 23.4534C6.16305 23.5135 6.13292 23.5737 6.09281 23.6339C5.99254 23.7943 5.90232 23.9547 5.80205 24.1152C5.76194 24.1753 5.72185 24.2455 5.69176 24.3057C5.59149 24.4762 5.49124 24.6566 5.39096 24.8271C5.37091 24.8672 5.35086 24.9073 5.3308 24.9374C5.3308 24.9575 5.31072 24.9775 5.30069 24.9875C5.27061 25.0477 5.24057 25.0978 5.21048 25.158C5.14029 25.2783 5.08012 25.3987 5.00993 25.529C4.97985 25.5892 4.94973 25.6493 4.90962 25.7095C4.81938 25.8799 4.73915 26.0404 4.64891 26.2108C4.61883 26.271 4.58878 26.3211 4.5587 26.3813C4.49854 26.5016 4.42834 26.632 4.36818 26.7623C4.3381 26.8325 4.29802 26.9027 4.26793 26.9629C4.18772 27.1233 4.1175 27.2737 4.04731 27.4341C4.01723 27.4943 3.98713 27.5545 3.96707 27.6146C3.90691 27.755 3.83672 27.8954 3.77656 28.0358C3.74647 28.106 3.71643 28.1761 3.68635 28.2463C3.62618 28.3867 3.56603 28.5171 3.50587 28.6575C3.48581 28.7076 3.45572 28.7577 3.43567 28.8179C3.35545 28.9984 3.28523 29.1688 3.21504 29.3493C3.18496 29.4195 3.15491 29.4897 3.12483 29.5599C3.0747 29.6902 3.0145 29.8306 2.96436 29.961C2.94431 30.0211 2.91422 30.0913 2.89417 30.1515C2.82398 30.332 2.75383 30.5225 2.68364 30.703C2.66358 30.7732 2.63349 30.8333 2.61344 30.9035C2.5633 31.0439 2.51314 31.1843 2.46301 31.3146C2.44295 31.3848 2.41287 31.445 2.39281 31.5152C2.32262 31.7057 2.26252 31.8962 2.20236 32.0867C2.1823 32.1368 2.1622 32.197 2.15217 32.2471C2.10204 32.3975 2.05195 32.548 2.01184 32.6984C1.99178 32.7686 1.97173 32.8387 1.95168 32.9089C1.89152 33.0994 1.84134 33.2799 1.78117 33.4704C1.77115 33.5106 1.76114 33.5507 1.74109 33.5908C1.69095 33.7713 1.64079 33.9417 1.59066 34.1222C1.5706 34.1924 1.55055 34.2626 1.5305 34.3328C1.49039 34.4932 1.44025 34.6637 1.40014 34.8241C1.39011 34.8742 1.38011 34.9144 1.36005 34.9645C1.30992 35.165 1.25976 35.3656 1.20962 35.5761C1.18957 35.6463 1.17955 35.7065 1.1595 35.7767C1.11939 35.9371 1.08932 36.0975 1.04922 36.258C1.03919 36.3181 1.01916 36.3783 1.00913 36.4385C0.958994 36.639 0.918881 36.8496 0.878772 37.0602C0.868745 37.1203 0.858679 37.1805 0.838625 37.2406C0.808544 37.4011 0.778496 37.5615 0.748415 37.722C0.738388 37.7921 0.718295 37.8523 0.708268 37.9225C0.668159 38.133 0.628066 38.3336 0.597984 38.5442C0.597984 38.5943 0.577962 38.6444 0.567935 38.6946C0.537854 38.865 0.517782 39.0355 0.487701 39.1959C0.477674 39.2661 0.467617 39.3463 0.45759 39.4165C0.427509 39.607 0.407499 39.7975 0.377418 39.9881C0.377418 40.0181 0.377408 40.0382 0.367381 40.0583C-0.244272 44.6908 -0.123971 49.5439 0.968982 54.3368C3.92697 67.2818 14.0944 73.8997 14.2549 74C11.4974 56.8637 27.9218 46.7563 38.5305 42.0837C43.4037 39.9379 47.0636 38.9453 47.0636 38.9453C51.5256 35.5461 49.2595 29.0886 49.2595 29.0886L49.2495 29.1087Z" fill="#E7EBF8"/>
</svg>
