<svg width="24" height="24" viewBox="0 0 24 24" fill="none" xmlns="http://www.w3.org/2000/svg">
<path d="M14.1117 14.091C14.1117 14.3358 14.1117 14.5195 14.1117 14.7032C14.1117 17.05 14.1117 19.3865 14.1117 21.7333C14.1117 23.0598 13.2137 23.9883 11.9893 23.9883C10.9282 23.9883 10.0406 23.1924 9.91812 22.1312C9.89771 21.917 9.88748 21.6925 9.88748 21.4782C9.88748 19.2335 9.88748 16.9785 9.88748 14.7338C9.88748 14.5501 9.88748 14.3665 9.88748 14.1012C9.663 14.1012 9.47927 14.1012 9.30581 14.1012C6.95903 14.1012 4.62244 14.1012 2.27566 14.1012C0.918611 14.1012 -0.0200805 13.1931 0.000326301 11.9585C0.0105297 10.9177 0.796241 10.0402 1.83699 9.91778C2.05126 9.88717 2.27575 9.88717 2.49002 9.88717C4.75517 9.88717 7.02023 9.88717 9.28539 9.88717C9.46905 9.88717 9.6528 9.88717 9.88748 9.88717C9.88748 9.64229 9.88748 9.45863 9.88748 9.27497C9.88748 6.92819 9.88748 4.59161 9.88748 2.24483C9.88748 0.918393 10.7853 -0.0101201 12.0097 8.32664e-05C13.0709 8.32664e-05 13.9586 0.795948 14.0811 1.8571C14.1015 2.07137 14.1117 2.29585 14.1117 2.51012C14.1117 4.75486 14.1117 7.00981 14.1117 9.25456C14.1117 9.43822 14.1117 9.62188 14.1117 9.88717C14.3362 9.88717 14.5198 9.88717 14.6932 9.88717C17.04 9.88717 19.3766 9.88717 21.7234 9.88717C23.1008 9.88717 24.0395 10.8157 23.9987 12.0809C23.9681 13.1012 23.1824 13.9583 22.1723 14.0808C21.958 14.1114 21.7336 14.1114 21.5194 14.1114C19.2542 14.1114 16.989 14.1114 14.7239 14.1114C14.5402 14.1114 14.3566 14.1114 14.1219 14.1114L14.1117 14.091Z" fill="white"/>
</svg>
