<svg width="12" height="14" viewBox="0 0 12 14" fill="none" xmlns="http://www.w3.org/2000/svg">
<path d="M10.9199 11.3348V13.4815C10.7851 13.4815 10.6606 13.4815 10.5362 13.4815C7.70512 13.4815 4.87403 13.4815 2.03258 13.4815C1.03703 13.4815 0.518514 12.9629 0.518514 11.9674C0.518514 9.13629 0.518514 6.30522 0.518514 3.46377V3.06969C0.75703 3.06969 0.964435 3.06969 1.18221 3.06969C1.80443 3.06969 2.43702 3.06969 3.05923 3.06969C3.52589 3.06969 3.68145 2.90375 3.72293 2.43709C3.81626 1.33784 4.64588 0.539353 5.70365 0.518612C6.77179 0.508242 7.63252 1.31712 7.72586 2.42674C7.76734 2.91414 7.92289 3.05932 8.42067 3.06969C9.15696 3.06969 9.90362 3.06969 10.6399 3.06969C10.8577 3.06969 10.9406 3.13191 10.9303 3.36006C10.9199 3.8682 10.9095 4.3867 10.9303 4.89484C10.9303 5.14373 10.8473 5.23708 10.6088 5.30967C8.37918 5.963 7.63252 8.68 9.18807 10.3807C9.64436 10.8785 10.2251 11.1792 10.8992 11.3348H10.9199Z" stroke="white" stroke-miterlimit="10"/>
</svg>
