<svg width="15" height="17" viewBox="0 0 15 17" fill="none" xmlns="http://www.w3.org/2000/svg">
<path d="M7.38045 16.4821C8.43694 16.4821 9.49343 16.4821 10.5499 16.4821C10.9746 16.4821 11.1714 16.3163 11.2335 15.8917C11.2646 15.6742 11.2853 15.4566 11.306 15.2391C11.4821 13.903 11.8964 12.6704 12.7043 11.5725C12.9529 11.2307 13.2015 10.8993 13.4294 10.5471C14.2476 9.2731 14.3719 7.87483 14.1648 6.42475C13.6365 2.62345 10.0217 -0.0281769 6.26182 0.614003C2.4916 1.25618 -0.201417 4.87108 0.689348 9.01418C0.875788 9.89459 1.34189 10.6403 1.89085 11.3343C2.90591 12.6497 3.38237 14.1516 3.51702 15.7881C3.55845 16.2853 3.7656 16.4717 4.26277 16.4717C5.29854 16.4717 6.34468 16.4717 7.38045 16.4717V16.4821Z" stroke="white" stroke-linecap="round" stroke-linejoin="round"/>
</svg>
