<svg width="26" height="26" viewBox="0 0 26 26" fill="none" xmlns="http://www.w3.org/2000/svg">
<path d="M11.5153 25.9798C11.1127 25.8591 10.7503 25.6779 10.4785 25.3356C10.1765 24.9531 10.1564 24.4901 10.096 24.0372C10.0356 23.5943 9.99535 23.1514 9.92489 22.7085C9.91482 22.6179 9.81416 22.5072 9.73364 22.4669C9.35114 22.2857 8.95857 22.1247 8.56601 21.9838C8.48548 21.9536 8.35462 21.9737 8.28416 22.024C7.81107 22.3763 7.34804 22.7487 6.87495 23.1111C6.08982 23.705 5.26442 23.6446 4.56988 22.95C4.05652 22.4367 3.54317 21.9234 3.02981 21.41C2.33527 20.7155 2.27487 19.89 2.87882 19.1049C3.23112 18.6519 3.58343 18.1889 3.93573 17.746C4.03639 17.6152 4.05652 17.5246 3.98606 17.3635C3.81494 17.0011 3.67402 16.6388 3.5331 16.2663C3.48277 16.1254 3.41231 16.065 3.27139 16.0449C2.68757 15.9744 2.11382 15.8939 1.53 15.8335C0.614015 15.7328 0 15.0685 0 14.1525C0 13.3875 0 12.6326 0 11.8676C0 10.9214 0.583819 10.2672 1.51994 10.1564C2.10376 10.086 2.67751 10.0054 3.26132 9.94502C3.40224 9.92489 3.48277 9.87454 3.5331 9.73362C3.67402 9.35112 3.83507 8.97869 3.99613 8.60625C4.05652 8.4754 4.05652 8.38484 3.96593 8.26405C3.59349 7.80102 3.23112 7.32792 2.87882 6.86489C2.30507 6.10995 2.3554 5.27449 3.01974 4.60008C3.55323 4.06659 4.08672 3.53308 4.62021 2.99959C5.28455 2.33525 6.12001 2.28496 6.86488 2.84864C7.33797 3.21101 7.801 3.57334 8.26403 3.94578C8.38482 4.03637 8.47541 4.05649 8.6264 3.9961C8.98877 3.82498 9.35114 3.68411 9.72357 3.54318C9.88462 3.48279 9.94502 3.40227 9.96515 3.23115C10.0356 2.597 10.1061 1.97293 10.2067 1.34885C10.3376 0.543581 10.9919 0.0100658 11.8072 0C12.5823 0 13.3674 0 14.1425 0C15.0685 0 15.7228 0.583817 15.8436 1.50987C15.914 2.08362 15.9946 2.66742 16.055 3.25124C16.0751 3.40222 16.1355 3.48278 16.2865 3.53311C16.669 3.67403 17.0414 3.82498 17.4038 3.9961C17.5447 4.06656 17.6353 4.03638 17.746 3.95586C18.209 3.58342 18.6821 3.22103 19.1452 2.86873C19.88 2.30505 20.7255 2.35539 21.3898 3.00967C21.9334 3.54315 22.4669 4.08675 23.0004 4.62023C23.6547 5.28458 23.705 6.12002 23.1413 6.86489C22.789 7.32792 22.4266 7.79094 22.0643 8.2439C21.9636 8.37476 21.9435 8.46535 22.0139 8.62641C22.185 8.98877 22.326 9.35111 22.4669 9.72354C22.5172 9.86447 22.5776 9.92489 22.7286 9.94502C23.2923 10.0054 23.856 10.086 24.4196 10.1564C25.2148 10.247 25.7483 10.6496 25.9597 11.4347C25.9597 11.4649 25.9899 11.4952 26 11.5254V14.4746C26 14.4746 25.9597 14.5551 25.9497 14.5853C25.7483 15.3201 25.2551 15.7228 24.5102 15.8234C23.9365 15.9039 23.3527 15.9744 22.7689 16.0348C22.5977 16.055 22.5071 16.1154 22.4468 16.2865C22.3159 16.6388 22.175 17.0011 22.0139 17.3434C21.9435 17.5044 21.9334 17.6051 22.0542 17.746C22.4266 18.2091 22.789 18.6721 23.1413 19.1452C23.6848 19.8699 23.6345 20.7054 23.0004 21.3496C22.4568 21.8932 21.9133 22.4468 21.3697 22.9803C20.7054 23.6345 19.8598 23.6848 19.125 23.1211C18.6519 22.7588 18.1889 22.3964 17.7259 22.0341C17.6152 21.9435 17.5246 21.9233 17.3837 21.9938C17.0213 22.1649 16.6388 22.3159 16.2663 22.4568C16.1254 22.5071 16.055 22.5675 16.0449 22.7185C15.9946 23.1715 15.9442 23.6244 15.8838 24.0774C15.8234 24.5002 15.8033 24.933 15.5315 25.3055C15.2598 25.6779 14.8873 25.8691 14.4646 25.9899H11.5153V25.9798ZM24.9028 12.9748C24.9028 12.6125 24.9028 12.2501 24.9028 11.8877C24.9028 11.475 24.7317 11.2838 24.319 11.2234C23.5943 11.1227 22.8796 11.0321 22.1548 10.9516C21.8428 10.9113 21.6616 10.7704 21.5509 10.4685C21.3294 9.87458 21.0879 9.29071 20.8262 8.71696C20.6953 8.42505 20.6953 8.19358 20.8966 7.94194C21.3596 7.36819 21.8025 6.78433 22.2555 6.20051C22.5071 5.8784 22.487 5.64693 22.1951 5.35502C21.6717 4.8316 21.1583 4.30819 20.6349 3.79483C20.3229 3.48279 20.1014 3.47267 19.7491 3.74445C19.1754 4.18735 18.6016 4.63026 18.0279 5.08322C17.7863 5.27447 17.5548 5.28454 17.2729 5.15369C16.7092 4.89198 16.1456 4.65038 15.5718 4.43899C15.2195 4.3182 15.0484 4.12696 15.0081 3.75453C14.9377 3.04992 14.837 2.34534 14.7464 1.64073C14.6961 1.2381 14.4948 1.06697 14.0821 1.06697C13.3573 1.06697 12.6225 1.06697 11.8978 1.06697C11.465 1.06697 11.2737 1.22805 11.2234 1.66088C11.1328 2.37556 11.0422 3.09017 10.9617 3.80484C10.9214 4.12695 10.7704 4.31826 10.4584 4.42898C9.86449 4.65043 9.28068 4.89198 8.70693 5.15369C8.41502 5.28454 8.1835 5.27446 7.93186 5.07315C7.35811 4.62018 6.78436 4.17733 6.21061 3.73444C5.86837 3.47273 5.64692 3.48278 5.34495 3.78475C4.83159 4.29811 4.31823 4.81143 3.80487 5.32479C3.48277 5.6469 3.46264 5.86837 3.74448 6.23074C4.18738 6.80449 4.62021 7.36818 5.07317 7.93186C5.27448 8.18351 5.28455 8.41504 5.15369 8.70695C4.89198 9.27063 4.64034 9.84436 4.43902 10.4382C4.31823 10.7704 4.12698 10.9214 3.78475 10.9617C3.08014 11.0422 2.37553 11.1328 1.67092 11.2234C1.24816 11.2838 1.08711 11.475 1.08711 11.9079C1.08711 12.6225 1.08711 13.3472 1.08711 14.0619C1.08711 14.5149 1.25823 14.6961 1.71119 14.7564C2.42586 14.847 3.14053 14.9376 3.85521 15.0182C4.15718 15.0584 4.3283 15.2095 4.43902 15.5014C4.66047 16.0852 4.89198 16.669 5.15369 17.2327C5.29461 17.5447 5.29461 17.7863 5.08323 18.048C4.63027 18.6117 4.18738 19.1955 3.74448 19.7693C3.49284 20.0914 3.51297 20.3228 3.80487 20.6148C4.31823 21.1281 4.83159 21.6415 5.34495 22.1549C5.67712 22.487 5.89856 22.5072 6.271 22.2152C6.84475 21.7724 7.4185 21.3194 7.99225 20.8765C8.2137 20.7054 8.43515 20.6953 8.69686 20.806C9.28067 21.0677 9.87456 21.3194 10.4684 21.5409C10.7905 21.6616 10.9415 21.8528 10.9717 22.185C11.0523 22.8997 11.1428 23.6144 11.2334 24.329C11.2838 24.7317 11.4851 24.9028 11.8978 24.9028C12.6225 24.9028 13.3573 24.9028 14.0821 24.9028C14.5149 24.9028 14.7061 24.7418 14.7565 24.309C14.8471 23.5943 14.9377 22.8796 15.0182 22.1649C15.0585 21.8428 15.1994 21.6616 15.5215 21.5409C16.1053 21.3295 16.6891 21.0879 17.2528 20.8262C17.5648 20.6752 17.8064 20.7053 18.0681 20.9167C18.6318 21.3697 19.1955 21.8025 19.7693 22.2454C20.1014 22.5071 20.3329 22.487 20.6349 22.185C21.1583 21.6616 21.6818 21.1483 22.1951 20.6248C22.4971 20.3229 22.5071 20.1014 22.2454 19.7592C21.7925 19.1754 21.3496 18.5916 20.8866 18.0178C20.7054 17.7863 20.6953 17.5648 20.8161 17.2931C21.0778 16.7193 21.3294 16.1355 21.5408 15.5416C21.6616 15.2094 21.8629 15.0584 22.2052 15.0182C22.9198 14.9376 23.6345 14.8471 24.3391 14.7464C24.7317 14.6961 24.8927 14.4948 24.9028 14.0921C24.9028 13.7197 24.9028 13.3473 24.9028 12.9748Z" fill="white"/>
<path d="M13.1459 18.4002C10.2168 18.5311 7.71038 16.1657 7.56946 13.156C7.43861 10.2067 9.80407 7.70034 12.8238 7.56949C15.753 7.4487 18.2593 9.79399 18.4003 12.8137C18.5311 15.7529 16.1757 18.2593 13.1459 18.4002ZM17.3132 12.9748C17.3132 10.5792 15.3805 8.6566 12.9949 8.64654C10.5993 8.64654 8.66664 10.5691 8.66664 12.9647C8.66664 15.3705 10.5993 17.3132 13.005 17.3031C15.4007 17.3031 17.3232 15.3705 17.3232 12.9748H17.3132Z" fill="white"/>
</svg>
