<svg width="34" height="34" viewBox="0 0 34 34" fill="none" xmlns="http://www.w3.org/2000/svg">
<path d="M17.082 13.7516C15.2887 13.7516 13.8336 15.2068 13.8336 17C13.8336 18.7932 15.2887 20.2483 17.082 20.2483C18.8752 20.2483 20.3303 18.7932 20.3303 17C20.3303 15.2068 18.8752 13.7516 17.082 13.7516Z" fill="#8F8F8F"/>
<path d="M21.1193 8.63833H12.8909C10.5443 8.63833 8.63827 10.5443 8.63827 12.8909V21.1193C8.63827 23.4659 10.5443 25.3719 12.8909 25.3719H21.1193C23.4659 25.3719 25.3719 23.4659 25.3719 21.1193V12.8909C25.3719 10.5443 23.4659 8.63833 21.1193 8.63833ZM17.0819 22.0723C14.2844 22.0723 12.0096 19.7975 12.0096 17C12.0096 14.2025 14.2844 11.9277 17.0819 11.9277C19.8794 11.9277 22.1542 14.2025 22.1542 17C22.1542 19.7975 19.8794 22.0723 17.0819 22.0723ZM22.4616 12.7987C21.7956 12.7987 21.2525 12.2556 21.2525 11.5895C21.2525 10.9234 21.7956 10.3804 22.4616 10.3804C23.1277 10.3804 23.6708 10.9234 23.6708 11.5895C23.6708 12.2556 23.1277 12.7987 22.4616 12.7987Z" fill="#8F8F8F"/>
<path d="M17 0C7.61359 0 0 7.61362 0 17C0 26.3864 7.61359 34 17 34C26.3863 34 34 26.3864 34 17C34 7.61362 26.3863 0 17 0ZM27.3086 21.1193C27.3086 24.5316 24.5316 27.3086 21.1193 27.3086H12.8909C9.47862 27.3086 6.70161 24.5316 6.70161 21.1193V12.8909C6.70161 9.47859 9.47862 6.70164 12.8909 6.70164H21.1193C24.5316 6.70164 27.3086 9.47859 27.3086 12.8909V21.1193Z" fill="#8F8F8F"/>
</svg>
