<svg width="1409" height="140" viewBox="0 0 1409 140" fill="none" xmlns="http://www.w3.org/2000/svg">
<path d="M0.0100134 138.18C39.5843 137.68 103.628 137.17 143.812 136.84C165.35 120.153 219.69 81.6596 244.118 63.623L245.299 64.1632L350.057 112.251L347.996 112.141C408.988 91.323 529.742 48.4375 590.814 28.5103C663.18 38.0838 808.903 57.4808 881.229 67.2443L879.929 67.3244L1007.03 33.6822L1134.2 0.250091L1135.17 0C1183.06 27.55 1282.85 84.2305 1329.12 111.36C1348.59 111.51 1389.41 111.931 1409 112.171C1388.66 112.401 1349.17 112.831 1328.92 112.981C1279.88 86.0812 1182.47 31.8115 1133.64 4.6917L1135.45 4.92176C1071.73 22.2881 944.732 56.7605 881.009 73.9268C811.024 64.3533 655.127 44.7262 591.464 35.1027C531.342 55.6902 409.968 96.9451 349.787 117.362L348.726 117.723L347.726 117.252L243.428 68.1647L245.639 67.9546C220.23 85.681 169.451 122.344 143.802 139.53C104.158 139.19 39.4843 138.69 0 138.19L0.0100134 138.18Z" fill="#FB7E10"/>
</svg>
