<svg width="1102" height="180" viewBox="0 0 1102 180" fill="none" xmlns="http://www.w3.org/2000/svg">
<path d="M31.285 1.0008H1.0008" stroke="#030024" stroke-width="2" stroke-linecap="round" stroke-linejoin="round"/>
<path d="M31.285 58.7569H1.0008" stroke="#030024" stroke-width="2" stroke-linecap="round" stroke-linejoin="round"/>
<path d="M31.285 117.744H1.0008" stroke="#030024" stroke-width="2" stroke-linecap="round" stroke-linejoin="round"/>
<path d="M31.285 178.493H1.0008" stroke="#030024" stroke-width="2" stroke-linecap="round" stroke-linejoin="round"/>
<path d="M246.056 1.0008H215.772" stroke="#030024" stroke-width="2" stroke-linecap="round" stroke-linejoin="round"/>
<path d="M246.056 58.7569H215.772" stroke="#030024" stroke-width="2" stroke-linecap="round" stroke-linejoin="round"/>
<path d="M246.056 117.744H215.772" stroke="#030024" stroke-width="2" stroke-linecap="round" stroke-linejoin="round"/>
<path d="M246.056 178.493H215.772" stroke="#030024" stroke-width="2" stroke-linecap="round" stroke-linejoin="round"/>
<path d="M459.147 1.0008H428.862" stroke="#030024" stroke-width="2" stroke-linecap="round" stroke-linejoin="round"/>
<path d="M459.147 58.7569H428.862" stroke="#030024" stroke-width="2" stroke-linecap="round" stroke-linejoin="round"/>
<path d="M459.147 117.744H428.862" stroke="#030024" stroke-width="2" stroke-linecap="round" stroke-linejoin="round"/>
<path d="M459.147 178.493H428.862" stroke="#030024" stroke-width="2" stroke-linecap="round" stroke-linejoin="round"/>
<path d="M673.918 1.0008H643.634" stroke="#030024" stroke-width="2" stroke-linecap="round" stroke-linejoin="round"/>
<path d="M673.918 58.7569H643.634" stroke="#030024" stroke-width="2" stroke-linecap="round" stroke-linejoin="round"/>
<path d="M673.918 117.744H643.634" stroke="#030024" stroke-width="2" stroke-linecap="round" stroke-linejoin="round"/>
<path d="M673.918 178.493H643.634" stroke="#030024" stroke-width="2" stroke-linecap="round" stroke-linejoin="round"/>
<path d="M886.228 1.0008H855.944" stroke="#030024" stroke-width="2" stroke-linecap="round" stroke-linejoin="round"/>
<path d="M886.228 58.7569H855.944" stroke="#030024" stroke-width="2" stroke-linecap="round" stroke-linejoin="round"/>
<path d="M886.228 117.744H855.944" stroke="#030024" stroke-width="2" stroke-linecap="round" stroke-linejoin="round"/>
<path d="M886.228 178.493H855.944" stroke="#030024" stroke-width="2" stroke-linecap="round" stroke-linejoin="round"/>
<path d="M1101 1.0008H1070.72" stroke="#030024" stroke-width="2" stroke-linecap="round" stroke-linejoin="round"/>
<path d="M1101 58.7569H1070.72" stroke="#030024" stroke-width="2" stroke-linecap="round" stroke-linejoin="round"/>
<path d="M1101 117.744H1070.72" stroke="#030024" stroke-width="2" stroke-linecap="round" stroke-linejoin="round"/>
<path d="M1101 178.493H1070.72" stroke="#030024" stroke-width="2" stroke-linecap="round" stroke-linejoin="round"/>
</svg>
