<svg width="10" height="15" viewBox="0 0 10 15" fill="none" xmlns="http://www.w3.org/2000/svg">
<path d="M0.39385 8.68798L4.83979 14.5921C4.83979 14.5921 4.85001 14.6023 4.86021 14.6125C4.86021 14.6125 4.86022 14.6125 4.87041 14.6227C4.89081 14.6431 4.92147 14.6635 4.94186 14.6737C4.94186 14.6737 4.94175 14.6737 4.95195 14.6737C4.98254 14.6839 5.01322 14.6941 5.04381 14.6941C5.04381 14.6941 5.10496 14.6941 5.13555 14.6737C5.13555 14.6737 5.14577 14.6737 5.15596 14.6737C5.18656 14.6635 5.2069 14.6431 5.22729 14.6227C5.22729 14.6227 5.22729 14.6227 5.22729 14.6125C5.22729 14.6125 5.24771 14.5921 5.25791 14.5819L9.38781 8.45343C9.46938 8.33107 9.43872 8.15772 9.31636 8.07614C9.26537 8.04555 9.21436 8.02514 9.16337 8.02514C9.0716 8.02514 8.99005 8.06595 8.93907 8.14753L5.29874 13.5316V0.58123C5.29874 0.428272 5.17635 0.305918 5.0234 0.305918C4.87044 0.305918 4.74805 0.428272 4.74805 0.58123V13.6132L0.791554 8.36166C0.69978 8.23929 0.526433 8.21891 0.414265 8.31069C0.291899 8.40246 0.271455 8.57581 0.363229 8.68798H0.39385Z" fill="#FF3B2E" stroke="#FF3B2E" stroke-width="0.6" stroke-linecap="round" stroke-linejoin="round"/>
</svg>
