<svg width="22" height="26" viewBox="0 0 22 26" fill="none" xmlns="http://www.w3.org/2000/svg">
<path d="M9.8512 2.57C9.73987 2.99509 9.65883 3.43028 9.52726 3.84525C9.32484 4.45251 8.81879 4.71565 8.26213 4.55371C7.72572 4.39178 7.46254 3.92623 7.60424 3.31896C7.79654 2.48904 7.99894 1.65911 8.22161 0.829184C8.39366 0.211801 8.87955 -0.101944 9.4362 0.0296296C9.97262 0.161203 10.2863 0.677375 10.1649 1.29476C10.0839 1.71984 9.95241 2.14492 9.8512 2.57Z" fill="#94E8B4"/>
<path d="M14.2741 6.5172C13.8996 6.73986 13.5353 6.99289 13.1406 7.18519C12.5738 7.46858 12.0272 7.29652 11.7439 6.79047C11.4807 6.29454 11.6223 5.78849 12.1486 5.4545C12.8773 4.99905 13.6061 4.56385 14.3449 4.13876C14.9016 3.81489 15.4684 3.94646 15.7619 4.43227C16.0554 4.90795 15.9036 5.48486 15.3874 5.84922C15.023 6.09212 14.6385 6.30466 14.264 6.52733L14.2741 6.5172Z" fill="#94E8B4"/>
<path d="M2.08834 7.22569C2.51342 7.33702 2.93851 7.45847 3.3636 7.53944C3.9911 7.65077 4.46674 7.3269 4.57807 6.75C4.6894 6.20346 4.40599 5.75813 3.79873 5.58607C2.96881 5.36341 2.14904 5.15087 1.309 4.95857C0.681495 4.81688 0.175434 5.11039 0.0337393 5.65693C-0.107955 6.19334 0.205807 6.70951 0.802947 6.90181C1.21791 7.03338 1.65312 7.11436 2.07821 7.22569H2.08834Z" fill="#94E8B4"/>
<path d="M3.48508 12.9845C3.85956 12.7619 4.25426 12.5595 4.6085 12.3064C5.13479 11.9421 5.23605 11.3753 4.91218 10.8895C4.59843 10.4239 4.08215 10.3126 3.53561 10.6162C2.79678 11.0413 2.05802 11.4765 1.33943 11.932C0.792892 12.2761 0.641051 12.8327 0.934561 13.3185C1.21795 13.7942 1.79488 13.946 2.36166 13.6525C2.74626 13.4501 3.11061 13.2072 3.49521 12.9845H3.48508Z" fill="#94E8B4"/>
<path d="M20.8729 16.365C17.7456 13.7841 14.6183 11.2032 11.501 8.62238C10.4889 7.78234 9.38568 7.5192 8.1914 8.12646C7.02748 8.71348 6.54161 9.71545 6.61246 11.0109C6.71367 12.9339 6.79467 14.8468 6.90601 17.3163C6.98697 18.9661 7.078 21.1623 7.21969 23.3485C7.30066 24.5832 7.9991 25.4334 9.08205 25.7573C10.1954 26.0913 11.2377 25.737 12.017 24.7452C12.6142 23.9659 13.2316 23.2068 13.7882 22.3971C14.4157 21.4761 15.2457 21.0915 16.3489 21.132C17.2901 21.1725 18.2314 21.1421 19.1727 21.132C20.5188 21.132 21.4499 20.5045 21.8447 19.3709C22.2293 18.2677 21.8952 17.1949 20.8932 16.365H20.8729Z" fill="#94E8B4"/>
</svg>
