<svg width="52" height="52" viewBox="0 0 52 52" fill="none" xmlns="http://www.w3.org/2000/svg">
<path d="M51.9999 25.8635C51.9999 32.7138 49.2274 39.0279 44.765 43.7331C39.9688 48.8025 33.1994 52 25.8128 51.9899C18.4565 51.9798 11.7681 48.7924 7.05284 43.7432C2.70181 39.0886 0.0202635 32.8555 2.61521e-05 26.0456C-0.0202112 11.6468 11.7074 -0.0504299 26.1164 0.000163506C40.323 0.0406382 52.01 11.7277 51.9999 25.8635Z" fill="#030024"/>
<path d="M40.4951 38.0464C36.7815 41.9623 31.5502 44.4414 25.8433 44.4313C20.1566 44.4313 14.986 41.9623 11.3331 38.0565C13.4985 33.412 19.0738 29.5366 24.7909 29.1015C31.3882 28.5955 37.5202 32.1877 40.4951 38.0565V38.0464Z" fill="white"/>
<path d="M17.7683 17.7787C17.7885 13.2657 21.5223 9.62303 26.0554 9.6635C30.5178 9.70397 34.1402 13.3771 34.1402 17.8596C34.1402 22.3827 30.4368 26.0659 25.9137 26.0456C21.3907 26.0254 17.7379 22.322 17.7582 17.7787H17.7683Z" fill="white"/>
</svg>
