<svg width="34" height="34" viewBox="0 0 34 34" fill="none" xmlns="http://www.w3.org/2000/svg">
<path d="M17 0C7.61362 0 0 7.61362 0 17C0 26.3864 7.61362 34 17 34C26.3864 34 34 26.3864 34 17C34 7.61362 26.3864 0 17 0ZM23.6914 8.58711H21.7034C19.7462 8.58711 19.1314 9.80652 19.1314 11.0567V14.0181H23.5069L22.8101 18.5781H19.1314V29.6142H14.1923V18.5781H10.1857V14.0181H14.1923V10.5443C14.1923 6.58892 16.5491 4.40626 20.1561 4.40626C21.8879 4.40626 23.6914 4.71369 23.6914 4.71369V8.59733V8.58711Z" fill="#0866FF"/>
</svg>
