<svg width="10" height="15" viewBox="0 0 10 15" fill="none" xmlns="http://www.w3.org/2000/svg">
<path d="M0.393601 8.68798L4.83954 14.5921C4.83954 14.5921 4.84976 14.6023 4.85996 14.6125C4.85996 14.6125 4.85997 14.6125 4.87017 14.6227C4.89056 14.6431 4.9211 14.6635 4.94149 14.6737C4.94149 14.6737 4.9415 14.6737 4.9517 14.6737C4.98229 14.6839 5.01297 14.6941 5.04356 14.6941C5.04356 14.6941 5.10471 14.6941 5.1353 14.6737C5.1353 14.6737 5.14552 14.6737 5.15572 14.6737C5.18631 14.6635 5.20665 14.6431 5.22704 14.6227C5.22704 14.6227 5.22704 14.6227 5.22704 14.6125C5.22704 14.6125 5.24746 14.5921 5.25766 14.5819L9.38743 8.45343C9.46901 8.33107 9.43847 8.15772 9.31611 8.07614C9.26512 8.04555 9.21411 8.02514 9.16313 8.02514C9.07135 8.02514 8.9898 8.06595 8.93882 8.14753L5.29849 13.5316V0.58123C5.29849 0.428272 5.17611 0.305918 5.02315 0.305918C4.87019 0.305918 4.7478 0.428272 4.7478 0.58123V13.6132L0.791305 8.36166C0.699531 8.23929 0.526184 8.21891 0.414016 8.31069C0.29165 8.40246 0.271206 8.57581 0.36298 8.68798H0.393601Z" fill="#FF3B2E" stroke="#FF3B2E" stroke-width="0.6" stroke-linecap="round" stroke-linejoin="round"/>
</svg>
