<svg width="15" height="15" viewBox="0 0 15 15" fill="none" xmlns="http://www.w3.org/2000/svg">
<path d="M11.1348 0H11.3651C11.6355 0.110147 11.7357 0.320433 11.7156 0.600807C11.7056 0.79106 11.7156 0.9713 11.7156 1.17157C12.1863 1.17157 12.6368 1.17157 13.0774 1.17157C13.9386 1.17157 14.6896 1.76235 14.9199 2.59346C14.9499 2.68358 14.97 2.78371 14.99 2.87383V13.2977C14.99 13.2977 14.97 13.3578 14.9599 13.3979C14.8097 14.3091 14.0087 15 13.0874 15C9.36248 15 5.62752 15 1.90256 15C0.861172 15 0 14.1388 0 13.0975C0 9.76301 0 6.41856 0 3.08411C0 2.28304 0.530737 1.56208 1.28174 1.29172C1.6322 1.16155 1.99263 1.18157 2.35311 1.18157C2.66352 1.18157 2.96398 1.18157 3.28441 1.18157C3.28441 0.981308 3.29442 0.801068 3.28441 0.610815C3.26438 0.320428 3.3745 0.120162 3.63485 0.0100155H3.86514C4.1355 0.120162 4.23567 0.330441 4.21564 0.610815C4.20563 0.801068 4.21564 0.991327 4.21564 1.17157H10.7744C10.7744 0.981313 10.7844 0.791055 10.7744 0.610815C10.7543 0.320428 10.8645 0.120162 11.1248 0.0100155L11.1348 0ZM0.941257 5.15687V5.31709C0.941257 7.87049 0.941257 10.4339 0.941257 12.9873C0.941257 13.6382 1.36182 14.0587 2.01269 14.0587C5.67758 14.0587 9.33242 14.0587 12.9973 14.0587C13.6482 14.0587 14.0687 13.6382 14.0687 12.9873C14.0687 10.4339 14.0687 7.87049 14.0687 5.31709C14.0687 5.26702 14.0687 5.21695 14.0687 5.15687H0.941257ZM0.95128 4.20561H14.0687C14.0687 3.8251 14.0687 3.46462 14.0687 3.09413C14.0687 2.58345 13.6982 2.15287 13.1976 2.11282C12.7169 2.07276 12.2263 2.11282 11.7256 2.11282C11.7256 2.26302 11.7256 2.41322 11.7256 2.55341C11.7256 2.83378 11.5153 3.04406 11.245 3.04406C10.9846 3.04406 10.7844 2.83378 10.7844 2.55341C10.7844 2.41322 10.7844 2.26302 10.7844 2.11282H4.22566C4.22566 2.26302 4.22566 2.41322 4.22566 2.55341C4.22566 2.83378 4.02537 3.03405 3.76503 3.03405C3.49467 3.03405 3.29437 2.82376 3.29437 2.54339C3.29437 2.4032 3.29437 2.25301 3.29437 2.10281C2.7937 2.10281 2.30308 2.07277 1.82244 2.10281C1.36182 2.13285 0.991343 2.52337 0.961303 2.98398C0.941276 3.38451 0.961303 3.78504 0.961303 4.18558L0.95128 4.20561Z" fill="#030024"/>
</svg>
