<svg width="14" height="14" viewBox="0 0 14 14" fill="none" xmlns="http://www.w3.org/2000/svg">
<path d="M2.06338 14L11.9366 14C13.0762 14 14 13.0762 14 11.9366L14 2.06338C14 0.923808 13.0762 0 11.9366 0L2.06338 0C0.923808 0 0 0.923808 0 2.06338L0 11.9366C0 13.0762 0.923808 14 2.06338 14Z" fill="#D8D8D8"/>
<path d="M5.84961 9.84233C5.84961 9.84233 5.85984 9.75976 5.89079 9.73913L8.49068 7.08773L5.89079 4.27117C5.83921 4.21959 5.83921 4.12672 5.89079 4.06482C5.94238 4.00292 6.02497 4.00292 6.07655 4.06482L8.77958 6.98453C8.77958 6.98453 8.82089 7.04647 8.82089 7.08773C8.82089 7.08773 8.80021 7.17024 8.77958 7.19088L6.07655 9.94548C6.02497 9.99706 5.94238 9.99706 5.89079 9.94548C5.87016 9.91453 5.85994 9.88361 5.85994 9.85266L5.84961 9.84233Z" fill="#030024" stroke="#030024" stroke-width="0.34" stroke-miterlimit="10"/>
</svg>
