<svg width="14" height="14" viewBox="0 0 14 14" fill="none" xmlns="http://www.w3.org/2000/svg">
<path d="M11.9366 0H2.06336C0.9238 0 0 0.9238 0 2.06336V11.9365C0 13.0761 0.9238 13.9999 2.06336 13.9999H11.9366C13.0762 13.9999 14 13.0761 14 11.9365V2.06336C14 0.9238 13.0762 0 11.9366 0Z" fill="#D8D8D8"/>
<path d="M8.15032 4.15767C8.15032 4.15767 8.14008 4.24018 8.10913 4.26082L5.50927 6.91225L8.10913 9.72878C8.16072 9.78037 8.16072 9.87317 8.10913 9.93507C8.05755 9.99697 7.97496 9.99697 7.92338 9.93507L5.22037 7.01545C5.22037 7.01545 5.17907 6.95351 5.17907 6.91225C5.17907 6.91225 5.19974 6.82974 5.22037 6.8091L7.92338 4.05453C7.97496 4.00295 8.05755 4.00295 8.10913 4.05453C8.12977 4.08548 8.13999 4.11639 8.13999 4.14735L8.15032 4.15767Z" fill="#030024" stroke="#030024" stroke-width="0.34" stroke-miterlimit="10"/>
</svg>
