<svg width="7" height="7" viewBox="0 0 7 7" fill="none" xmlns="http://www.w3.org/2000/svg">
<path d="M4.31916 1.18737C4.81584 1.68406 5.31253 2.18075 5.80922 2.67743C5.77683 2.70983 5.7444 2.74225 5.71201 2.77464C4.49189 3.99476 3.26101 5.2257 2.04089 6.44582C1.97611 6.51061 1.87888 6.56454 1.7817 6.58613C1.26342 6.7265 0.745145 6.84532 0.237661 6.97489C0.0541035 7.01808 -0.0322344 6.94247 0.0109556 6.74812C0.140526 6.21904 0.270091 5.67919 0.410459 5.15011C0.421256 5.09612 0.464399 5.03131 0.496791 4.98812C1.7493 3.72481 3.00187 2.47231 4.26518 1.2198C4.27598 1.209 4.29755 1.19822 4.30835 1.17663L4.31916 1.18737Z" fill="#8F8F8F"/>
<path d="M6.25187 2.22398C5.76598 1.73809 5.26929 1.2414 4.76181 0.733916C4.96696 0.539561 5.16134 0.323624 5.38808 0.140066C5.65802 -0.0758843 6.05751 -0.0326968 6.31665 0.204849C6.48941 0.356014 6.64059 0.51799 6.80256 0.69075C7.0509 0.971486 7.07251 1.38175 6.82417 1.66249C6.64061 1.86764 6.43542 2.04042 6.24106 2.22398H6.25187Z" fill="#8F8F8F"/>
</svg>
