<svg width="4" height="7" viewBox="0 0 4 7" fill="none" xmlns="http://www.w3.org/2000/svg">
<path d="M0.174025 3.57391L2.00442 6.00765C2.00442 6.00765 2.0249 6.02809 2.03512 6.02809C2.04535 6.02809 2.05555 6.02809 2.076 6.02809C2.076 6.02809 2.0965 6.02809 2.11695 6.02809C2.12717 6.02809 2.13737 6.01787 2.14759 6.00765C2.14759 6.00765 2.1476 6.00764 2.15783 5.99741L3.85528 3.47164C3.88596 3.42051 3.87576 3.34894 3.82464 3.31826C3.80418 3.30803 3.78373 3.2978 3.76328 3.2978C3.72238 3.2978 3.69168 3.31826 3.67122 3.34894L2.1783 5.56793V0.240306C2.1783 0.178952 2.12712 0.127822 2.06577 0.127822C2.00441 0.127822 1.9533 0.178952 1.9533 0.240306V5.60884L0.327436 3.44096C0.327436 3.44096 0.214928 3.37962 0.174025 3.42052C0.122896 3.46143 0.11265 3.533 0.153553 3.57391H0.174025Z" fill="#FF3B2E" stroke="#FF3B2E" stroke-width="0.25" stroke-linecap="round" stroke-linejoin="round"/>
</svg>
