<svg width="10" height="15" viewBox="0 0 10 15" fill="none" xmlns="http://www.w3.org/2000/svg">
<path d="M9.34512 6.31204L4.89912 0.407895C4.89912 0.407895 4.88897 0.397709 4.87877 0.387511C4.87877 0.387511 4.87876 0.387502 4.86856 0.377304C4.84817 0.35691 4.81757 0.336497 4.79718 0.3263C4.79718 0.3263 4.79717 0.3263 4.78697 0.3263C4.75638 0.316103 4.72582 0.305917 4.69523 0.305917C4.69523 0.305917 4.63402 0.305906 4.60343 0.3263C4.60343 0.3263 4.59321 0.3263 4.58301 0.3263C4.55242 0.336497 4.53202 0.35691 4.51163 0.377304C4.51163 0.377304 4.51163 0.377314 4.51163 0.387511C4.51163 0.387511 4.49126 0.407904 4.48107 0.418102L0.351242 6.54656C0.269665 6.66892 0.300263 6.84227 0.422629 6.92384C0.473615 6.95444 0.524563 6.97485 0.575549 6.97485C0.667323 6.97485 0.748932 6.93406 0.799918 6.85249L4.4403 1.4684V14.4187C4.4403 14.5717 4.56262 14.6941 4.71558 14.6941C4.86854 14.6941 4.99092 14.5717 4.99092 14.4187V1.38681L8.94741 6.63833C9.03919 6.76069 9.21254 6.7811 9.3247 6.68933C9.44707 6.59756 9.46745 6.42421 9.37568 6.31204H9.34512Z" fill="#FB7E10" stroke="#FB7E10" stroke-width="0.6" stroke-linecap="round" stroke-linejoin="round"/>
</svg>
