<svg width="8" height="8" viewBox="0 0 8 8" fill="none" xmlns="http://www.w3.org/2000/svg">
<path d="M4.00001 0C6.21429 0 7.99998 1.78575 7.99998 4.00003C7.99998 6.21431 6.20408 8 3.9898 8C1.77552 8 -0.0101605 6.2041 4.35152e-05 3.98982C4.35152e-05 1.78574 1.79594 0 4.00001 0ZM3.4796 4.75512C3.4796 5.16328 3.4796 5.57146 3.4796 5.97962C3.4796 6.14288 3.55105 6.26528 3.6939 6.30609C3.84696 6.34691 4.01025 6.37757 4.16331 6.35716C4.44903 6.31635 4.53064 6.1939 4.53064 5.90818C4.53064 5.13268 4.53064 4.35714 4.53064 3.58163C4.53064 3.35714 4.45917 3.2347 4.23469 3.20409C4.07142 3.17347 3.89797 3.18368 3.74491 3.20409C3.57144 3.2347 3.4796 3.35717 3.4796 3.55105C3.4796 3.94901 3.4796 4.35716 3.4796 4.75512ZM4.00001 2.52043C4.29593 2.52043 4.54086 2.30611 4.54086 2.04081C4.54086 1.7755 4.28572 1.55104 3.9898 1.55104C3.69388 1.55104 3.44901 1.77556 3.4388 2.03066C3.4388 2.29596 3.69389 2.52043 4.00001 2.52043Z" fill="#8F8F8F"/>
</svg>
