<svg width="21" height="23" viewBox="0 0 21 23" fill="none" xmlns="http://www.w3.org/2000/svg">
<path d="M16.649 19.8582C15.861 19.8582 15.0831 19.8582 14.2951 19.8582C14.1211 19.8582 14.0597 19.9196 14.029 20.0833C13.6811 21.7719 12.1767 23 10.4574 23C8.73804 23 7.22342 21.7719 6.8857 20.0833C6.84476 19.8991 6.76298 19.8582 6.589 19.8582C5.06413 19.8582 3.53916 19.8582 2.00407 19.8582C1.01137 19.8582 0.243909 19.2748 0.0494631 18.3435C-0.114281 17.576 0.131265 16.921 0.745305 16.4298C1.00115 16.2251 1.25702 16.0307 1.53334 15.8465C1.9734 15.5394 2.18829 15.1198 2.27016 14.5979C2.61812 12.4283 2.9559 10.2485 3.35502 8.07885C3.86672 5.34637 5.47343 3.49402 8.06263 2.50132C8.28778 2.41945 8.36971 2.33758 8.37995 2.08173C8.40042 1.01739 9.13721 0.15774 10.1197 0.0246984C11.1738 -0.128811 12.1256 0.444289 12.4428 1.43699C12.5145 1.67237 12.5451 1.92822 12.5554 2.18407C12.5554 2.35805 12.627 2.41945 12.7702 2.47062C15.2673 3.38145 16.8741 5.11099 17.4881 7.70019C17.7644 8.86687 17.9078 10.0745 18.1022 11.2719C18.2967 12.4488 18.4911 13.6257 18.6855 14.7924C18.7469 15.1915 18.9516 15.5087 19.2688 15.7543C19.5451 15.959 19.8215 16.1637 20.0876 16.3786C20.804 16.921 21.0802 17.7397 20.8142 18.5482C20.5481 19.3567 19.8317 19.8684 18.9311 19.8786C18.1738 19.8786 17.4165 19.8786 16.649 19.8786V19.8582ZM10.4471 18.8041C11.5114 18.8041 12.5655 18.8041 13.6299 18.8041C15.3901 18.8041 17.1606 18.8041 18.9209 18.8041C19.3712 18.8041 19.6884 18.5892 19.8112 18.2105C19.934 17.8318 19.8113 17.4737 19.4531 17.1973C19.1665 16.9824 18.88 16.7675 18.5935 16.5424C18.0818 16.133 17.7542 15.6111 17.6519 14.9663C17.4984 14.0862 17.355 13.2163 17.2118 12.3362C16.9764 10.9137 16.7718 9.48091 16.4954 8.05838C15.8098 4.56859 12.361 2.46039 9.01445 3.29957C6.55829 3.91361 4.97193 5.47941 4.43976 7.94581C3.97923 10.0847 3.67228 12.2543 3.35502 14.4137C3.20151 15.4576 2.80233 16.2967 1.89151 16.8596C1.69706 16.9824 1.50269 17.1359 1.32871 17.2894C1.0831 17.5044 0.99098 17.7909 1.06262 18.1082C1.13426 18.4356 1.33889 18.6608 1.65614 18.7631C1.78919 18.8041 1.94275 18.8041 2.09626 18.8041C4.87991 18.8041 7.66346 18.8041 10.4471 18.8041ZM12.9852 19.8786H7.9091C8.09331 21.0351 9.20879 21.9357 10.4369 21.9459C11.6752 21.9459 12.801 21.0556 12.9852 19.8786ZM11.491 2.1022C11.491 1.6826 11.317 1.36535 10.9588 1.16067C10.5699 0.955992 10.1811 0.976454 9.8331 1.24254C9.54654 1.45745 9.40324 1.75424 9.42371 2.1022H11.491Z" fill="black"/>
</svg>
