<svg width="28" height="23" viewBox="0 0 28 23" fill="none" xmlns="http://www.w3.org/2000/svg">
<path d="M2.47581 10.9102C2.16551 11.2405 1.87518 11.5909 1.55487 11.9112C1.13445 12.3216 0.603873 12.3216 0.243519 11.9512C-0.0968149 11.5909 -0.0867366 11.0904 0.313657 10.68C1.15448 9.81911 2.00536 8.96829 2.85619 8.12746C3.2666 7.72707 3.747 7.73707 4.16742 8.14747C5.00824 8.97829 5.84908 9.81912 6.67989 10.6599C7.10031 11.0904 7.11025 11.6109 6.73989 11.9712C6.36953 12.3316 5.8691 12.3116 5.42867 11.8912C5.10835 11.5809 4.80808 11.2505 4.44772 10.9602C4.3276 13.5228 5.10835 15.7549 6.80001 17.7369C7.83102 16.3055 9.1123 15.2745 10.7039 14.6138C7.87108 12.0713 8.45169 8.49783 10.3636 6.68605C12.4256 4.73413 15.6387 4.74414 17.6707 6.71607C19.5525 8.53786 20.1131 12.0613 17.3003 14.6038C18.8719 15.2845 20.1732 16.3055 21.2042 17.7569C21.4945 17.3765 21.7447 17.0462 21.985 16.7159C22.3753 16.1754 22.8357 16.0352 23.2862 16.3155C23.7466 16.6058 23.8067 17.1463 23.4363 17.6969C19.8128 23.2423 11.935 24.4235 6.77997 20.1593C4.07731 17.9171 2.70593 14.9942 2.61584 11.4807C2.61584 11.3206 2.61584 11.1604 2.61584 11.0003C2.56579 10.9703 2.51584 10.9402 2.46579 10.9102H2.47581ZM19.8928 18.9181C18.3513 16.7259 16.2593 15.5948 13.5767 15.7449C11.2444 15.8751 9.43265 16.9962 8.11135 18.9381C11.6248 21.7508 16.7197 21.5506 19.8928 18.9181ZM10.5036 10.4497C10.5036 12.3816 12.0652 13.9632 13.9871 13.9732C15.899 13.9732 17.4705 12.4317 17.4906 10.5298C17.5106 8.59792 15.959 6.99635 14.0271 6.98634C12.0952 6.96632 10.5036 8.52786 10.4936 10.4598L10.5036 10.4497Z" fill="#FF3B2E"/>
<path d="M25.4484 11.8811C25.8288 11.4507 26.119 11.1004 26.4393 10.7901C26.8598 10.3697 27.3903 10.3697 27.7507 10.74C28.091 11.1004 28.091 11.6009 27.7006 12.0113C26.8598 12.8721 26.0089 13.7229 25.148 14.5638C24.7276 14.9742 24.2572 14.9642 23.8368 14.5638C22.976 13.7229 22.1251 12.8721 21.2943 12.0113C20.9039 11.6109 20.9039 11.1004 21.2542 10.74C21.6045 10.3897 22.1151 10.3897 22.5255 10.7701C22.8658 11.0904 23.1862 11.4407 23.6066 11.8711C23.6867 10.3296 23.4564 8.98831 22.8958 7.70705C21.3743 4.22363 18.7018 2.17161 14.9381 1.79124C11.2845 1.42087 8.32152 2.85227 6.12937 5.81518C6.07932 5.88525 6.02937 5.96534 5.97932 6.04541C5.61896 6.54591 5.14849 6.67603 4.71807 6.40577C4.27764 6.12549 4.18748 5.57494 4.52782 5.06444C6.40967 2.30173 9.00224 0.580049 12.3155 0.119597C18.6017 -0.751258 24.037 3.21263 25.2082 9.43875C25.3483 10.1795 25.3683 10.9502 25.4584 11.9012L25.4484 11.8811Z" fill="#FF3B2E"/>
</svg>
