<svg width="23" height="20" viewBox="0 0 23 20" fill="none" xmlns="http://www.w3.org/2000/svg">
<path d="M11.305 7.18831C14.4738 7.21868 17.0251 8.34245 19.2726 10.2357C20.7406 11.4708 21.9554 12.9287 22.8565 14.6295C23.0691 15.0345 23.059 15.4091 22.735 15.7432C22.4616 16.0368 22.0871 16.1178 21.753 15.9355C21.5303 15.814 21.3379 15.5913 21.2164 15.3686C20.2343 13.6171 18.9182 12.1491 17.2882 10.9848C13.2993 8.12985 8.68281 8.37282 4.84577 11.6125C3.56001 12.6958 2.50702 13.9715 1.71734 15.4597C1.51485 15.8444 1.22132 16.057 0.775863 16.0165C0.401271 15.976 0.107682 15.7736 0.026689 15.399C-0.0239316 15.1661 -0.00373774 14.8725 0.0975033 14.67C2.31468 10.6912 5.52406 8.03873 10.1305 7.27942C10.576 7.20855 11.0215 7.20856 11.2847 7.18831H11.305Z" fill="#FB7E10"/>
<path d="M15.9013 15.1459C15.9013 17.5858 13.8867 19.5802 11.4569 19.5498C9.01697 19.5296 7.06295 17.525 7.0832 15.075C7.09332 12.6553 9.09789 10.6811 11.5074 10.6912C13.9473 10.6912 15.9114 12.6958 15.9114 15.1459H15.9013ZM14.0993 15.1155C14.0993 13.6677 12.9045 12.4832 11.477 12.4933C10.0495 12.5035 8.88532 13.6779 8.88532 15.1054C8.88532 16.5531 10.0495 17.7477 11.4872 17.7477C12.9248 17.7477 14.1094 16.5632 14.1094 15.1155H14.0993Z" fill="#FB7E10"/>
<path d="M12.3881 2.27811C12.3881 2.71345 12.3983 3.1488 12.3881 3.58413C12.3679 4.13084 11.9933 4.4953 11.4769 4.48518C10.9809 4.48518 10.6063 4.12072 10.5962 3.60439C10.5759 2.70334 10.586 1.81241 10.5962 0.911369C10.5962 0.384916 11.0113 -0.00993375 11.5073 0.00019036C11.9832 0.00019036 12.3679 0.384906 12.3881 0.901235C12.4084 1.36694 12.3881 1.83266 12.3881 2.28825V2.27811Z" fill="#FB7E10"/>
<path d="M1.08966 4.70791C1.1909 4.76865 1.4339 4.85977 1.61613 5.01163C2.24383 5.54821 2.84121 6.10502 3.44866 6.66185C3.90424 7.08706 3.95488 7.60339 3.59041 8.00836C3.22594 8.41332 2.70953 8.41333 2.24382 7.99824C1.606 7.43129 0.978304 6.85421 0.340485 6.28726C0.026638 6.00379 -0.054345 5.64945 0.0975167 5.26473C0.239254 4.90027 0.532834 4.70791 1.08966 4.70791Z" fill="#FB7E10"/>
<path d="M21.9252 4.70791C22.4213 4.70791 22.7047 4.88001 22.8565 5.22423C23.0084 5.55832 22.9883 5.92279 22.7149 6.18602C22.0062 6.85421 21.2874 7.51228 20.5483 8.13998C20.1839 8.4437 19.6877 8.35258 19.3739 8.00836C19.0601 7.66414 19.0196 7.15794 19.3739 6.82384C20.0725 6.14552 20.8014 5.50771 21.5405 4.86989C21.662 4.75853 21.8645 4.73828 21.9353 4.70791H21.9252Z" fill="#FB7E10"/>
</svg>
