<svg width="24" height="22" viewBox="0 0 24 22" fill="none" xmlns="http://www.w3.org/2000/svg">
<path d="M5.5392 13.1551C6.63671 11.2722 7.75441 9.35911 8.86199 7.45608C6.78779 5.08989 7.57312 2.43169 9.00291 1.1328C10.6542 -0.367465 13.1816 -0.377533 14.8429 1.1026C16.2727 2.38135 17.1185 5.04961 15.0141 7.45608C16.1317 9.35911 17.2494 11.2722 18.3671 13.1853C19.9277 12.8027 21.3273 13.0846 22.5255 14.1418C23.8948 15.34 24.3581 17.2733 23.7136 18.9649C23.0793 20.6564 21.4381 21.7942 19.6257 21.8043C17.8032 21.8144 16.1317 20.6766 15.5175 18.9447C15.3766 18.542 15.1953 18.4413 14.8026 18.4514C12.8694 18.4715 10.9361 18.4715 9.00291 18.4514C8.67064 18.4514 8.50954 18.5319 8.37864 18.8642C7.60333 20.9384 5.45866 22.0963 3.35426 21.5929C1.17937 21.0793 -0.189997 19.126 0.0214499 16.8403C0.212759 14.7863 2.02517 13.1048 4.17992 13.0141C4.59274 12.994 5.01567 13.0846 5.52918 13.135L5.5392 13.1551ZM10.7046 8.61402C9.67753 10.3761 8.61022 12.1986 7.55298 14.0412C7.49257 14.1519 7.53289 14.3835 7.60338 14.5144C7.8551 15.0078 8.13698 15.4911 8.42897 15.9543C8.51959 16.0952 8.70087 16.2563 8.84183 16.2563C10.8959 16.2765 12.9399 16.2563 14.9939 16.2765C15.2658 16.2765 15.3564 16.1657 15.4571 15.9341C15.6786 15.4609 15.9202 14.9876 16.2324 14.5748C16.4237 14.3231 16.4338 14.1721 16.2828 13.9203C15.2759 12.2187 14.2791 10.507 13.2722 8.79525C13.2118 8.69456 13.1413 8.60395 13.1413 8.61402H10.6945H10.7046ZM14.0978 4.36493C14.0978 3.14659 13.1714 2.20011 11.9632 2.19004C10.7448 2.19004 9.79838 3.11638 9.78831 4.32465C9.78831 5.54299 10.7147 6.48947 11.9229 6.49954C13.1413 6.49954 14.0877 5.5732 14.0978 4.36493ZM4.36115 19.5187C5.55935 19.5187 6.52598 18.5319 6.51592 17.3438C6.49578 16.1456 5.52917 15.1991 4.3209 15.2092C3.1227 15.2192 2.16614 16.1858 2.17621 17.384C2.17621 18.5722 3.16296 19.5287 4.37123 19.5187H4.36115ZM19.5149 19.5187C20.7231 19.5187 21.6898 18.5722 21.6999 17.384C21.7099 16.1858 20.7534 15.2092 19.5552 15.2092C18.3469 15.2092 17.3803 16.1456 17.3602 17.3438C17.34 18.5319 18.3066 19.5086 19.5149 19.5187Z" fill="#FF3B2E"/>
</svg>
