<svg width="21" height="21" viewBox="0 0 21 21" fill="none" xmlns="http://www.w3.org/2000/svg">
<path d="M16.1052 21C14.7631 20.948 13.4315 20.4694 12.1623 19.814C8.78114 18.0662 6.02423 15.5693 3.65225 12.6252C2.33101 10.9814 1.19703 9.20248 0.5 7.20501C0.13588 6.18548 -0.113796 5.13474 0.0526596 4.03197C0.146291 3.42857 0.375168 2.9084 0.801709 2.47146C1.41551 1.86806 2.00849 1.24385 2.6327 0.650852C3.49618 -0.181425 4.703 -0.233493 5.57689 0.598783C6.57562 1.5455 7.55354 2.52342 8.50026 3.52215C9.50939 4.5833 9.14528 6.14383 7.79283 6.71602C6.58603 7.22579 6.15946 8.12052 6.59641 9.35854C7.15819 10.9607 8.24017 12.1883 9.57181 13.187C10.2064 13.6656 10.9243 14.0713 11.6629 14.3626C12.7553 14.7995 13.8476 14.3105 14.2222 13.2078C14.6487 11.9698 16.3549 11.3456 17.5304 12.5316C18.4564 13.4575 19.3927 14.3834 20.3082 15.3197C21.1613 16.1832 21.182 17.4212 20.3498 18.2951C19.7152 18.9713 19.0494 19.6163 18.3835 20.2613C17.7905 20.8335 17.0311 21 16.126 21H16.1052Z" fill="#8F8F8F"/>
</svg>
