<svg width="11" height="603" viewBox="0 0 11 603" fill="none" xmlns="http://www.w3.org/2000/svg">
<path d="M8.49361 0.37538H2.3774C1.27172 0.37538 0.37538 1.27172 0.37538 2.3774V8.49358C0.37538 9.59927 1.27172 10.4956 2.3774 10.4956H8.49361C9.5993 10.4956 10.4956 9.59927 10.4956 8.49358V2.3774C10.4956 1.27172 9.5993 0.37538 8.49361 0.37538Z" fill="white" stroke="#030024" stroke-width="0.75" stroke-miterlimit="10"/>
<path d="M8.49361 51.417H2.3774C1.27172 51.417 0.37538 52.3133 0.37538 53.419V59.5352C0.37538 60.6409 1.27172 61.5373 2.3774 61.5373H8.49361C9.5993 61.5373 10.4956 60.6409 10.4956 59.5352V53.419C10.4956 52.3133 9.5993 51.417 8.49361 51.417Z" fill="white" stroke="#030024" stroke-width="0.75" stroke-miterlimit="10"/>
<path d="M8.49361 118.255H2.3774C1.27172 118.255 0.37538 119.151 0.37538 120.257V126.373C0.37538 127.479 1.27172 128.375 2.3774 128.375H8.49361C9.5993 128.375 10.4956 127.479 10.4956 126.373V120.257C10.4956 119.151 9.5993 118.255 8.49361 118.255Z" fill="white" stroke="#030024" stroke-width="0.75" stroke-miterlimit="10"/>
<path d="M8.49361 185.893H2.3774C1.27172 185.893 0.37538 186.789 0.37538 187.895V194.011C0.37538 195.117 1.27172 196.013 2.3774 196.013H8.49361C9.5993 196.013 10.4956 195.117 10.4956 194.011V187.895C10.4956 186.789 9.5993 185.893 8.49361 185.893Z" fill="white" stroke="#030024" stroke-width="0.75" stroke-miterlimit="10"/>
<path d="M8.49361 253.531H2.3774C1.27172 253.531 0.37538 254.428 0.37538 255.533V261.65C0.37538 262.755 1.27172 263.652 2.3774 263.652H8.49361C9.5993 263.652 10.4956 262.755 10.4956 261.65V255.533C10.4956 254.428 9.5993 253.531 8.49361 253.531Z" fill="white" stroke="#030024" stroke-width="0.75" stroke-miterlimit="10"/>
<path d="M8.49361 321.33H2.3774C1.27172 321.33 0.37538 322.226 0.37538 323.332V329.448C0.37538 330.554 1.27172 331.45 2.3774 331.45H8.49361C9.5993 331.45 10.4956 330.554 10.4956 329.448V323.332C10.4956 322.226 9.5993 321.33 8.49361 321.33Z" fill="white" stroke="#030024" stroke-width="0.75" stroke-miterlimit="10"/>
<path d="M8.49361 389.119H2.3774C1.27172 389.119 0.37538 390.015 0.37538 391.121V397.237C0.37538 398.343 1.27172 399.239 2.3774 399.239H8.49361C9.5993 399.239 10.4956 398.343 10.4956 397.237V391.121C10.4956 390.015 9.5993 389.119 8.49361 389.119Z" fill="white" stroke="#030024" stroke-width="0.75" stroke-miterlimit="10"/>
<path d="M8.49361 456.917H2.3774C1.27172 456.917 0.37538 457.814 0.37538 458.919V465.035C0.37538 466.141 1.27172 467.037 2.3774 467.037H8.49361C9.5993 467.037 10.4956 466.141 10.4956 465.035V458.919C10.4956 457.814 9.5993 456.917 8.49361 456.917Z" fill="white" stroke="#030024" stroke-width="0.75" stroke-miterlimit="10"/>
<path d="M8.49361 524.716H2.3774C1.27172 524.716 0.37538 525.612 0.37538 526.718V532.834C0.37538 533.94 1.27172 534.836 2.3774 534.836H8.49361C9.5993 534.836 10.4956 533.94 10.4956 532.834V526.718C10.4956 525.612 9.5993 524.716 8.49361 524.716Z" fill="white" stroke="#030024" stroke-width="0.75" stroke-miterlimit="10"/>
<path d="M8.49361 592.504H2.3774C1.27172 592.504 0.37538 593.401 0.37538 594.506V600.623C0.37538 601.728 1.27172 602.625 2.3774 602.625H8.49361C9.5993 602.625 10.4956 601.728 10.4956 600.623V594.506C10.4956 593.401 9.5993 592.504 8.49361 592.504Z" fill="white" stroke="#030024" stroke-width="0.75" stroke-miterlimit="10"/>
<path d="M4.21975 260.088C5.43098 258.897 6.59215 257.746 7.75333 256.605C7.97355 256.384 8.19378 256.164 8.414 255.954C8.67426 255.704 9.01462 255.694 9.24486 255.924C9.4851 256.154 9.47508 256.504 9.20481 256.765C7.69328 258.266 6.18175 259.758 4.67022 261.249C4.39995 261.52 4.06963 261.51 3.80937 261.249C3.07863 260.499 2.34786 259.748 1.62713 258.987C1.38689 258.737 1.3969 258.396 1.62713 258.176C1.85737 257.946 2.20774 257.956 2.45799 258.206C3.00855 258.767 3.5491 259.327 4.08965 259.898C4.14971 259.958 4.17972 260.038 4.22977 260.108L4.21975 260.088Z" fill="black"/>
</svg>
