<svg width="11" height="11" viewBox="0 0 11 11" fill="none" xmlns="http://www.w3.org/2000/svg">
<path d="M4.54356 5.51258C4.42317 5.41226 4.35296 5.37213 4.3028 5.32197C2.94847 3.97767 1.60413 2.62334 0.249806 1.26901C0.0391331 1.05833 -0.0611483 0.807554 0.0391723 0.506592C0.129461 0.225694 0.330048 0.0651603 0.610946 0.015C0.891844 -0.0351604 1.10257 0.095276 1.29318 0.285885C2.62744 1.63018 3.97175 2.96443 5.31605 4.30872C5.36621 4.35888 5.42633 4.41909 5.49656 4.47928C5.56678 4.41909 5.62704 4.3589 5.68723 4.29871C7.03153 2.95441 8.3658 1.62014 9.7101 0.275843C9.92077 0.0651701 10.1515 -0.0552147 10.4625 0.0250418C10.9741 0.165491 11.1647 0.767429 10.8236 1.16871C10.7735 1.2289 10.7133 1.27905 10.6631 1.33924C9.33886 2.66347 8.01467 3.9877 6.69043 5.31193C6.64027 5.36209 6.58004 5.4223 6.51985 5.49253C6.58004 5.55272 6.63024 5.6129 6.69043 5.66306C8.03473 7.00735 9.37905 8.35164 10.7233 9.69593C10.944 9.91664 11.0644 10.1675 10.9641 10.4885C10.8136 10.96 10.2418 11.1406 9.85056 10.8296C9.79037 10.7794 9.74016 10.7192 9.67997 10.6691C8.34571 9.33481 7.02149 8.01057 5.68723 6.6763C5.63707 6.62614 5.57682 6.56594 5.5066 6.50575C5.44641 6.56594 5.38629 6.6161 5.33613 6.66626C3.99183 8.01056 2.64752 9.35484 1.30322 10.6991C1.14271 10.8597 0.982137 10.97 0.741368 10.97C0.440406 10.97 0.219798 10.8396 0.0893816 10.5687C-0.0410352 10.2979 -0.000931438 10.0371 0.189678 9.80633C0.239838 9.74614 0.299942 9.69594 0.350103 9.63574C1.67433 8.31151 2.99865 6.98729 4.32288 5.66306C4.37304 5.6129 4.45329 5.57278 4.56364 5.48249L4.54356 5.51258Z" fill="black"/>
</svg>
