<svg width="4" height="7" viewBox="0 0 4 7" fill="none" xmlns="http://www.w3.org/2000/svg">
<path d="M3.82599 2.58202L1.99557 0.148278C1.99557 0.148278 1.97512 0.127822 1.96489 0.127822C1.95467 0.127822 1.94446 0.127822 1.92401 0.127822C1.92401 0.127822 1.90355 0.127822 1.8831 0.127822C1.87287 0.127822 1.86265 0.138052 1.85242 0.148278C1.85242 0.148278 1.85241 0.148273 1.84219 0.158498L0.144704 2.68427C0.114027 2.7354 0.124251 2.80699 0.17538 2.83766C0.195832 2.84789 0.216281 2.8581 0.236732 2.8581C0.277636 2.8581 0.30834 2.83766 0.328792 2.80699L1.82175 0.587995V5.91562C1.82175 5.97697 1.87286 6.0281 1.93422 6.0281C1.99557 6.0281 2.04672 5.97697 2.04672 5.91562V0.547083L3.67261 2.71494C3.67261 2.71494 3.78509 2.7763 3.82599 2.7354C3.87712 2.6945 3.88733 2.62292 3.84643 2.58202H3.82599Z" fill="#FB7E10" stroke="#FB7E10" stroke-width="0.25" stroke-linecap="round" stroke-linejoin="round"/>
</svg>
