<svg width="47" height="47" viewBox="0 0 47 47" fill="none" xmlns="http://www.w3.org/2000/svg">
<path d="M25.6848 0H21.3257C19.4877 0 17.9977 1.48999 17.9977 3.32798V43.672C17.9977 45.51 19.4877 47 21.3257 47H25.6848C27.5227 47 29.0127 45.51 29.0127 43.672V3.32798C29.0127 1.48999 27.5227 0 25.6848 0Z" fill="#E7EBF8"/>
<path d="M0 21.3256L0 25.6846C0 27.5226 1.48999 29.0126 3.32798 29.0126L43.672 29.0126C45.51 29.0126 47 27.5226 47 25.6846V21.3256C47 19.4876 45.51 17.9977 43.672 17.9977L3.32798 17.9977C1.48999 17.9977 0 19.4876 0 21.3256Z" fill="#E7EBF8"/>
</svg>
