<svg width="34" height="34" viewBox="0 0 34 34" fill="none" xmlns="http://www.w3.org/2000/svg">
<path d="M17 0C7.61359 0 0 7.61362 0 17C0 26.3864 7.61359 34 17 34C26.3863 34 34 26.3864 34 17C34 7.61362 26.3863 0 17 0ZM26.786 14.8788C26.6015 14.8993 26.4171 14.9096 26.2429 14.9096C24.2345 14.9096 22.3695 13.8951 21.2628 12.2248V21.3858C21.2628 25.126 18.2296 28.1489 14.4997 28.1489C10.7697 28.1489 7.73658 25.1157 7.73658 21.3858C7.73658 17.6558 10.7697 14.6227 14.4997 14.6227C14.6431 14.6227 14.7764 14.6329 14.9198 14.6432V17.9735C14.7764 17.953 14.6431 17.9325 14.4997 17.9325C12.5937 17.9325 11.0464 19.4798 11.0464 21.3858C11.0464 23.2917 12.5937 24.8391 14.4997 24.8391C16.4056 24.8391 18.0964 23.3327 18.0964 21.4268L18.1272 5.88185H21.314C21.6112 8.7408 23.9168 10.9747 26.786 11.1899V14.8993V14.8788Z" fill="#8F8F8F"/>
</svg>
