<svg width="19" height="20" viewBox="0 0 19 20" fill="none" xmlns="http://www.w3.org/2000/svg">
<path d="M7.33444 13.9565C6.96117 14.3194 6.63975 14.7341 6.2976 15.1281C6.22502 15.097 6.15235 15.0556 6.07977 15.0245V14.3298C6.07977 11.2089 6.07977 8.08798 6.07977 4.96709C6.07977 3.73325 6.09014 2.50976 6.07977 1.27592C6.0694 0.529397 5.54067 0.0213489 4.83561 0.000612037C4.09946 -0.0201248 3.54988 0.487924 3.48767 1.24482C3.4773 1.42108 3.48767 1.60771 3.48767 1.79434C3.48767 5.96245 3.48767 10.1306 3.48767 14.2987V15.0141C3.43583 15.0452 3.37371 15.0659 3.32187 15.097C2.96934 14.7238 2.63753 14.3298 2.26427 13.9772C1.67327 13.4173 0.895566 13.4173 0.377146 13.9461C-0.120538 14.4542 -0.141245 15.2318 0.408281 15.7917C1.7147 17.1292 3.04192 18.4356 4.35871 19.7628C4.65939 20.0739 4.92894 20.0842 5.22962 19.7628C6.54641 18.4356 7.8735 17.1292 9.17992 15.7917C9.76055 15.2007 9.73983 14.4231 9.20068 13.9047C8.68226 13.407 7.92534 13.407 7.36545 13.9461L7.33444 13.9565Z" fill="#030024"/>
<path d="M17.6304 4.2413C18.4391 4.2413 18.9991 3.66068 18.9887 2.92452C18.9887 2.178 18.4287 1.65956 17.5992 1.6492C16.438 1.63883 15.2767 1.6492 14.1155 1.6492C12.9542 1.6492 11.793 1.6492 10.6317 1.6492C9.78148 1.6492 9.22159 2.14688 9.21122 2.88304C9.20086 3.66067 9.75035 4.2413 10.6006 4.2413C12.9438 4.25167 15.2871 4.26204 17.6408 4.2413H17.6304Z" fill="#030024"/>
<path d="M17.703 10.6801C18.4599 10.6697 18.9991 10.0787 18.9991 9.37367C18.9991 8.65824 18.4495 8.11908 17.6823 8.08798C16.9772 8.06724 16.2721 8.08798 15.5671 8.08798C14.8413 8.08798 14.1155 8.07761 13.3794 8.08798C12.5914 8.10871 12.0729 8.62713 12.0626 9.35292C12.0522 10.0891 12.5602 10.6593 13.3275 10.6697C14.779 10.7008 16.2411 10.7008 17.6927 10.6697L17.703 10.6801Z" fill="#030024"/>
<path d="M17.7963 14.5268C17.226 14.4956 16.6557 14.4956 16.0958 14.5268C15.4115 14.5682 14.9138 15.1074 14.8931 15.771C14.8723 16.4553 15.3804 17.0359 16.0855 17.1085C16.355 17.1396 16.635 17.1085 16.9046 17.1085C17.226 17.1085 17.5474 17.1396 17.8584 17.1085C18.5324 17.0255 19.0094 16.4553 18.999 15.7917C18.9887 15.1281 18.491 14.5786 17.8066 14.5371L17.7963 14.5268Z" fill="#030024"/>
</svg>
