<svg width="14" height="14" viewBox="0 0 14 14" fill="none" xmlns="http://www.w3.org/2000/svg">
<path d="M6.20643 8.21369C6.20643 8.05826 6.20643 7.96501 6.20643 7.8614C6.20643 5.56113 6.20643 3.25049 6.20643 0.950221C6.20643 0.81552 6.20634 0.670475 6.24779 0.546136C6.3514 0.183481 6.72449 -0.0444933 7.09751 0.00731453C7.47052 0.0591223 7.7503 0.369981 7.76066 0.76372C7.76066 1.86205 7.76066 2.97074 7.76066 4.06906C7.76066 5.42643 7.76066 6.7838 7.76066 8.19297C7.85391 8.12044 7.91603 8.07899 7.96784 8.02719C8.47556 7.52983 8.97299 7.0221 9.47034 6.52475C9.84336 6.15173 10.3302 6.13101 10.6515 6.46258C10.9727 6.79415 10.9416 7.25005 10.5686 7.62307C9.58426 8.60742 8.59993 9.59177 7.61558 10.5761C7.19076 10.9906 6.77633 10.9906 6.3515 10.5761C5.35679 9.58141 4.35171 8.58672 3.357 7.58165C3.07723 7.30188 3.02537 6.9703 3.17043 6.65945C3.31549 6.35897 3.64709 6.17246 3.97866 6.245C4.15481 6.28644 4.33093 6.39004 4.46563 6.51437C4.97334 7.00137 5.4604 7.49875 5.95776 7.9961C6.01993 8.05827 6.08208 8.11007 6.19605 8.21369H6.20643Z" fill="#030024"/>
<path d="M6.97331 13.9955C5.7092 13.9955 4.44506 13.9955 3.18094 13.9955C1.34695 13.9955 0 12.6381 0 10.8041C0 10.5658 0 10.3275 0 10.0892C0.0207231 9.66433 0.341901 9.35348 0.746002 9.34312C1.18119 9.33276 1.51278 9.63326 1.54386 10.0684C1.56459 10.3275 1.54386 10.5762 1.54386 10.8352C1.56459 11.7885 2.18619 12.4309 3.13946 12.4412C5.69876 12.4516 8.2581 12.4516 10.807 12.4412C11.7603 12.4412 12.382 11.7885 12.4131 10.8352C12.4131 10.5865 12.4131 10.3482 12.4131 10.0995C12.4339 9.64362 12.7654 9.33276 13.211 9.34312C13.6358 9.34312 13.957 9.67469 13.9674 10.1202C13.9674 10.5451 13.9777 10.9803 13.9155 11.3947C13.6979 12.8661 12.4131 13.9851 10.921 13.9955C9.60508 14.0058 8.27886 13.9955 6.96294 13.9955H6.97331Z" fill="#030024"/>
</svg>
