<svg width="23" height="31" viewBox="0 0 23 31" fill="none" xmlns="http://www.w3.org/2000/svg">
<path d="M22.9798 7.37983C22.9798 7.03564 22.7874 6.60038 22.5445 6.3473C20.6109 4.36314 18.6268 2.41946 16.6831 0.445426C16.3592 0.121482 16.0251 0 15.5695 0C11.338 0.0101233 7.10653 0 2.88513 0C1.02245 0 0 1.02242 0 2.8851C0 7.03564 0 11.1862 0 15.3368C0 19.5278 0 23.7188 0 27.9098C0 29.6105 1.06292 30.6734 2.76363 30.6734C8.59462 30.6734 14.4155 30.6734 20.2465 30.6734C21.9472 30.6734 23 29.6105 23 27.9098C23 21.0665 23 14.2231 22.9798 7.37983ZM4.71744 6.3979C7.11665 6.3979 9.50571 6.3979 11.9049 6.3979C12.3503 6.3979 12.7452 6.51938 12.7553 7.02554C12.7654 7.5722 12.3706 7.6937 11.8948 7.68358C10.7003 7.67345 9.49559 7.68358 8.30105 7.68358C7.1065 7.68358 5.90185 7.68358 4.70731 7.68358C4.26188 7.68358 3.86708 7.57217 3.85696 7.06601C3.83671 6.50923 4.26189 6.3979 4.71744 6.3979ZM13.5145 24.4375C12.7351 25.1158 11.9758 25.8345 11.1457 26.4419C10.184 27.1506 9.57659 26.9278 9.13116 25.8042C9.04005 25.5713 8.95908 25.3284 8.85785 25.055C7.49121 27.1607 7.15712 27.2619 5.57789 26.1585C5.04136 26.4116 4.65668 27.3024 4.02903 26.614C3.38115 25.9054 4.36312 25.6523 4.64657 25.1765C4.45423 24.7918 4.23152 24.397 4.0493 23.982C3.63425 23.0102 3.82658 22.0991 4.45422 21.2892C5.06162 20.4895 5.80061 20.2971 6.60035 20.6818C7.38996 21.0564 7.84551 21.8966 7.61267 22.7672C7.46083 23.3341 7.16725 23.8706 6.91417 24.4071C6.79269 24.6602 6.61047 24.8728 6.40801 25.1664C6.59022 25.3081 6.76233 25.4398 7.02554 25.6422C7.29887 25.1462 7.5317 24.6906 7.78478 24.2553C8.08848 23.739 8.23021 22.9798 9.01982 23.0608C9.78919 23.1418 9.80944 23.9111 10.0321 24.4679C10.1536 24.7817 10.2447 25.1057 10.3864 25.5511C11.176 24.8425 11.9049 24.2047 12.6136 23.5467C13.221 22.9899 13.5753 22.8786 13.8688 23.2531C14.294 23.7897 13.8689 24.1339 13.5145 24.4578V24.4375ZM18.2522 19.1836C16.835 19.1836 15.4177 19.1836 14.0106 19.1836C12.6136 19.1836 11.2165 19.1836 9.81954 19.1836C9.37411 19.1836 8.98943 19.1026 8.96919 18.5661C8.94894 17.9992 9.36399 17.8979 9.81954 17.8979C12.6338 17.8979 15.438 17.8979 18.2522 17.8979C18.7078 17.8979 19.1431 17.9991 19.1329 18.5458C19.1329 19.0925 18.7078 19.1836 18.2421 19.1836H18.2522ZM18.313 15.3469C16.0352 15.3469 13.7676 15.3469 11.4899 15.3469C9.23241 15.3469 6.98503 15.3469 4.72754 15.3368C4.47446 15.3368 4.16066 15.2456 3.98856 15.0735C3.67474 14.78 3.83671 14.2637 4.27201 14.1219C4.47448 14.0612 4.7073 14.0612 4.91989 14.0612C9.30325 14.0612 13.6968 14.0612 18.0801 14.0612C18.1611 14.0612 18.2421 14.0612 18.3231 14.0612C18.7685 14.0612 19.1532 14.1928 19.1431 14.7091C19.1431 15.2153 18.7685 15.3469 18.313 15.3469ZM18.313 11.5203C16.0352 11.5203 13.7676 11.5203 11.4899 11.5203C9.23241 11.5203 6.98503 11.5203 4.72754 11.5101C4.46434 11.5101 4.13028 11.3887 3.94806 11.2064C3.66461 10.923 3.84683 10.4371 4.26188 10.3055C4.46435 10.2447 4.6972 10.2447 4.90978 10.2447C9.29315 10.2447 13.6866 10.2447 18.07 10.2447C18.151 10.2447 18.232 10.2447 18.313 10.2447C18.7584 10.2447 19.1431 10.3763 19.1431 10.8926C19.1431 11.3988 18.7685 11.5304 18.313 11.5304V11.5203ZM17.4828 6.30677C16.9666 6.25615 16.6527 5.77028 16.6426 5.2135C16.6224 4.28216 16.6426 3.34065 16.6426 2.37894C17.9991 3.72533 19.3051 5.03128 20.611 6.3473C19.5986 6.3473 18.5357 6.41813 17.4828 6.3169V6.30677Z" fill="white"/>
<path d="M5.96265 21.8055C5.87155 21.7549 5.56785 21.9168 5.45649 22.0586C4.97058 22.6457 5.03132 23.3746 5.6792 24.1845C5.93229 23.5265 6.1955 22.9596 6.35748 22.3623C6.39797 22.2105 6.15501 21.9168 5.97279 21.8055H5.96265Z" fill="white"/>
</svg>
