<svg width="28" height="21" viewBox="0 0 28 21" fill="none" xmlns="http://www.w3.org/2000/svg">
<path d="M14.0206 0C16.6637 0 19.3068 0 21.9499 0C25.4602 0 27.9897 2.51918 27.9897 6.01918C27.9897 9.00295 27.9897 11.9971 27.9897 14.9808C27.9897 18.4602 25.4602 20.9897 22.0015 21C16.6637 21 11.3259 21 5.98819 21C2.52949 21 0 18.4602 0 14.9808C0 11.9971 0 9.00295 0 6.01918C0 2.55015 2.52949 0.0103245 5.98819 0C8.66223 0 11.3466 0 14.0206 0ZM8.19764 12.823C10.7684 12.823 12.8333 10.7271 12.8127 8.15635C12.8023 5.57523 10.7271 3.51033 8.15631 3.51033C5.59583 3.51033 3.49995 5.6062 3.49995 8.16667C3.49995 10.7581 5.58555 12.8333 8.19764 12.823ZM10.4484 16.323C10.4897 16.4572 10.5 16.5398 10.531 16.6224C10.7581 17.2522 11.295 17.5929 11.8732 17.4794C12.472 17.3555 12.8333 16.8599 12.8023 16.1888C12.761 15.0531 11.8318 14.0516 10.6651 14.0207C8.64155 13.9794 6.62828 13.9897 4.60468 14.0207C3.79937 14.031 3.28315 14.8466 3.57223 15.5693C3.78905 16.1165 4.20206 16.3333 4.76991 16.323C6.64896 16.323 8.51769 16.323 10.438 16.323H10.4484ZM19.8643 11.677C20.9587 11.677 22.0531 11.677 23.1371 11.677C23.9631 11.677 24.4896 11.2021 24.4896 10.5C24.4896 9.79793 23.9631 9.33334 23.1268 9.33334C20.9277 9.33334 18.7183 9.33334 16.5192 9.33334C15.6829 9.33334 15.177 9.78762 15.177 10.5103C15.177 11.2227 15.6829 11.6667 16.5295 11.677C17.6446 11.677 18.7493 11.677 19.8643 11.677ZM18.6564 7C19.3997 7 20.1431 7 20.8864 7C21.6298 7 22.146 6.51475 22.1563 5.85398C22.1666 5.19321 21.6505 4.69765 20.9174 4.68733C19.41 4.677 17.9027 4.677 16.3953 4.68733C15.6416 4.68733 15.1667 5.16224 15.1667 5.85398C15.1667 6.5354 15.6622 6.98968 16.4159 7C17.1593 7 17.9027 7 18.646 7H18.6564Z" fill="white"/>
<path d="M8.17695 10.5C6.89671 10.5 5.84358 9.46756 5.82293 8.18732C5.80229 6.90708 6.89671 5.81268 8.17695 5.823C9.45718 5.83333 10.4896 6.88643 10.4896 8.16667C10.4896 9.4469 9.44685 10.4897 8.16661 10.5H8.17695Z" fill="white"/>
</svg>
