<svg width="29" height="17" viewBox="0 0 29 17" fill="none" xmlns="http://www.w3.org/2000/svg">
<path d="M28.8992 10.8367C28.8385 8.8936 27.4419 7.16302 25.5494 6.70761C25.4785 6.68737 25.4178 6.64688 25.3166 6.6064C26.3995 5.45268 26.693 4.11679 26.4602 2.61898C26.2477 1.27298 25.2255 0.25082 23.9807 0.149617C22.2603 0.0180521 21.0964 0.665752 20.6815 2.09272C20.2058 3.68161 20.4184 5.16931 21.5519 6.44447C21.5923 6.49507 21.6227 6.55579 21.6733 6.64687C20.1148 6.9606 19.0926 7.90181 18.4449 9.23769C17.7668 9.04541 17.1495 8.87336 16.5322 8.70132C16.856 8.33699 17.2102 8.01313 17.4835 7.61843C18.2425 6.51532 18.4753 5.25027 18.3842 3.93463C18.2425 1.779 17.0685 0.210349 14.8319 0.0180626C13.1115 -0.133743 11.5529 0.67588 10.9052 2.27489C10.1057 4.2686 10.5611 7.31482 12.3626 8.60011C12.3929 8.62035 12.3929 8.67095 12.4031 8.69119C11.8869 8.84299 11.3708 8.95432 10.885 9.13649C10.6016 9.23769 10.4701 9.24781 10.3081 8.93408C9.73128 7.81072 8.82045 7.06182 7.59589 6.71772C7.49469 6.68736 7.39349 6.66712 7.28216 6.63676C7.31252 6.56592 7.31251 6.52544 7.33275 6.49508C8.37515 5.38184 8.62816 4.05607 8.38528 2.59874C8.19299 1.4855 7.61615 0.625278 6.50291 0.281186C5.36943 -0.0629057 4.24607 0.00793728 3.33524 0.898527C2.42441 1.779 2.30297 2.90235 2.42441 4.08643C2.51549 5.04786 2.90007 5.88785 3.65909 6.63676C2.79887 6.81893 2.10055 7.13266 1.52369 7.66904C0.369967 8.73167 -0.0550873 10.0676 0.00563474 11.6059C0.0461161 12.4863 0.521767 12.9822 1.39212 12.9822C3.25426 12.9822 5.11642 12.9822 6.97856 12.9822H7.48458C7.48458 13.1239 7.48458 13.2049 7.48458 13.2959C7.43398 14.0145 7.34287 14.7432 7.33275 15.4617C7.33275 16.332 8.02094 17 8.89129 17C12.6055 17 16.3196 17 20.0237 17C20.8232 17 21.5012 16.4029 21.562 15.6135C21.6024 15.0569 21.562 14.5003 21.5316 13.9335C21.5113 13.6299 21.4506 13.3364 21.3899 12.9721H21.9364C23.8289 12.9721 25.7214 12.9721 27.6139 12.9721C28.3527 12.9721 28.879 12.456 28.8992 11.7172C28.8992 11.4237 28.8992 11.1302 28.8992 10.8367Z" fill="#FB7E10"/>
</svg>
