<svg width="17" height="17" viewBox="0 0 17 17" fill="none" xmlns="http://www.w3.org/2000/svg">
<path d="M14.488 0H2.51183C1.12458 0 0 1.12458 0 2.51183V14.4881C0 15.8754 1.12458 16.9999 2.51183 16.9999H14.488C15.8753 16.9999 17 15.8754 17 14.4881V2.51183C17 1.12458 15.8753 0 14.488 0Z" fill="#D8D8D8"/>
<path d="M9.89894 5.04488C9.89894 5.04488 9.87782 5.14026 9.84603 5.17206L6.68757 8.39397L9.84603 11.8067C9.90962 11.8703 9.90962 11.9869 9.84603 12.0505C9.78244 12.1246 9.68696 12.1246 9.62337 12.0505L6.33787 8.49999C6.33787 8.49999 6.29543 8.42581 6.29543 8.37282C6.29543 8.37282 6.31668 8.27744 6.34848 8.24564L9.63398 4.89649C9.69757 4.83289 9.79292 4.83291 9.85651 4.90709C9.8883 4.93889 9.89894 4.98127 9.89894 5.02366V5.04488Z" fill="#030024" stroke="#030024" stroke-width="0.4" stroke-miterlimit="10"/>
</svg>
