<svg width="179" height="148" viewBox="0 0 179 148" fill="none" xmlns="http://www.w3.org/2000/svg">
<path d="M178.991 36.0097C178.991 34.6122 178.971 33.1945 178.72 31.8372C176.98 22.1548 169.128 15.6194 159.174 15.6094C138.261 15.5792 117.338 15.5088 96.4246 15.6999C92.9659 15.73 91.2365 14.7548 89.7988 11.6078C86.2093 3.75531 79.7645 0.0150816 71.168 0.0150816C54.2666 -0.00502719 37.3552 -0.00502719 20.4538 0.0150816C8.30809 0.0251359 0.0132126 8.26972 0.0132126 20.3752C-0.00689611 56.1285 -0.00690716 91.8819 0.0333103 127.635C0.0333103 129.566 0.194175 131.546 0.656677 133.406C2.8988 142.264 10.6206 147.965 20.2929 147.975C43.3375 147.995 66.3821 147.975 89.4267 147.975C112.351 147.975 135.275 147.985 158.199 147.955C160.008 147.955 161.868 147.855 163.628 147.462C173.099 145.361 178.991 137.73 178.991 127.585C179.011 97.0599 178.991 66.5348 178.991 36.0097Z" fill="white"/>
</svg>
