<svg width="27" height="24" viewBox="0 0 27 24" fill="none" xmlns="http://www.w3.org/2000/svg">
<path d="M17.7286 3.10749V19.106C17.5861 19.0551 17.4843 19.0144 17.3724 18.9635C14.1564 17.6608 10.9506 16.3581 7.73461 15.0656C7.50054 14.974 7.41912 14.8519 7.41912 14.5975C7.42929 12.2669 7.41912 9.93634 7.41912 7.60577C7.41912 7.35134 7.49036 7.23941 7.73461 7.14782C10.9302 5.8655 14.1157 4.56282 17.3113 3.27033C17.4436 3.21944 17.5657 3.16855 17.7286 3.10749Z" stroke="white" stroke-linecap="round" stroke-linejoin="round"/>
<path d="M20.395 11.0151C20.395 14.0683 20.395 17.1316 20.395 20.1847C20.395 20.8971 20.0083 21.3449 19.2959 21.467C18.6242 21.579 17.9219 21.1923 17.7795 20.6224C17.7387 20.4595 17.7286 20.2967 17.7286 20.1237C17.7286 14.0378 17.7286 7.95181 17.7286 1.8557C17.7286 0.970284 18.2883 0.46142 19.1839 0.512305C19.7945 0.553014 20.3136 0.970299 20.3746 1.48933C20.395 1.64199 20.3848 1.79464 20.3848 1.95747C20.3848 4.98009 20.3848 8.00269 20.3848 11.0151H20.395Z" stroke="white" stroke-miterlimit="10"/>
<path d="M7.39879 7.67702V14.5059C7.39879 14.5059 7.35808 14.5466 7.3479 14.5466C5.65849 14.5466 3.96909 14.5975 2.28986 14.5262C1.23143 14.4855 0.519034 13.5798 0.508857 12.5213C0.508857 11.5851 0.508857 10.6386 0.508857 9.70226C0.508857 8.54206 1.38409 7.66683 2.54429 7.66683C4.07086 7.66683 5.58726 7.66683 7.11383 7.66683C7.20542 7.66683 7.29702 7.67703 7.40897 7.6872L7.39879 7.67702Z" stroke="white" stroke-linecap="round" stroke-linejoin="round"/>
<path d="M7.41917 14.8824C7.41917 15.4625 7.41917 16.0019 7.41917 16.5413C7.41917 18.3834 7.41917 20.2153 7.41917 22.0573C7.41917 22.8817 6.8696 23.4007 6.06561 23.3702C5.50587 23.3498 5.01736 22.9733 4.90541 22.4746C4.87488 22.3321 4.86471 22.1896 4.86471 22.0471C4.86471 19.7675 4.86471 17.4878 4.86471 15.1979C4.86471 15.0962 4.88506 15.0046 4.89524 14.8723H7.42934L7.41917 14.8824Z" stroke="white" stroke-linecap="round" stroke-linejoin="round"/>
<path d="M23.0309 10.9948H26.4911" stroke="white" stroke-linecap="round" stroke-linejoin="round"/>
<path d="M22.4406 7.1071L25.6566 5.83496" stroke="white" stroke-linecap="round" stroke-linejoin="round"/>
<path d="M22.4406 14.8824L25.6566 16.1444" stroke="white" stroke-linecap="round" stroke-linejoin="round"/>
</svg>
