<svg width="23" height="23" viewBox="0 0 23 23" fill="none" xmlns="http://www.w3.org/2000/svg">
<path d="M9.69514 0C10.0739 0.0614266 10.463 0.102391 10.8418 0.174056C12.7767 0.563091 14.4353 1.47425 15.7662 2.93825C17.5373 4.87319 18.3461 7.16646 18.172 9.78733C18.0594 11.4766 17.4861 13.0122 16.5033 14.3841C16.4111 14.5069 16.319 14.64 16.2268 14.7629C16.2268 14.7731 16.2166 14.7936 16.1961 14.8243C16.2473 14.8755 16.3088 14.9472 16.3702 15.0086C18.4587 17.0971 20.5369 19.1856 22.6255 21.2639C22.9224 21.5608 23.0861 21.8884 22.953 22.3184C22.7585 22.9531 22.0009 23.209 21.4686 22.7995C21.3764 22.7279 21.2946 22.6562 21.2229 22.5743C19.1549 20.5063 17.097 18.4485 15.029 16.3804C14.9676 16.319 14.9267 16.2371 14.8653 16.1552C14.7117 16.2678 14.6092 16.3395 14.5068 16.4214C13.35 17.2916 12.0499 17.8547 10.6268 18.0799C7.75 18.5304 5.20074 17.7933 3.02009 15.8583C1.40253 14.425 0.460675 12.6129 0.102353 10.4835C0.0614017 10.2275 0.0307133 9.9716 0 9.70542C0 9.30615 0 8.89663 0 8.49736C0.0409511 8.23117 0.0614116 7.96499 0.112601 7.69881C0.48116 5.51816 1.48442 3.69584 3.14294 2.24208C4.351 1.17735 5.76379 0.491421 7.3404 0.184288C7.7192 0.112624 8.10823 0.0614366 8.48703 0.0102478C8.8863 0.0102478 9.29587 0.0102478 9.69514 0.0102478V0ZM16.2883 9.11163C16.2679 5.1189 13.0634 1.93494 9.11164 1.92471C5.15986 1.91447 1.93494 5.13938 1.92471 9.1014C1.91447 13.0532 5.12914 16.2985 9.1014 16.2883C13.0532 16.2883 16.2575 13.1351 16.2985 9.11163H16.2883Z" fill="#8F8F8F"/>
</svg>
