<svg width="24" height="20" viewBox="0 0 24 20" fill="none" xmlns="http://www.w3.org/2000/svg">
<path d="M11.98 19.83C8.89 19.83 5.8 19.83 2.71 19.83C1.41 19.83 0.380002 19.06 0.0800018 17.88C0.0200018 17.63 0 17.36 0 17.11C0 12.32 0 7.52998 0 2.72998C0 1.10998 1.11 0 2.74 0C5.01 0 7.27 0 9.54 0C10.69 0 11.56 0.499988 12.04 1.54999C12.23 1.96999 12.46 2.09998 12.93 2.09998C15.73 2.06998 18.54 2.08 21.34 2.09C22.67 2.09 23.73 2.96999 23.96 4.26999C23.99 4.44999 24 4.63999 24 4.82999C24 8.91999 24 13.01 24 17.1C24 18.46 23.21 19.48 21.94 19.76C21.7 19.81 21.46 19.83 21.21 19.83C18.14 19.83 15.06 19.83 11.99 19.83H11.98ZM11.99 18.78C15.07 18.78 18.15 18.78 21.23 18.78C22.31 18.78 22.95 18.15 22.95 17.06C22.95 13.69 22.95 10.31 22.95 6.94C22.95 5.86 22.31 5.22 21.24 5.22C18.55 5.22 15.86 5.22 13.17 5.22C12.85 5.22 12.65 5.09998 12.52 4.81998C12.06 3.87998 11.58 2.94 11.11 2C10.79 1.36 10.28 1.04999 9.56 1.04999C7.28 1.04999 5 1.04999 2.71 1.04999C1.68 1.04999 1.03 1.69998 1.03 2.72998C1.03 7.51998 1.03 12.32 1.03 17.11C1.03 17.23 1.03 17.36 1.05 17.47C1.2 18.28 1.82 18.78 2.69 18.78C5.79 18.78 8.89 18.78 11.98 18.78H11.99ZM22.94 4.69998C22.94 4.58998 22.94 4.53 22.93 4.47C22.79 3.66 22.15 3.13 21.28 3.13C18.55 3.13 15.82 3.13 13.09 3.13C13.02 3.13 12.95 3.12999 12.84 3.14999C12.98 3.43999 13.13 3.68999 13.24 3.95999C13.31 4.13999 13.41 4.19 13.61 4.19C16 4.19 18.39 4.19 20.78 4.19C21.54 4.19 22.28 4.18999 22.95 4.70999L22.94 4.69998Z" fill="white"/>
</svg>
