<svg width="27" height="25" viewBox="0 0 27 25" fill="none" xmlns="http://www.w3.org/2000/svg">
<path d="M17.79 4.01001V19.73C17.65 19.68 17.55 19.64 17.44 19.59C14.28 18.31 11.13 17.03 7.96997 15.76C7.73997 15.67 7.65997 15.55 7.65997 15.3C7.66997 13.01 7.65997 10.72 7.65997 8.42999C7.65997 8.17999 7.72997 8.07001 7.96997 7.98001C11.11 6.72001 14.24 5.44001 17.38 4.17001C17.51 4.12001 17.63 4.07001 17.79 4.01001Z" stroke="white" stroke-linecap="round" stroke-linejoin="round"/>
<path d="M20.41 11.78C20.41 14.78 20.41 17.79 20.41 20.79C20.41 21.49 20.03 21.93 19.33 22.05C18.67 22.16 17.98 21.78 17.84 21.22C17.8 21.06 17.79 20.9 17.79 20.73C17.79 14.75 17.79 8.76998 17.79 2.77998C17.79 1.90998 18.34 1.40997 19.22 1.45997C19.82 1.49997 20.33 1.90999 20.39 2.41999C20.41 2.56999 20.4 2.71998 20.4 2.87998C20.4 5.84998 20.4 8.81998 20.4 11.78H20.41Z" stroke="white" stroke-miterlimit="10"/>
<path d="M7.64 8.5V15.21C7.64 15.21 7.6 15.25 7.59 15.25C5.93 15.25 4.27 15.3 2.62 15.23C1.58 15.19 0.879995 14.3 0.869995 13.26C0.869995 12.34 0.869995 11.41 0.869995 10.49C0.869995 9.34999 1.73 8.48999 2.87 8.48999C4.37 8.48999 5.86 8.48999 7.36 8.48999C7.45 8.48999 7.54 8.50001 7.65 8.51001L7.64 8.5Z" stroke="white" stroke-linecap="round" stroke-linejoin="round"/>
<path d="M7.66002 15.5799C7.66002 16.1499 7.66002 16.6799 7.66002 17.2099C7.66002 19.0199 7.66002 20.8199 7.66002 22.6299C7.66002 23.4399 7.12002 23.95 6.33002 23.92C5.78002 23.9 5.30002 23.5299 5.19002 23.0399C5.16002 22.8999 5.15002 22.7599 5.15002 22.6199C5.15002 20.3799 5.15002 18.14 5.15002 15.89C5.15002 15.79 5.17002 15.6999 5.18002 15.5699H7.67002L7.66002 15.5799Z" stroke="white" stroke-linecap="round" stroke-linejoin="round"/>
<path d="M23 11.76H26.4" stroke="white" stroke-linecap="round" stroke-linejoin="round"/>
<path d="M22.42 7.93994L25.58 6.68994" stroke="white" stroke-linecap="round" stroke-linejoin="round"/>
<path d="M22.42 15.58L25.58 16.82" stroke="white" stroke-linecap="round" stroke-linejoin="round"/>
</svg>
