<svg width="25" height="25" viewBox="0 0 25 25" fill="none" xmlns="http://www.w3.org/2000/svg">
<path d="M23.09 11.5799C23.34 11.6099 23.56 11.6099 23.76 11.6599C24.37 11.8099 24.83 12.3199 24.85 12.9399C24.88 14.2399 24.88 15.5499 24.85 16.8499C24.83 17.5899 24.19 18.1599 23.44 18.1899C23.34 18.1899 23.24 18.1899 23.09 18.1899C23.09 18.3099 23.09 18.4099 23.09 18.5099C23.09 19.3499 23.09 20.1999 23.09 21.0399C23.09 22.9699 21.69 24.3899 19.76 24.3899C14.42 24.3899 9.08001 24.3899 3.73001 24.3899C1.81001 24.3899 0.430013 23.0099 0.400013 21.0799C0.390013 20.0299 0.400013 18.9799 0.400013 17.9299C0.400013 14.8899 0.400013 11.8599 0.400013 8.81993C0.400013 7.38993 1.02001 6.33995 2.31001 5.70995C2.80001 5.46995 3.33001 5.38992 3.87001 5.42992C4.46001 5.46992 5.01001 5.33992 5.56001 5.11992C8.91001 3.81992 12.26 2.52991 15.62 1.23991C16.68 0.829914 17.49 1.1399 18 2.1599C18.51 3.1699 19.02 4.17994 19.52 5.19994C19.6 5.35994 19.69 5.42992 19.88 5.42992C21.74 5.48992 23.09 6.87991 23.1 8.73991C23.1 9.68991 23.1 10.63 23.1 11.59L23.09 11.5799ZM22.31 11.6099C22.31 10.6299 22.31 9.69993 22.31 8.75993C22.31 7.24993 21.27 6.17991 19.76 6.16991C14.42 6.15991 9.07001 6.15991 3.73001 6.16991C2.21001 6.16991 1.16001 7.24994 1.16001 8.76994C1.16001 12.8599 1.16001 16.94 1.16001 21.03C1.16001 21.27 1.18001 21.5199 1.24001 21.7499C1.53001 22.9099 2.51001 23.6199 3.79001 23.6199C6.55001 23.6199 9.30001 23.6199 12.06 23.6199C14.61 23.6199 17.16 23.6199 19.71 23.6199C21.26 23.6199 22.3 22.5599 22.31 21.0199C22.31 20.1699 22.31 19.3099 22.31 18.4599C22.31 18.3699 22.31 18.2799 22.31 18.1799C22.16 18.1799 22.06 18.1799 21.96 18.1799C20.71 18.1799 19.47 18.1799 18.22 18.1799C17.93 18.1799 17.64 18.1599 17.36 18.0999C15.68 17.7099 14.64 16.1899 14.83 14.4399C15.01 12.8599 16.43 11.6199 18.1 11.6099C19.39 11.6099 20.69 11.6099 21.98 11.6099C22.08 11.6099 22.18 11.6099 22.32 11.6099H22.31ZM20.6 12.3699C20.6 12.3699 20.6 12.3699 20.6 12.3799C19.7 12.3799 18.8 12.3499 17.9 12.3799C16.64 12.4299 15.62 13.4999 15.57 14.7599C15.51 16.2499 16.63 17.3999 18.19 17.4099C19.88 17.4199 21.56 17.4099 23.25 17.4099C23.85 17.4099 24.12 17.14 24.12 16.53C24.12 15.44 24.12 14.3599 24.12 13.2699C24.12 12.6199 23.87 12.3599 23.22 12.3599C22.35 12.3599 21.48 12.3599 20.61 12.3599L20.6 12.3699ZM7.04001 5.3499C7.04001 5.3499 7.04001 5.37994 7.04001 5.38994H18.74C18.71 5.30994 18.69 5.24993 18.66 5.18993C18.2 4.25993 17.74 3.32995 17.27 2.39995C16.99 1.83995 16.56 1.6799 15.96 1.9099C13.86 2.7099 11.77 3.51994 9.68001 4.32994C8.80001 4.66994 7.92001 5.00995 7.04001 5.33995V5.3499Z" fill="white" stroke="white" stroke-width="0.25" stroke-miterlimit="10"/>
</svg>
